/* XPM */
static char *XPM_One[] = {
"14 16 2 1",
" 	c #000000",
"a	c #FF3131",
"           aa ",
"           aa ",
"           aa ",
"           aa ",
"           aa ",
"           aa ",
"           aa ",
"           aa ",
"           aa ",
"           aa ",
"           aa ",
"           aa ",
"           aa ",
"           aa ",
"           aa ",
"           aa "};
