/* XPM */
static char * one_xpm[] = {
"15 15 2 1",
" 	c #FFFFFE",
"a	c #000000",
"      aaa      ",
"     aaaa      ",
"    aaaaa      ",
"   aaaaaa      ",
"  aaaaaaa      ",
"      aaa      ",
"      aaa      ",
"      aaa      ",
"      aaa      ",
"      aaa      ",
"      aaa      ",
"      aaa      ",
"  aaaaaaaaaaaa ",
"  aaaaaaaaaaaa ",
"  aaaaaaaaaaaa "};
