/* XPM */
static char *XPM_Seven[] = {
"14 16 2 1",
" 	c #000000",
"a	c #FF3131",
" aaaaaaaaaaaa ",
" aaaaaaaaaaaa ",
"           aa ",
"           aa ",
"           aa ",
"           aa ",
"           aa ",
"           aa ",
"           aa ",
"           aa ",
"           aa ",
"           aa ",
"           aa ",
"           aa ",
"           aa ",
"           aa "};
