/* XPM */
static char *XPM_Colon[] = {
"14 16 2 1",
"  c #000000",
"a c #FF3131",
"              ",
"              ",
"              ",
"     aaaa     ",
"     aaaa     ",
"     aaaa     ",
"              ",
"              ",
"              ",
"              ",
"     aaaa     ",
"     aaaa     ",
"     aaaa     ",
"              ",
"              ",
"              "};