/* XPM */
static char *XPM_Slash[] = {
"14 16 2 1",
"  c #000000",
"a c #FF3131",
"             a",
"            aa",
"           aaa",
"          aaa ",
"         aaa  ",
"        aaa   ",
"       aaa    ",
"      aaa     ",
"     aaa      ",
"    aaa       ",
"   aaa        ",
"  aaa         ",
" aaa          ",
"aaa           ",
"aa            ",
"a             "};