/* XPM */
static char * adjust_fan_power_button_1152_864_xpm[] = {
"14 30 4 1",
" 	c #FAFAFA",
".	c #FBFBFB",
"+	c #F9F9F9",
"@	c #F8F8F8",
"   .++ . +    ",
"+   @+  .     ",
"+        +    ",
"       + +  ..",
" @+.    .  ++ ",
" +@+ . + . +@ ",
"+ +    +++. + ",
"   +       +  ",
"   ++ . . +.  ",
"+ + +    + .. ",
"        + +   ",
"   ++  ....   ",
"  +   +   +  +",
".    + ..  . .",
" +  ++       .",
" ++           ",
". @  .  . . . ",
".+ ++       + ",
"  +@++++  +   ",
" ++  +  + . . ",
". ++++   +    ",
"+  +   +. +   ",
"++ ++.  .     ",
"+     .   ++..",
"     +  ...   ",
" +  +++       ",
"   +    +  ++ ",
" ++ +  +  ++  ",
" +      +.++  ",
"++ + ...+     "};
