/* XPM */
static char * cam_1152_864_xpm[] = {
"30 30 122 2",
"  	c #000000",
". 	c #010101",
"+ 	c #0E0E0E",
"@ 	c #0F0F0F",
"# 	c #101010",
"$ 	c #111111",
"% 	c #0D0D0D",
"& 	c #E2E2E2",
"* 	c #F3F3F3",
"= 	c #EEEEEE",
"- 	c #EFEFEF",
"; 	c #F1F1F1",
"> 	c #373737",
", 	c #030303",
"' 	c #FFFFFF",
") 	c #FEFEFE",
"! 	c #3C3C3C",
"~ 	c #020202",
"{ 	c #3B3B3B",
"] 	c #FDFDFD",
"^ 	c #C6C6C6",
"/ 	c #999999",
"( 	c #9B9B9B",
"_ 	c #9A9A9A",
": 	c #CCCCCC",
"< 	c #FBFBFB",
"[ 	c #F9F9F9",
"} 	c #F6F6F6",
"| 	c #ACACAC",
"1 	c #040404",
"2 	c #0A0A0A",
"3 	c #B9B9B9",
"4 	c #F7F7F7",
"5 	c #FAFAFA",
"6 	c #F0F0F0",
"7 	c #E5E5E5",
"8 	c #616161",
"9 	c #1F1F1F",
"0 	c #1E1E1E",
"a 	c #222222",
"b 	c #2F2F2F",
"c 	c #DDDDDD",
"d 	c #E0E0E0",
"e 	c #E4E4E4",
"f 	c #D1D1D1",
"g 	c #060606",
"h 	c #212121",
"i 	c #1D1D1D",
"j 	c #696969",
"k 	c #EBEBEB",
"l 	c #4D4D4D",
"m 	c #464646",
"n 	c #474747",
"o 	c #484848",
"p 	c #404040",
"q 	c #ABABAB",
"r 	c #FCFCFC",
"s 	c #A3A3A3",
"t 	c #424242",
"u 	c #5E5E5E",
"v 	c #F2F2F2",
"w 	c #515151",
"x 	c #0C0C0C",
"y 	c #565656",
"z 	c #787878",
"A 	c #8E8E8E",
"B 	c #535353",
"C 	c #959595",
"D 	c #5C5C5C",
"E 	c #676767",
"F 	c #3E3E3E",
"G 	c #636363",
"H 	c #C3C3C3",
"I 	c #171717",
"J 	c #252525",
"K 	c #D3D3D3",
"L 	c #5A5A5A",
"M 	c #1C1C1C",
"N 	c #666666",
"O 	c #CACACA",
"P 	c #BFBFBF",
"Q 	c #292929",
"R 	c #F4F4F4",
"S 	c #8C8C8C",
"T 	c #B6B6B6",
"U 	c #989898",
"V 	c #4F4F4F",
"W 	c #232323",
"X 	c #090909",
"Y 	c #5B5B5B",
"Z 	c #525252",
"` 	c #202020",
" .	c #070707",
"..	c #606060",
"+.	c #A0A0A0",
"@.	c #141414",
"#.	c #B7B7B7",
"$.	c #333333",
"%.	c #CFCFCF",
"&.	c #262626",
"*.	c #0B0B0B",
"=.	c #323232",
"-.	c #DCDCDC",
";.	c #979797",
">.	c #5D5D5D",
",.	c #4B4B4B",
"'.	c #585858",
").	c #2C2C2C",
"!.	c #303030",
"~.	c #2E2E2E",
"{.	c #2D2D2D",
"].	c #2A2A2A",
"^.	c #6A6A6A",
"/.	c #EAEAEA",
"(.	c #6B6B6B",
"_.	c #383838",
":.	c #3A3A3A",
"<.	c #393939",
"[.	c #777777",
"}.	c #454545",
"|.	c #444444",
"1.	c #050505",
"                                                      .   + ",
"  . @ # # # # # # # # # # # # # # # # # # # # # # # # $   % ",
"  % & * = - - - - - - - - - - - - - - - - - - - - - - ; > , ",
"  + ; ' ) ' ' ' ' ' ' ' ' ' ' ' ' ' ' ' ' ' ' ' ' ) ' ' ! ~ ",
"  + ; ' ) ' ' ' ' ' ' ' ' ' ' ' ' ' ' ) ' ' ' ' ' ) ' ' { ~ ",
"  + ; ' ] ) ' ' ' ' ' ^ / ( ( ( ( _ : ' ' ' ' ' ) ) ' ' { ~ ",
"  + ; ' ) ' < [ } ' | 1 . 1 , 1 1   2 3 ' 4 [ 5 ' ) ' ' { ~ ",
"  + 6 ' 7 8 9 9 0 a ~ b c & d d e f 0 g h i i 0 j k ' ' { ~ ",
"  % ; ' l   m n m o p q ' r ' ' ] ' s p o m o t   u ' ' { ~ ",
"  % } v ~ 8 ' ] ' ' ' ' ' ' ' ' ' ' ' ' ' ' ] ' w i < ' { ~ ",
"  x } ; , j ' y z ' ] ' 7 A w B C k ' ) ' ' r ' D i < ' { ~ ",
"  x } ; , E ' F G ' ' H I   J a   a K ' ] ' ] ' L M < ' { ~ ",
"  x } ; 1 N ' 5 r ' 7 I 0 O ] ] P $ Q R ' ) ] ' L M < ' { ~ ",
"  x } 6 , N ' r < ' S   O ' ] r ' T   U ' < ] ' L M < ' { ~ ",
"  x } 6 , N ' r ] ' V W ' ' ) ) ' v X u ' r r ' Y M < ' { ~ ",
"  x } 6 , N ' r ] ' Z ` ) ' ) ] ' 6  ...' r r ' L M < ' { ~ ",
"  x } 6 , N ' r < ' C   P ' ] r ' |   +.' < ] ' L M < ' { ~ ",
"  x } 6 , N ' r ) ' k a @.#.; 6 |  .$.[ ' ) ] ' L M < ' { ~ ",
"  x } 6 , N ' r ' ] ' %.&.  x *.  =.-.' ] ' ] ' L i < ' { ~ ",
"  x } 6 , j ' r ' ' ) ' * ;.>...+.} ' ) ' ' r ' >.i < ' { ~ ",
"  % } v , L ' r ) ) ) ] ) ' ' ' ' ) ] ) ) ) ] ' ,.9 < ' { ~ ",
"  % ; ' '.  ).!.~.~.~.~.{.).~.{.).~.~.~.~.~.!.].  ^.' ' { ~ ",
"  + 6 ' /.(._.{ :.:.{ { { { :.:.{ { { { { { { <.[.* ' ' { ~ ",
"  + ; ' ] ' ' ' ' ' ' ' ' ' ' ' ' ' ' ' ' ' ' ' ' ) ' ' { ~ ",
"  + ; ' ] ] ' ' ' ' ' ' ' ' ' ' ' ' ' ' ' ' ' ' ] ) ' ' { ~ ",
"  + ; ' ) ' ' ' ' ' ' ' ' ' ' ' ' ' ' ' ' ' ' ' ' ) ' ' { ~ ",
"  + ; ' ) ' ' ' ' ' ' ' ' ' ' ' ' ' ' ' ' ' ' ' ' ) ' ' { ~ ",
"  + ; ' ) ' ' ' ' ' ' ' ' ' ' ' ' ' ' ' ' ' ' ' ' ) ' ' ! ~ ",
"  1 p }.|.|.|.|.|.|.|.|.|.|.|.|.|.|.|.|.|.|.|.|.|.|.|.}.x *.",
"# @ 1.1 1 1 1 1 1 1 1 1 1 1 1 1 1 1 1 1 1 1 1 1 1 1 1 1.X i "};
