/* XPM */
static char * db_1152_864_xpm[] = {
"24 24 180 2",
"  	c #FEFEFE",
". 	c #FCFCFD",
"+ 	c #FDFDFD",
"@ 	c #FCFDFD",
"# 	c #FFFFFF",
"$ 	c #FCFCFC",
"% 	c #F0F1F4",
"& 	c #A9B4C3",
"* 	c #A8B3C2",
"= 	c #A2ADBE",
"- 	c #C8CFD9",
"; 	c #C8CFD8",
"> 	c #B7BFCD",
", 	c #BBC3CF",
"' 	c #BAC2CF",
") 	c #BDC5D1",
"! 	c #D5DBE2",
"~ 	c #FBFCFC",
"{ 	c #FBFBFC",
"] 	c #DCE0E7",
"^ 	c #344D72",
"/ 	c #304A70",
"( 	c #223D66",
"_ 	c #7F8FA6",
": 	c #5E7390",
"< 	c #2C476D",
"[ 	c #364F74",
"} 	c #354F74",
"| 	c #375175",
"1 	c #375075",
"2 	c #3A5377",
"3 	c #72849E",
"4 	c #EFF0F3",
"5 	c #FDFCFD",
"6 	c #E1E5EA",
"7 	c #41597C",
"8 	c #3D567A",
"9 	c #304A71",
"0 	c #8796AC",
"a 	c #647793",
"b 	c #334D73",
"c 	c #3E567A",
"d 	c #385175",
"e 	c #3C5579",
"f 	c #26426A",
"g 	c #929FB3",
"h 	c #E7EAEF",
"i 	c #8D9BB0",
"j 	c #6C7E99",
"k 	c #8393AA",
"l 	c #B5BECC",
"m 	c #435B7D",
"n 	c #2D486E",
"o 	c #8695AB",
"p 	c #637793",
"q 	c #334D72",
"r 	c #556A89",
"s 	c #99A6B8",
"t 	c #4B6283",
"u 	c #385276",
"v 	c #354F73",
"w 	c #5D728F",
"x 	c #FBFBFB",
"y 	c #FEFEFF",
"z 	c #FFFEFE",
"A 	c #F5F6F7",
"B 	c #607390",
"C 	c #28436B",
"D 	c #3C5578",
"E 	c #3D5679",
"F 	c #344E73",
"G 	c #324C71",
"H 	c #6F819B",
"I 	c #7B8CA4",
"J 	c #2F4A70",
"K 	c #4D6384",
"L 	c #B3BCCA",
"M 	c #2D486F",
"N 	c #3E577A",
"O 	c #395276",
"P 	c #385176",
"Q 	c #6A7D98",
"R 	c #7E8EA6",
"S 	c #2F496F",
"T 	c #496182",
"U 	c #F4F5F7",
"V 	c #919EB3",
"W 	c #2C466D",
"X 	c #ADB6C6",
"Y 	c #A8B2C2",
"Z 	c #324C72",
"` 	c #7889A2",
" .	c #536988",
"..	c #F7F8F9",
"+.	c #FFFFFE",
"@.	c #8B9AAF",
"#.	c #3B5478",
"$.	c #E5E8EC",
"%.	c #3D5579",
"&.	c #3C5478",
"*.	c #365074",
"=.	c #586D8C",
"-.	c #A1ADBE",
";.	c #496081",
">.	c #29456C",
",.	c #8897AD",
"'.	c #8B99AE",
").	c #E6E9ED",
"!.	c #E4E7EC",
"~.	c #304B71",
"{.	c #395277",
"].	c #72839D",
"^.	c #8998AE",
"/.	c #3E5679",
"(.	c #E7E9ED",
"_.	c #4D6484",
":.	c #CCD2DB",
"<.	c #2E486E",
"[.	c #365075",
"}.	c #576C8B",
"|.	c #A0ACBD",
"1.	c #4F6585",
"2.	c #2E486F",
"3.	c #5F7491",
"4.	c #FEFFFF",
"5.	c #6D7F9A",
"6.	c #98A5B8",
"7.	c #40597B",
"8.	c #697C97",
"9.	c #A6B2C2",
"0.	c #D5DAE1",
"a.	c #FDFDFE",
"b.	c #8494AA",
"c.	c #2E496F",
"d.	c #697C98",
"e.	c #A6B1C1",
"f.	c #D4D9E1",
"g.	c #8594AA",
"h.	c #E6E9EE",
"i.	c #A3AEBF",
"j.	c #DEE2E8",
"k.	c #8D9CB0",
"l.	c #CAD1DA",
"m.	c #CED5DD",
"n.	c #354E73",
"o.	c #344D73",
"p.	c #607491",
"q.	c #C4CBD6",
"r.	c #5D718F",
"s.	c #F2F3F5",
"t.	c #2D476D",
"u.	c #536888",
"v.	c #526888",
"w.	c #354E74",
"x.	c #3B5477",
"y.	c #3F577A",
"z.	c #71839D",
"A.	c #D8DCE3",
"B.	c #445C7E",
"C.	c #2A456C",
"D.	c #8493AA",
"E.	c #324B71",
"F.	c #C6CDD7",
"G.	c #B4BDCA",
"H.	c #526887",
"I.	c #455E7F",
"J.	c #3A5477",
"K.	c #6C7F99",
"L.	c #485F80",
"M.	c #465E7F",
"N.	c #4B6182",
"O.	c #B9C2CE",
"P.	c #EAECF0",
"Q.	c #D4DAE1",
"R.	c #EFF1F3",
"S.	c #F1F2F5",
"T.	c #F6F6F8",
"U.	c #F3F4F7",
"V.	c #F2F4F5",
"W.	c #FEFDFD",
"              . . . +   + @ @ @ @ +           # ",
"+ + + + + +   # # # # + # # # # # # # + $ + + # ",
"+ + + + . # % & * = - # ; > , ' ' ) ! ~   $ + # ",
"+ + $ { $ # ] ^ / ( _ # : < [ } | 1 2 3 4 # $ # ",
"+ +   # 5 # 6 7 8 9 0 # a b c | < d e f g # { # ",
"$ # h i j k l m 2 n o # p q 1 r s t u v w x   y ",
"z A B C q n D E D n o # p F G H # I J u K A #   ",
"# L M N 2 D O P E n o # p F q Q # R S O T U #   ",
"# V W N F X Y q c n o # p F Z H # ` / u  ...+.  ",
"# @.n #.E h $.%.&.n o # p q *.=.-.;.2 >.,.# ~ # ",
"# '.n #.c ).!.E #.n o # p G e d ~.{.} ].U +.. # ",
"# ^.n #./.(.$.E #.n o # p G e | S | O _.:.# ~ # ",
"# ,.<.#./.(.$.E #.n o # p q [.}.|.1.u 2.3.  + 4.",
"# 0 2.#./.(.$.E #.n o # p F Z 5.# 6.< D 7.(.#   ",
"# o 2.#./.(.$.E #.n o # p F q 8.# 9.n D &.0.# a.",
"# b.c.#./.(.$.E #.n o # p F q d.# e.<.D #.f.# a.",
"# g.c.#.E h.$.%.#.n o # p F Z j # i.< D c j.#   ",
"# k.< c F l.m.n.E n o # p o.n.p.q.r.F P ;.s.#   ",
"# -.t.N } u.v.w.c n o # p Z &.x.} F y.J z.# $ # ",
"# A.u n.&.2.B.c P C.D.# p.S O 1 P P G E.F.# { # ",
"$ # e.m #. .G.H.I.J.k.# K.N L.M.M.N.p O.# $ + # ",
"+ + # P.Q.R.  S.S.% T.+ U.S.S.S.S.V.~ # + + + # ",
"+ + . # #   + # # #   + +.# # # # # W.~ + + + # ",
"+ + + @ $ + + + + + + + + + + + + + + + + + + # "};
