/* XPM */
static char * degrees_celsius_1152_864_xpm[] = {
"24 24 185 2",
"  	c #FEFEFE",
". 	c #FFFFFF",
"+ 	c #FDFDFD",
"@ 	c #FCFCFC",
"# 	c #F2F3F6",
"$ 	c #9FABBC",
"% 	c #71839D",
"& 	c #6F819C",
"* 	c #909EB2",
"= 	c #E5E8ED",
"- 	c #FDFCFD",
"; 	c #FAFBFB",
"> 	c #FAFAFB",
", 	c #FDFCFC",
"' 	c #FCFDFD",
") 	c #FBFBFB",
"! 	c #70829C",
"~ 	c #2A456C",
"{ 	c #2B466D",
"] 	c #2A456B",
"^ 	c #2B466C",
"/ 	c #536988",
"( 	c #E7EAEE",
"_ 	c #B7C0CD",
": 	c #2E496F",
"< 	c #375075",
"[ 	c #657995",
"} 	c #74869F",
"| 	c #395377",
"1 	c #92A0B3",
"2 	c #DFE2E8",
"3 	c #ADB7C6",
"4 	c #9FABBD",
"5 	c #AAB5C4",
"6 	c #D9DEE5",
"7 	c #8F9DB1",
"8 	c #2F496F",
"9 	c #B1BBC9",
"0 	c #D8DDE4",
"a 	c #365074",
"b 	c #324C71",
"c 	c #6C7E99",
"d 	c #FEFEFD",
"e 	c #A4B0C0",
"f 	c #3E567A",
"g 	c #314B71",
"h 	c #2D476E",
"i 	c #304B71",
"j 	c #3B5478",
"k 	c #8F9DB2",
"l 	c #FBFBFC",
"m 	c #8897AD",
"n 	c #304A70",
"o 	c #B3BCCA",
"p 	c #DADEE4",
"q 	c #385176",
"r 	c #324C72",
"s 	c #637693",
"t 	c #CCD2DC",
"u 	c #324D72",
"v 	c #365175",
"w 	c #3C5579",
"x 	c #385276",
"y 	c #3C5478",
"z 	c #3A5377",
"A 	c #29446B",
"B 	c #A3AEBF",
"C 	c #2F4A70",
"D 	c #B3BDCA",
"E 	c #DADEE5",
"F 	c #375175",
"G 	c #637793",
"H 	c #8292A8",
"I 	c #2D486E",
"J 	c #3D5679",
"K 	c #4F6586",
"L 	c #3C5578",
"M 	c #344E73",
"N 	c #586D8C",
"O 	c #667A95",
"P 	c #F9FAFA",
"Q 	c #5E7390",
"R 	c #354E73",
"S 	c #334D72",
"T 	c #F8F9FA",
"U 	c #72839D",
"V 	c #435B7E",
"W 	c #EFF1F3",
"X 	c #FCFCFD",
"Y 	c #677B96",
"Z 	c #F5F6F7",
"` 	c #4F6685",
" .	c #385175",
"..	c #7C8CA5",
"+.	c #8998AD",
"@.	c #3B5477",
"#.	c #425A7D",
"$.	c #EBEEF1",
"%.	c #8897AC",
"&.	c #B2BCCA",
"*.	c #D9DDE4",
"=.	c #314C71",
"-.	c #687B96",
";.	c #F4F5F7",
">.	c #4B6283",
",.	c #7A8AA3",
"'.	c #8494AA",
").	c #29456C",
"!.	c #365075",
"~.	c #3F577B",
"{.	c #EBEDF1",
"].	c #8C9BB0",
"^.	c #DADFE5",
"/.	c #6C7F9A",
"(.	c #F5F6F8",
"_.	c #7A8BA3",
":.	c #909EB3",
"<.	c #3E577A",
"[.	c #4A6182",
"}.	c #526887",
"|.	c #EDEFF2",
"1.	c #A8B3C3",
"2.	c #6D7F9A",
"3.	c #8191A8",
"4.	c #395277",
"5.	c #8796AC",
"6.	c #FFFEFE",
"7.	c #496081",
"8.	c #7C8DA4",
"9.	c #F1F2F4",
"0.	c #F2F3F5",
"a.	c #516787",
"b.	c #2C466D",
"c.	c #2E486F",
"d.	c #D6DCE3",
"e.	c #395276",
"f.	c #7C8DA5",
"g.	c #FDFDFE",
"h.	c #DEE2E8",
"i.	c #5D728F",
"j.	c #7688A0",
"k.	c #F3F5F6",
"l.	c #4B6183",
"m.	c #F6F7F9",
"n.	c #F7F8F9",
"o.	c #F9F9FA",
"p.	c #F8F8F9",
"q.	c #FFFFFE",
"r.	c #F4F6F7",
"s.	c #99A6B8",
"t.	c #4E6585",
"u.	c #5A6F8D",
"v.	c #E9EBEF",
"w.	c #8393A9",
"x.	c #27436A",
"y.	c #354F74",
"z.	c #3A5477",
"A.	c #E4E7EC",
"B.	c #2E496E",
"C.	c #41597C",
"D.	c #4C6384",
"E.	c #798AA2",
"F.	c #8696AC",
"G.	c #40597B",
"H.	c #E5E9ED",
"I.	c #5A6F8E",
"J.	c #536888",
"K.	c #C2C9D4",
"L.	c #5A708D",
"M.	c #455C7E",
"N.	c #F0F1F4",
"O.	c #3F587B",
"P.	c #667995",
"Q.	c #E0E4E9",
"R.	c #485E81",
"S.	c #334C72",
"T.	c #C0C8D3",
"U.	c #D7DCE3",
"V.	c #6B7D98",
"W.	c #3F577A",
"X.	c #40587B",
"Y.	c #5B708E",
"Z.	c #BAC2CF",
"`.	c #D5DAE1",
" +	c #E2E5EA",
"        . . . . .                             . ",
"+ @ . # $ % & * = . @ + + - ; > ; , + + + + + . ",
"'   ) ! ~ { ] ^ / ( . @ @ . . . . . @ + + + + . ",
"; . _ : < [ } | ^ 1 . > . 2 3 4 5 6 . + + + + . ",
"> . 7 8 : 9 0 a b c d . e f g h i j k - d + + . ",
"l . m n n o p q r s . t u v w x y z A B . ) + . ",
"l . m C C D E F b G . H I J z K L j M N ;   + . ",
"l . m C C D E F b O P Q R S [ T U g z V W . X . ",
"l . m C C D E F b Y Z `  .C ... +.I @.#.$.. @ . ",
"l . %.n n &.*. .=.-.;.>.q n ,.. '.).!.~.{.. @ . ",
"; . ].8 8 &.^.< g /.(.>.q C _.. :.<.[.}.|.. X . ",
"> . 1.I < 2.3.4.h 5.6.7.x n 8.. Z 9.0.0.@ + + . ",
"@ . $.a.{ : b.c.L d.X 7.e.n f.. g.. . . + + + . ",
"+ @ . h.3.Q i.j.t . k.l.e.n f.. T m.n.n.@ + + . ",
"+ + +   . o.p.    q.r.l.e.C _.. s.t.u.Q v.. @ . ",
"+ + + @ @ 6.6.@ l . ;.l.e.C _.. w.x.y.z.A.. @ . ",
"+ + + + + + + + X . ;.l.e.C _.. 5.B.L C.= . @ . ",
"+ + + + + + + + X . Z D.x n E.. F.I j G.H.. @ . ",
"+ + + + + + + + '   P I.y.!.J.K.L.R e.M.N.. X . ",
"+ + + + + + + + + l . 5.{ O.F a < f i P.. + + . ",
"+ + + + + + + + + @ . Q.R.c.| e.z S.g T.. ) + . ",
"+ + + + + + + + + + @ . U.V.C.W.X.Y.Z.. X + + . ",
"+ + + + + + + + + + + @ . X A.`. +> . X + + + . ",
"+ + + + + + + + + + + + @ + . . .   ) + + + + . "};
