/* XPM */
static char * fan_1152_864_xpm[] = {
"30 30 129 2",
"  	c #000000",
". 	c #010101",
"+ 	c #040404",
"@ 	c #686868",
"# 	c #060606",
"$ 	c #111111",
"% 	c #101010",
"& 	c #676767",
"* 	c #5B5B5B",
"= 	c #FBFBFB",
"- 	c #EDEDED",
"; 	c #EFEFEF",
"> 	c #F7F7F7",
", 	c #C7C7C7",
"' 	c #666666",
") 	c #626262",
"! 	c #FFFFFF",
"~ 	c #FCFCFC",
"{ 	c #FDFDFD",
"] 	c #D5D5D5",
"^ 	c #616161",
"/ 	c #D4D4D4",
"( 	c #FEFEFE",
"_ 	c #E3E3E3",
": 	c #CACACA",
"< 	c #C1C1C1",
"[ 	c #C9C9C9",
"} 	c #E2E2E2",
"| 	c #7D7D7D",
"1 	c #787878",
"2 	c #848484",
"3 	c #8C8C8C",
"4 	c #858585",
"5 	c #7B7B7B",
"6 	c #A0A0A0",
"7 	c #696969",
"8 	c #F8F8F8",
"9 	c #CBCBCB",
"0 	c #606060",
"a 	c #9A9A9A",
"b 	c #B8B8B8",
"c 	c #FAFAFA",
"d 	c #7A7A7A",
"e 	c #9D9D9D",
"f 	c #CCCCCC",
"g 	c #656565",
"h 	c #878787",
"i 	c #A3A3A3",
"j 	c #F9F9F9",
"k 	c #636363",
"l 	c #3A3A3A",
"m 	c #808080",
"n 	c #AEAEAE",
"o 	c #2C2C2C",
"p 	c #3E3E3E",
"q 	c #EAEAEA",
"r 	c #D6D6D6",
"s 	c #1E1E1E",
"t 	c #2B2B2B",
"u 	c #A2A2A2",
"v 	c #7C7C7C",
"w 	c #C6C6C6",
"x 	c #0C0C0C",
"y 	c #0A0A0A",
"z 	c #050505",
"A 	c #3D3D3D",
"B 	c #D7D7D7",
"C 	c #1B1B1B",
"D 	c #080808",
"E 	c #828282",
"F 	c #E1E1E1",
"G 	c #838383",
"H 	c #F3F3F3",
"I 	c #030303",
"J 	c #0B0B0B",
"K 	c #1F1F1F",
"L 	c #2D2D2D",
"M 	c #202020",
"N 	c #535353",
"O 	c #343434",
"P 	c #C3C3C3",
"Q 	c #969696",
"R 	c #090909",
"S 	c #434343",
"T 	c #2F2F2F",
"U 	c #2E2E2E",
"V 	c #DFDFDF",
"W 	c #8E8E8E",
"X 	c #7F7F7F",
"Y 	c #BFBFBF",
"Z 	c #6C6C6C",
"` 	c #939393",
" .	c #8F8F8F",
"..	c #272727",
"+.	c #646464",
"@.	c #C0C0C0",
"#.	c #868686",
"$.	c #737373",
"%.	c #A7A7A7",
"&.	c #464646",
"*.	c #242424",
"=.	c #767676",
"-.	c #070707",
";.	c #121212",
">.	c #CDCDCD",
",.	c #777777",
"'.	c #F2F2F2",
").	c #363636",
"!.	c #1A1A1A",
"~.	c #D9D9D9",
"{.	c #747474",
"].	c #F6F6F6",
"^.	c #6F6F6F",
"/.	c #727272",
"(.	c #9B9B9B",
"_.	c #5F5F5F",
":.	c #CFCFCF",
"<.	c #323232",
"[.	c #D2D2D2",
"}.	c #9E9E9E",
"|.	c #797979",
"1.	c #989898",
"2.	c #818181",
"3.	c #E0E0E0",
"4.	c #C4C4C4",
"5.	c #191919",
"6.	c #474747",
"7.	c #444444",
"8.	c #717171",
"    .                                                 +   @ ",
"  # $ % % % % % % % % % % % % % % % % % % % % % % % $ $   & ",
"  * = - ; ; ; ; ; ; ; ; ; ; ; ; ; ; ; ; ; ; ; ; ; - > ,   ' ",
"  ) ! ~ ! ! ! ! ! ! ! ! ! ! ! ! ! ! ! ! ! ! ! ! ! { ! ]   ' ",
"  ^ ! { ! ! ! ! ! ! ! ! ! ! ! ! ! ! ! ! ! ! ! ! ! { ! /   ' ",
"  ^ ! { ! ! ! ! ! ! ! ! ! ( ( ( ! ! ! ! ! ! ! ! ! { ! /   ' ",
"  ^ ! { ! ! ! ! ! ! ( ( ! ! ! ! ! ( ( ! ! ! ! ! ! { ! /   ' ",
"  ^ ! { ! ! ! ! ! ( ! ! _ : < [ } ( ! ( ! ! ! ! ! { ! /   ' ",
"  ^ ! { ! ! ! ! { ! : | 1 2 3 4 1 5 [ ! { ! ! ! ! { ! /   ' ",
"  ^ ! { ! ! ! ( ! 6 7 : 8 ! ( ! 8 9 0 a ! ( ! ! ! { ! /   ' ",
"  ^ ! { ! ! { ! 6 & b c ! ( { ! ! ! ~ d e ! { ! ! { ! /   ' ",
"  ^ ! { ! { ! f g h + i ! j ! ] k l 0 9 g [ ! { ! { ! /   ' ",
"  ^ ! { ! ( ! m n o   p q ! r s   +   t u m ! ( ! { ! /   ' ",
"  ^ ! { ( ! _ v w x y z A B n C D D +   g E F ! ( { ! /   ' ",
"  ^ ! { { ! 9 G H s I J K g L @ M s N O d 3 : ! { { ! /   ' ",
"  ^ ! { { ! P 4 ! Q R   S T   U b V ! 8 ! W P ! { { ! /   ' ",
"  ^ ! { { ! 9 X ! ! Y Z `  ...+.@.! { ( ! #.9 ! { { ! /   ' ",
"  ^ ! { ( ! _ $.j ! ! ~ ! %.&.*.o ; ! ! = =.} ! ( { ! /   ' ",
"  ^ ! { ( ( ! d P ! = 8 ! |   -.;.>.! ! w ,.! ( ! { ! /   ' ",
"  ^ ! { ! { ! : ^ 8 ! ! '.).-.y !.~.! 8 0 , ! { ! { ! /   ' ",
"  ^ ! { ! ! { ! a {.].! ^.  #   /.! > 1 (.! ( ! ! { ! /   ' ",
"  ^ ! { ! ! ! ( ! e _.:.3 <.l W ].[.g }.! ( ! ! ! { ! /   ' ",
"  ^ ! { ! ! ! ! { ! , |.G G 3 1.4 2.[ ! ( ! ! ! ! { ! /   ' ",
"  ^ ! { ! ! ! ! ! ( ! { 3.f 4.[ _ ( ! ( ! ! ! ! ! { ! /   ' ",
"  ^ ! { ! ! ! ! ! ! ( ( ! ! ! ! ! ( ( ! ! ! ! ! ! { ! /   ' ",
"  ^ ! { ! ! ! ! ! ! ! ! ! ( ( ( ! ! ! ! ! ! ! ! ! { ! /   ' ",
"  ^ ! { ! ! ! ! ! ! ! ! ! ! ! ! ! ! ! ! ! ! ! ! ! { ! /   ' ",
"  ) ! { ! ! ! ! ! ! ! ! ! ! ! ! ! ! ! ! ! ! ! ! ! { ! /   ' ",
"  5.6.S 7.7.7.7.7.7.7.7.7.7.7.7.7.7.7.7.7.7.7.7.7.S 6.l   & ",
"$ J + + + + + + + + + + + + + + + + + + + + + + + + + y   8."};
