/* XPM */
static char * horn_1152_864_xpm[] = {
"30 30 84 1",
" 	c #000000",
".	c #010101",
"+	c #0E0E0E",
"@	c #0F0F0F",
"#	c #101010",
"$	c #111111",
"%	c #0D0D0D",
"&	c #E2E2E2",
"*	c #F3F3F3",
"=	c #EEEEEE",
"-	c #EFEFEF",
";	c #F1F1F1",
">	c #373737",
",	c #030303",
"'	c #FFFFFF",
")	c #FEFEFE",
"!	c #3C3C3C",
"~	c #020202",
"{	c #3B3B3B",
"]	c #F6F6F6",
"^	c #FDFDFD",
"/	c #EBEBEB",
"(	c #343434",
"_	c #B7B7B7",
":	c #FCFCFC",
"<	c #A5A5A5",
"[	c #9F9F9F",
"}	c #FBFBFB",
"|	c #AFAFAF",
"1	c #141414",
"2	c #A4A4A4",
"3	c #BABABA",
"4	c #969696",
"5	c #D4D4D4",
"6	c #C8C8C8",
"7	c #5D5D5D",
"8	c #070707",
"9	c #A2A2A2",
"0	c #686868",
"a	c #080808",
"b	c #ACACAC",
"c	c #E5E5E5",
"d	c #DDDDDD",
"e	c #C0C0C0",
"f	c #8A8A8A",
"g	c #424242",
"h	c #B3B3B3",
"i	c #8C8C8C",
"j	c #4A4A4A",
"k	c #212121",
"l	c #3E3E3E",
"m	c #040404",
"n	c #848484",
"o	c #121212",
"p	c #EAEAEA",
"q	c #A7A7A7",
"r	c #060606",
"s	c #CCCCCC",
"t	c #050505",
"u	c #868686",
"v	c #464646",
"w	c #E4E4E4",
"x	c #4B4B4B",
"y	c #161616",
"z	c #747474",
"A	c #B1B1B1",
"B	c #C3C3C3",
"C	c #808080",
"D	c #222222",
"E	c #C2C2C2",
"F	c #9D9D9D",
"G	c #DCDCDC",
"H	c #888888",
"I	c #D6D6D6",
"J	c #A3A3A3",
"K	c #4E4E4E",
"L	c #E1E1E1",
"M	c #404040",
"N	c #454545",
"O	c #444444",
"P	c #0C0C0C",
"Q	c #0B0B0B",
"R	c #090909",
"S	c #1D1D1D",
"                           . +",
" .@########################$ %",
" %&*=----------------------;>,",
" +;')'''''''''''''''''''')''!~",
" +;')'''''''''''''''''''')''{~",
" +;')'''''''''''''''''''')''{~",
" +;')'''''''''''''''''''')''{~",
" +;')'''''''''''''''''''')''{~",
" +;')''''''''''''''''']^')''{~",
" +;')'''''''''''''')'/(_':''{~",
" +;')''')^)'''''''^:'< ['}''{~",
" +;')'')''')'')^:)''|1 2'}''{~",
" +;')'':345')'''':678. 9'}''{~",
" +;')''0 8ab'cdefg8 ~, 9'}''{~",
" +;'}'h i&jkcl8m   . ~ 9'}''{~",
" +;'}'nop'qrs! ~t,   ~ 9'}''{~",
" +;'}'_ udvkwxyt  .. ~ 9'}''{~",
" +;'))'z r%A'p&BCD ..~ 9'}''{~",
" +;')'''EFG')'')'=Hy m 9'}''{~",
" +;')'')''')'')^^)'I!  J'}''{~",
" +;')'''^:)'''''')^';K ['}''{~",
" +;')''''''''''''''^'Lge':''{~",
" +;')''''''''''''''')):)')''{~",
" +;')'''''''''''''''''''')''{~",
" +;')'''''''''''''''''''')''{~",
" +;')'''''''''''''''''''')''{~",
" +;')'''''''''''''''''''')''{~",
" +;')'''''''''''''''''''')''!~",
" mMNOOOOOOOOOOOOOOOOOOOOOOONPQ",
"#@tmmmmmmmmmmmmmmmmmmmmmmmmtRS"};
