/* XPM */
static char * humidity_and_temperature_1152_864_xpm[] = {
"60 30 205 2",
"  	c #000000",
". 	c #010101",
"+ 	c #0E0E0E",
"@ 	c #0F0F0F",
"# 	c #101010",
"$ 	c #111111",
"% 	c #161616",
"& 	c #151515",
"* 	c #121212",
"= 	c #030303",
"- 	c #0D0D0D",
"; 	c #E2E2E2",
"> 	c #F3F3F3",
", 	c #EEEEEE",
"' 	c #EFEFEF",
") 	c #F5F5F5",
"! 	c #F4F4F4",
"~ 	c #F6F6F6",
"{ 	c #EAEAEA",
"] 	c #CFCFCF",
"^ 	c #D5D5D5",
"/ 	c #F2F2F2",
"( 	c #EDEDED",
"_ 	c #ECECEC",
": 	c #FFFFFF",
"< 	c #666666",
"[ 	c #F1F1F1",
"} 	c #FEFEFE",
"| 	c #A1A1A1",
"1 	c #3C3C3C",
"2 	c #B4B4B4",
"3 	c #C8C8C8",
"4 	c #545454",
"5 	c #535353",
"6 	c #4E4E4E",
"7 	c #6C6C6C",
"8 	c #E8E8E8",
"9 	c #FBFBFB",
"0 	c #6F6F6F",
"a 	c #FDFDFD",
"b 	c #B2B2B2",
"c 	c #0B0B0B",
"d 	c #181818",
"e 	c #C7C7C7",
"f 	c #E6E6E6",
"g 	c #383838",
"h 	c #9E9E9E",
"i 	c #656565",
"j 	c #BCBCBC",
"k 	c #A6A6A6",
"l 	c #A4A4A4",
"m 	c #C5C5C5",
"n 	c #6D6D6D",
"o 	c #D7D7D7",
"p 	c #1E1E1E",
"q 	c #090909",
"r 	c #313131",
"s 	c #E4E4E4",
"t 	c #FCFCFC",
"u 	c #9B9B9B",
"v 	c #5D5D5D",
"w 	c #D2D2D2",
"x 	c #EBEBEB",
"y 	c #464646",
"z 	c #888888",
"A 	c #595959",
"B 	c #575757",
"C 	c #929292",
"D 	c #F9F9F9",
"E 	c #F8F8F8",
"F 	c #484848",
"G 	c #323232",
"H 	c #242424",
"I 	c #606060",
"J 	c #868686",
"K 	c #767676",
"L 	c #646464",
"M 	c #A3A3A3",
"N 	c #4A4A4A",
"O 	c #C9C9C9",
"P 	c #686868",
"Q 	c #050505",
"R 	c #939393",
"S 	c #737373",
"T 	c #494949",
"U 	c #A8A8A8",
"V 	c #808080",
"W 	c #1F1F1F",
"X 	c #828282",
"Y 	c #3A3A3A",
"Z 	c #5E5E5E",
"` 	c #212121",
" .	c #E5E5E5",
"..	c #747474",
"+.	c #616161",
"@.	c #A2A2A2",
"#.	c #A7A7A7",
"$.	c #757575",
"%.	c #070707",
"&.	c #F0F0F0",
"*.	c #D9D9D9",
"=.	c #A5A5A5",
"-.	c #777777",
";.	c #CACACA",
">.	c #8D8D8D",
",.	c #E0E0E0",
"'.	c #D0D0D0",
").	c #1A1A1A",
"!.	c #DEDEDE",
"~.	c #282828",
"{.	c #ADADAD",
"].	c #FAFAFA",
"^.	c #C0C0C0",
"/.	c #171717",
"(.	c #E9E9E9",
"_.	c #858585",
":.	c #525252",
"<.	c #515151",
"[.	c #BFBFBF",
"}.	c #424242",
"|.	c #838383",
"1.	c #6A6A6A",
"2.	c #303030",
"3.	c #B7B7B7",
"4.	c #C3C3C3",
"5.	c #A0A0A0",
"6.	c #C1C1C1",
"7.	c #F7F7F7",
"8.	c #404040",
"9.	c #080808",
"0.	c #3D3D3D",
"a.	c #0C0C0C",
"b.	c #C4C4C4",
"c.	c #8E8E8E",
"d.	c #060606",
"e.	c #BDBDBD",
"f.	c #393939",
"g.	c #020202",
"h.	c #878787",
"i.	c #4B4B4B",
"j.	c #2B2B2B",
"k.	c #B3B3B3",
"l.	c #7B7B7B",
"m.	c #787878",
"n.	c #363636",
"o.	c #7A7A7A",
"p.	c #D1D1D1",
"q.	c #979797",
"r.	c #E1E1E1",
"s.	c #DFDFDF",
"t.	c #BBBBBB",
"u.	c #D3D3D3",
"v.	c #717171",
"w.	c #414141",
"x.	c #7E7E7E",
"y.	c #232323",
"z.	c #919191",
"A.	c #141414",
"B.	c #727272",
"C.	c #DBDBDB",
"D.	c #8A8A8A",
"E.	c #5C5C5C",
"F.	c #474747",
"G.	c #454545",
"H.	c #0A0A0A",
"I.	c #3E3E3E",
"J.	c #1D1D1D",
"K.	c #A9A9A9",
"L.	c #AFAFAF",
"M.	c #131313",
"N.	c #707070",
"O.	c #3F3F3F",
"P.	c #B9B9B9",
"Q.	c #898989",
"R.	c #B8B8B8",
"S.	c #E3E3E3",
"T.	c #2D2D2D",
"U.	c #565656",
"V.	c #636363",
"W.	c #7F7F7F",
"X.	c #333333",
"Y.	c #ABABAB",
"Z.	c #9D9D9D",
"`.	c #5B5B5B",
" +	c #848484",
".+	c #040404",
"++	c #CCCCCC",
"@+	c #9A9A9A",
"#+	c #AAAAAA",
"$+	c #4D4D4D",
"%+	c #8C8C8C",
"&+	c #B1B1B1",
"*+	c #696969",
"=+	c #D8D8D8",
"-+	c #8F8F8F",
";+	c #444444",
">+	c #CBCBCB",
",+	c #C6C6C6",
"'+	c #7C7C7C",
")+	c #191919",
"!+	c #6B6B6B",
"~+	c #D4D4D4",
"{+	c #5A5A5A",
"]+	c #6E6E6E",
"^+	c #434343",
"                                                                                                                  .   + ",
"  . @ # # # # # # # # # # # # # # # # # @ $ @ # # # # # # # # # # # # # # # # @ $ % & # @ # # # # # # # # # # # # * = - ",
"  - ; > , ' ' ' ' ' ' ' ' ' ' ' ' ' ' ' ) , ! ' ' ' ' ' ' ' ' ' ' ' ' ' ' ' , ~ { ] ^ / ! , , ( ( , ' ' ' ' ' ' _ : <   ",
"  + [ : } : : : : : : : : : : : : : } : | 1 2 : } : : : : : : : : : : : : } : 3 4 5 6 7 8 : } : : : : : : : : : 9 : 0   ",
"  + [ : } : : : : : : : : : : : : a : b c   d e : a : : : : : : : : : : } : f g h : / < i } j k l m : : : : : : 9 : n   ",
"  + [ : } : : : : : : : : } : } a : o p   q   r s : a : : : : : : : : : t : u v : w { x y w z A B C : } : : : : 9 : n   ",
"  + [ : } : : : : : : : : D { } : E F   G e H   I : } : : : : : : : : : t : J K : L M : N O : a : : : : : : : : 9 : n   ",
"  + [ : } : : : : : } : a P Q k : J   c j 2 R q   h : a : : : : : : : : t : J S : I | : T e U K M : : : : : : : 9 : n   ",
"  + [ : } : : } } : a : V     & R W   X : Y Z 7   `  .: } : : : : : : : t : J ..: +.@.: T e #.$.l : : : : : : : 9 : n   ",
"  + [ : } : : } } a : k Q %.`   Q   Y &.: *.r =.Y   -.: a : : : : : : : t : J ..: +.@.: T ;.: a : : : : : : : : 9 : n   ",
"  + [ : a : >.6 ,.: '.).  +.!.~.    {.: ].: ^.+.-.  /.(.: } : : : : : : t : J ..: +.@.: N m _.:.<.>.: } : : : : 9 : n   ",
"  + [ : : [.#   I D }.  G s : j q   |.: a : E 1.{.2.  3.: t : : : : : : t : J ..: +.@.: T 3 4.| 5.6.: } : : : : 9 : n   ",
"  + [ : 7.8.    9.0.  a.b.: ].: c.  d.e.: t : a } F   @.: 9 : : : : : : t : J ..: +.@.: T ;.: a : : : : : : : : 9 : n   ",
"  + ' : 5.  d f.  g.  h.: a } : 9 i.  Y ].: a : &.j.  k.: t : : : : : : t : J ..: +.@.: N m l.f.m.: : : : : : : 9 : n   ",
"  - ! 7.n.  o.,.$   n.> : } : a : p.%   q.: ].: R   @ r.: } : : : : : : t : J ..: +.@.: T O  .O s.: : : : : : : 9 : n   ",
"  c } t.  d u.: v.  w.t : } : : t : x.  y._ / z.A.  B.: a : : : : : : : t : J ..: +.@.: T O &.C.*.; : : : : : : 9 : n   ",
"  q : D.  E.: : p.. /.*.: a : : } :  .`   1 G     T , : } : : : : : : : t : D.$.: +.@.: i.3 l.F.G.|.: } : : : : 9 : n   ",
"  H.: C   I._ : U   J.; : } : } : K.L.X   =   M.K ' : } : : : : : : : : t : N.v.: I 5.: O.P.].; s , : : : : : : 9 : n   ",
"  a.].^ +   f.Z *   I : } : : a : Q.v R.  M.k f : : } : : : : : : : : a : [.2.O : i M : c.G._ : } : : : : : : : 9 : n   ",
"  + &.: q.%.  g.  8.S.: } : : a : D.Z t.  W / : a } : : : : : : : : } : : 0.k : b.T.U.f : V.W.: t } : : : : : : 9 : n   ",
"  + [ : : O N.c   4.: t : : } : ].X.q.5.  n.D : } : : : : : : : : : a : 4.I.: ] &     y t 3 i.! : } : : : : : : 9 : n   ",
"  + [ : t : 9 Y   v.: t } : ].t Y.y ; I.  -.: t : : : : : : : : : : t : Z.`.:  +  .+  %.++! w.s.: } : : : : : : 9 : n   ",
"  + [ : } 9 : @+  a.#+: :  .F A _ _ o.  # w : a : : : : : : : : : : t : L.$+: K.  g.  W  .,.G.8 : } : : : : : : 9 : n   ",
"  + [ : } } : 9 i.  M.%+, 7.&+e ,.*+.+  >.: a : : : : : : : : : : : } : { T.=+: K & H U : -+I : } : : : : : : : 9 : n   ",
"  + [ : } : } : _ ;+    ` B B.:.A.    o.: } : : : : : : : : : : : : : t :  +;+E : ! 7.: >+2.,+: a : : : : : : : 9 : n   ",
"  + [ : } : : } : / '+)+        g.T.=.: } : : : : : : : : : : : : : : : : } !+1 M ~+++ +X.M : } : : : : : : : : 9 : n   ",
"  + [ : } : : : } } : r.@.X '+z b / : } : : : : : : : : : : : : : : : : : : a Y.< {+E...>+: } : : : : : : : : : 9 : n   ",
"  + [ : } : : : : : : : : : : : : : : : : : : : : : : : : : : : : : : : : : : : : : : : : : : : : : : : : : : : 9 : ]+  ",
"  .+8.G.;+;+;+;+;+;+;+^+w.w.w.w.w.;+;+;+;+;+;+;+;+;+;+;+;+;+;+;+;+;+;+;+;+;+;+w.}.;+;+w.}.;+;+;+;+;+;+;+;+;+;+;+^+T ).q ",
"# @ Q .+.+.+.+.+.+.+.+.+.+.+.+.+.+.+.+.+.+.+.+.+.+.+.+.+.+.+.+.+.+.+.+.+.+.+.+.+.+.+.+.+.+.+.+.+.+.+.+.+.+.+.+.+.+.+%.p "};
