/* XPM */
static char * light_vertical_1152_864_xpm[] = {
"30 50 35 1",
" 	c #777777",
".	c #757575",
"+	c #767676",
"@	c #787878",
"#	c #737373",
"$	c #7C7C7C",
"%	c #000000",
"&	c #010101",
"*	c #0E0E0E",
"=	c #060606",
"-	c #0C0C0C",
";	c #979797",
">	c #A1A1A1",
",	c #9E9E9E",
"'	c #9F9F9F",
")	c #989898",
"!	c #0A0A0A",
"~	c #0F0F0F",
"{	c #0D0D0D",
"]	c #F1F1F1",
"^	c #FFFFFF",
"/	c #FEFEFE",
"(	c #F3F3F3",
"_	c #090909",
":	c #EFEFEF",
"<	c #FBFBFB",
"[	c #FCFCFC",
"}	c #F0F0F0",
"|	c #FDFDFD",
"1	c #020202",
"2	c #050505",
"3	c #5E5E5E",
"4	c #656565",
"5	c #636363",
"6	c #5F5F5F",
" .+ @@        @@@  @     @@@#$",
"%%%%%%%%%%%%%%%%%%%%%%%%%%%&%*",
"=-;>,'''''''''''''''''''',>)!~",
"%{]^/^^^^^^^^^^^^^^^^^^^^/^(*_",
"%{:^<[[[[[[[[[[[[[[[[[[[[<^}{_",
"%{]^/^^^^^^^^^^^^^^^^^^^^/^({_",
"%{]^/^^^^^^^^^^^^^^^^^^^^/^({_",
"%{]^/^^^^^^^^^^^^^^^^^^^^/^({_",
"%{]^/^^^^^^^^^^^^^^^^^^^^/^({_",
"%{]^/^^^^^^^^^^^^^^^^^^^^/^({_",
"%{]^/^^^^^^^^^^^^^^^^^^^^/^({_",
"%{]^/^^^^^^^^^^^^^^^^^^^^/^({_",
"%{]^/^^^^^^^^^^^^^^^^^^^^/^({_",
"%{]^/^^^^^^^^^^^^^^^^^^^^/^({_",
"%{]^/^^^^^^^^^^^^^^^^^^^^/^({_",
"%{]^/^^^^^^^^^^^^^^^^^^^^/^({_",
"%{]^/^^^^^^^^^^^^^^^^^^^^/^({_",
"%{]^/^^^^^^^^^^^^^^^^^^^^/^({_",
"%{]^/^^^^^^^^^^^^^^^^^^^^/^({_",
"%{]^/^^^^^^^^^^^^^^^^^^^^/^({_",
"%{]^/^^^^^^^^^^^^^^^^^^^^/^({_",
"%{]^/^^^^^^^^^^^^^^^^^^^^/^({_",
"%{]^/^^^^^^^^^^^^^^^^^^^^/^({_",
"%{]^/^^^^^^^^^^^^^^^^^^^^/^({_",
"%{]^/^^^^^^^^^^^^^^^^^^^^/^({_",
"%{]^/^^^^^^^^^^^^^^^^^^^^/^({_",
"%{]^/^^^^^^^^^^^^^^^^^^^^/^({_",
"%{]^/^^^^^^^^^^^^^^^^^^^^/^({_",
"%{]^/^^^^^^^^^^^^^^^^^^^^/^({_",
"%{]^/^^^^^^^^^^^^^^^^^^^^/^({_",
"%{]^/^^^^^^^^^^^^^^^^^^^^/^({_",
"%{]^/^^^^^^^^^^^^^^^^^^^^/^({_",
"%{]^/^^^^^^^^^^^^^^^^^^^^/^({_",
"%{]^/^^^^^^^^^^^^^^^^^^^^/^({_",
"%{]^/^^^^^^^^^^^^^^^^^^^^/^({_",
"%{]^/^^^^^^^^^^^^^^^^^^^^/^({_",
"%{]^/^^^^^^^^^^^^^^^^^^^^/^({_",
"%{]^/^^^^^^^^^^^^^^^^^^^^/^({_",
"%{]^/^^^^^^^^^^^^^^^^^^^^/^({_",
"%{]^/^^^^^^^^^^^^^^^^^^^^/^({_",
"%{]^/^^^^^^^^^^^^^^^^^^^^/^({_",
"%{]^/^^^^^^^^^^^^^^^^^^^^/^({_",
"%{]^/^^^^^^^^^^^^^^^^^^^^/^({_",
"%{]^/^^^^^^^^^^^^^^^^^^^^/^({_",
"%{]^/^^^^^^^^^^^^^^^^^^^^/^({_",
"%{]^/^^^^^^^^^^^^^^^^^^^^/^({_",
"%{}^[||||||||||||||||||||[^]{_",
"%{]^/^^^^^^^^^^^^^^^^^^^^/^({_",
"1234555555555555555555555546&-",
"2%%%%%%%%%%%%%%%%%%%%%%%%%%&%~"};
