/* XPM */
static char * light_1152_864_xpm[] = {
"49 29 27 1",
" 	c #000000",
".	c #131313",
"+	c #101010",
"@	c #111111",
"#	c #060606",
"$	c #E6E6E6",
"%	c #F3F3F3",
"&	c #EEEEEE",
"*	c #EFEFEF",
"=	c #EDEDED",
"-	c #FAFAFA",
";	c #5A5A5A",
">	c #F5F5F5",
",	c #FFFFFF",
"'	c #FEFEFE",
")	c #FDFDFD",
"!	c #616161",
"~	c #606060",
"{	c #434343",
"]	c #454545",
"^	c #444444",
"/	c #474747",
"(	c #191919",
"_	c #010101",
":	c #080808",
"<	c #040404",
"[	c #0B0B0B",
" .++++++++++++++++++++++++++++++++++++++++++++@# ",
" $%&*****************************************=-; ",
" >,',,,,,,,,,,,,,,,,,,,,,,,,,,,,,,,,,,,,,,,,,),! ",
" >,',,,,,,,,,,,,,,,,,,,,,,,,,,,,,,,,,,,,,,,,,),~ ",
" >,',,,,,,,,,,,,,,,,,,,,,,,,,,,,,,,,,,,,,,,,,),~ ",
" >,',,,,,,,,,,,,,,,,,,,,,,,,,,,,,,,,,,,,,,,,,),~ ",
" >,',,,,,,,,,,,,,,,,,,,,,,,,,,,,,,,,,,,,,,,,,),~ ",
" >,',,,,,,,,,,,,,,,,,,,,,,,,,,,,,,,,,,,,,,,,,),~ ",
" >,',,,,,,,,,,,,,,,,,,,,,,,,,,,,,,,,,,,,,,,,,),~ ",
" >,',,,,,,,,,,,,,,,,,,,,,,,,,,,,,,,,,,,,,,,,,),~ ",
" >,',,,,,,,,,,,,,,,,,,,,,,,,,,,,,,,,,,,,,,,,,),~ ",
" >,',,,,,,,,,,,,,,,,,,,,,,,,,,,,,,,,,,,,,,,,,),~ ",
" >,',,,,,,,,,,,,,,,,,,,,,,,,,,,,,,,,,,,,,,,,,),~ ",
" >,',,,,,,,,,,,,,,,,,,,,,,,,,,,,,,,,,,,,,,,,,),~ ",
" >,',,,,,,,,,,,,,,,,,,,,,,,,,,,,,,,,,,,,,,,,,),~ ",
" >,',,,,,,,,,,,,,,,,,,,,,,,,,,,,,,,,,,,,,,,,,),~ ",
" >,',,,,,,,,,,,,,,,,,,,,,,,,,,,,,,,,,,,,,,,,,),~ ",
" >,',,,,,,,,,,,,,,,,,,,,,,,,,,,,,,,,,,,,,,,,,),~ ",
" >,',,,,,,,,,,,,,,,,,,,,,,,,,,,,,,,,,,,,,,,,,),~ ",
" >,',,,,,,,,,,,,,,,,,,,,,,,,,,,,,,,,,,,,,,,,,),~ ",
" >,',,,,,,,,,,,,,,,,,,,,,,,,,,,,,,,,,,,,,,,,,),~ ",
" >,',,,,,,,,,,,,,,,,,,,,,,,,,,,,,,,,,,,,,,,,,),~ ",
" >,',,,,,,,,,,,,,,,,,,,,,,,,,,,,,,,,,,,,,,,,,),~ ",
" >,',,,,,,,,,,,,,,,,,,,,,,,,,,,,,,,,,,,,,,,,,),~ ",
" >,',,,,,,,,,,,,,,,,,,,,,,,,,,,,,,,,,,,,,,,,,),~ ",
" >,',,,,,,,,,,,,,,,,,,,,,,,,,,,,,,,,,,,,,,,,,),~ ",
" >,',,,,,,,,,,,,,,,,,,,,,,,,,,,,,,,,,,,,,,,,,),! ",
" {]^^^^^^^^^^^^^^^^^^^^^^^^^^^^^^^^^^^^^^^^^^{/( ",
"_:<<<<<<<<<<<<<<<<<<<<<<<<<<<<<<<<<<<<<<<<<<<<<[@"};
