/* XPM */
static char * percentage_1152_864_xpm[] = {
"24 24 197 2",
"  	c #FFFFFF",
". 	c #FEFEFE",
"+ 	c #FDFDFE",
"@ 	c #FCFCFD",
"# 	c #FDFDFD",
"$ 	c #FCFCFC",
"% 	c #FFFFFE",
"& 	c #F5F7F8",
"* 	c #F1F3F5",
"= 	c #F8F9F9",
"- 	c #FDFEFE",
"; 	c #FCFDFD",
"> 	c #C7CED8",
", 	c #A7B3C3",
"' 	c #A7B2C2",
") 	c #C6CDD8",
"! 	c #E4E7EC",
"~ 	c #8090A7",
"{ 	c #536988",
"] 	c #4B6283",
"^ 	c #596E8C",
"/ 	c #95A2B6",
"( 	c #F3F4F6",
"_ 	c #F8F9FA",
": 	c #516686",
"< 	c #2C476E",
"[ 	c #254068",
"} 	c #99A5B8",
"| 	c #FAFAFB",
"1 	c #596E8D",
"2 	c #2B456C",
"3 	c #314B71",
"4 	c #2B466D",
"5 	c #334C72",
"6 	c #28436B",
"7 	c #7B8BA4",
"8 	c #FAFBFB",
"9 	c #CED5DD",
"0 	c #395276",
"a 	c #3B5578",
"b 	c #3D5679",
"c 	c #D9DEE5",
"d 	c #FBFCFC",
"e 	c #ABB6C5",
"f 	c #2D486E",
"g 	c #385075",
"h 	c #667A95",
"i 	c #ADB7C6",
"j 	c #4E6485",
"k 	c #385175",
"l 	c #375075",
"m 	c #D1D7DF",
"n 	c #98A5B8",
"o 	c #2F496F",
"p 	c #364F74",
"q 	c #5D728F",
"r 	c #FBFBFC",
"s 	c #8595AB",
"t 	c #304A70",
"u 	c #A6B1C2",
"v 	c #7C8DA4",
"w 	c #324C71",
"x 	c #AAB5C4",
"y 	c #627693",
"z 	c #354F74",
"A 	c #93A1B5",
"B 	c #F9FAFB",
"C 	c #7D8DA5",
"D 	c #A8B3C3",
"E 	c #2E496F",
"F 	c #9FACBD",
"G 	c #D9DEE4",
"H 	c #395277",
"I 	c #365074",
"J 	c #C9CFD9",
"K 	c #7C8DA5",
"L 	c #A9B3C3",
"M 	c #7F8FA6",
"N 	c #9DAABB",
"O 	c #A3AFBF",
"P 	c #2F4A70",
"Q 	c #385176",
"R 	c #516786",
"S 	c #F6F7F9",
"T 	c #FFFEFE",
"U 	c #D7DCE3",
"V 	c #BCC4D0",
"W 	c #BFC7D2",
"X 	c #E2E6EA",
"Y 	c #A0ACBD",
"Z 	c #6D7F9A",
"` 	c #334D72",
" .	c #8797AC",
"..	c #75869F",
"+.	c #3B5478",
"@.	c #375074",
"#.	c #40587A",
"$.	c #94A1B5",
"%.	c #7C8CA4",
"&.	c #A5B0C1",
"*.	c #F8F8FA",
"=.	c #41597C",
"-.	c #C1C9D4",
";.	c #909EB2",
">.	c #254169",
",.	c #3A5377",
"'.	c #3E577A",
").	c #2B466C",
"!.	c #AEB8C7",
"~.	c #304B70",
"{.	c #7F90A7",
"].	c #B1BBC9",
"^.	c #C4CBD6",
"/.	c #4B6282",
"(.	c #DDE1E7",
"_.	c #4A6181",
":.	c #3F577B",
"<.	c #D4D9E1",
"[.	c #B1BAC8",
"}.	c #375175",
"|.	c #324C72",
"1.	c #687B97",
"2.	c #97A4B7",
"3.	c #2E496E",
"4.	c #6E809B",
"5.	c #526887",
"6.	c #C6CDD7",
"7.	c #8A99AE",
"8.	c #2E486F",
"9.	c #DEE2E8",
"0.	c #3C5578",
"a.	c #344E73",
"b.	c #516787",
"c.	c #3E5679",
"d.	c #506686",
"e.	c #F6F7F8",
"f.	c #365075",
"g.	c #2F4A6F",
"h.	c #546A89",
"i.	c #E8EBEF",
"j.	c #4F6585",
"k.	c #B4BDCB",
"l.	c #E0E4E9",
"m.	c #526888",
"n.	c #DBDFE6",
"o.	c #4A6182",
"p.	c #F4F5F7",
"q.	c #ACB6C5",
"r.	c #3E567A",
"s.	c #D8DCE4",
"t.	c #CBD1DB",
"u.	c #334D73",
"v.	c #E9EBEF",
"w.	c #DBE0E6",
"x.	c #DEE1E7",
"y.	c #A8B4C3",
"z.	c #9DA9BB",
"A.	c #B2BBC9",
"B.	c #8D9BB0",
"C.	c #657995",
"D.	c #D3D9E0",
"E.	c #9CA8BB",
"F.	c #D0D6DE",
"G.	c #3C5579",
"H.	c #DCE0E6",
"I.	c #FDFCFC",
"J.	c #F9F9FA",
"K.	c #D2D8E0",
"L.	c #DADEE5",
"M.	c #4C6383",
"N.	c #D5DBE2",
"O.	c #3B5477",
"P.	c #354E73",
"Q.	c #9CA9BB",
"R.	c #F9FAFA",
"S.	c #F5F6F7",
"T.	c #4F6686",
"U.	c #7B8CA4",
"V.	c #697C98",
"W.	c #73859F",
"X.	c #637793",
"Y.	c #8F9DB1",
"Z.	c #A5B0C0",
"`.	c #2A456C",
" +	c #455D7F",
".+	c #425B7D",
"++	c #C7CFD8",
"@+	c #9EABBC",
"#+	c #496081",
"$+	c #3F577A",
"%+	c #526788",
"&+	c #B8C1CE",
"*+	c #F0F2F5",
"=+	c #F1F2F5",
"-+	c #F2F3F6",
";+	c #EFF1F3",
">+	c #D8DCE3",
"  . . . . . . . . . . . . + @ @ + . . . . . . . ",
". # $ $     . $ # # # # #         # # # # # # # ",
"% @ .   & * =   - # # ;   > , ' )   @ # # # # # ",
"#   ! ~ { ] ^ / (   $ . _ : < [ }   | # # # # # ",
"  * 1 2 3 4 5 6 7   8   9 0 a b c   d # # # # # ",
"  e f g h i j k l m     n o p q r . # # # # # # ",
"  s t t u   v 3 w x   | y z o A   B r r ; # # # ",
"  C 3 3 D   ~ 3 E F   G b H I J   +       @ # # ",
"  K 3 3 L   M 3 E N   O P Q R S T U V W X   # # ",
"  K 3 3 L   M 3 E Y   Z ` E  ._ ..+.z @.#.$.T # ",
"  %.3 3 D   M 3 f &.*.=.0 3 -.;.>.,.'.b k ).!.  ",
"  ~ 3 ~.D   {.3 f ].^.E Q /.(._.z :.<.[.}.|.1.% ",
"  2.3.z 4.-.5.}.w 6.7.8.t K 9.0.a.b.  9.c.a.d.e.",
"  U 0 f.0 I ,.g.h.i.j.}.E k.l.0 a.m.# n.b z o.p.",
"+   q.r.~.f 3 o.s.t.u.0 c.v.G +.a.m.. w.b z o.p.",
". $   x.y.z.A.i.  B.o a.C.  D.0.a.m.. w.b z o.p.",
". # $           = ^ l o E.  F.G.a.{ # H.r.z o.p.",
". # # I.8 | J.  K.H 0 ,.K.  L.b z M.; N.O.P.m.S ",
". # # # # # |   Q.o l 1 R.  S.T.p 0 U.V.Q t W.  ",
". # # # # # # . X.3 4 Y.  _   Z.`.g g.w P.` J   ",
". # # # # $   X /. +.+++  8 # . @+#+$+:.%+&+  $ ",
". # # # # # . _ *+=+-+@ # # # #   ;+D.>+S.  $ # ",
". # # # # # # .       # # # # # $ %     . $ # # ",
". # # # # # # # # # # # # # # # # # $ $ # # # # "};
