/* XPM */
static char * sound_intensity_1152_864_xpm[] = {
"30 30 116 2",
"  	c #000000",
". 	c #010101",
"+ 	c #0E0E0E",
"@ 	c #0F0F0F",
"# 	c #101010",
"$ 	c #111111",
"% 	c #0D0D0D",
"& 	c #E2E2E2",
"* 	c #F3F3F3",
"= 	c #EEEEEE",
"- 	c #EFEFEF",
"; 	c #F1F1F1",
"> 	c #373737",
", 	c #030303",
"' 	c #FFFFFF",
") 	c #FEFEFE",
"! 	c #3C3C3C",
"~ 	c #020202",
"{ 	c #3B3B3B",
"] 	c #FDFDFD",
"^ 	c #E5E5E5",
"/ 	c #797979",
"( 	c #D1D1D1",
"_ 	c #B9B9B9",
": 	c #313131",
"< 	c #ADADAD",
"[ 	c #ECECEC",
"} 	c #F2F2F2",
"| 	c #767676",
"1 	c #0B0B0B",
"2 	c #B0B0B0",
"3 	c #808080",
"4 	c #4F4F4F",
"5 	c #F8F8F8",
"6 	c #DEDEDE",
"7 	c #CDCDCD",
"8 	c #F7F7F7",
"9 	c #343434",
"0 	c #AFAFAF",
"a 	c #E3E3E3",
"b 	c #B3B3B3",
"c 	c #DCDCDC",
"d 	c #1D1D1D",
"e 	c #7A7A7A",
"f 	c #F4F4F4",
"g 	c #202020",
"h 	c #BCBCBC",
"i 	c #8D8D8D",
"j 	c #040404",
"k 	c #D9D9D9",
"l 	c #DBDBDB",
"m 	c #B7B7B7",
"n 	c #939393",
"o 	c #B1B1B1",
"p 	c #6A6A6A",
"q 	c #969696",
"r 	c #222222",
"s 	c #FBFBFB",
"t 	c #B8B8B8",
"u 	c #929292",
"v 	c #AEAEAE",
"w 	c #565656",
"x 	c #303030",
"y 	c #2C2C2C",
"z 	c #8B8B8B",
"A 	c #383838",
"B 	c #131313",
"C 	c #CACACA",
"D 	c #5F5F5F",
"E 	c #757575",
"F 	c #B4B4B4",
"G 	c #1F1F1F",
"H 	c #191919",
"I 	c #B2B2B2",
"J 	c #686868",
"K 	c #646464",
"L 	c #BDBDBD",
"M 	c #F5F5F5",
"N 	c #C3C3C3",
"O 	c #545454",
"P 	c #848484",
"Q 	c #AAAAAA",
"R 	c #242424",
"S 	c #FCFCFC",
"T 	c #B6B6B6",
"U 	c #323232",
"V 	c #5D5D5D",
"W 	c #1A1A1A",
"X 	c #C7C7C7",
"Y 	c #717171",
"Z 	c #4A4A4A",
"` 	c #BFBFBF",
" .	c #8F8F8F",
"..	c #A2A2A2",
"+.	c #595959",
"@.	c #414141",
"#.	c #1C1C1C",
"$.	c #9A9A9A",
"%.	c #E6E6E6",
"&.	c #D7D7D7",
"*.	c #464646",
"=.	c #D4D4D4",
"-.	c #353535",
";.	c #858585",
">.	c #F6F6F6",
",.	c #888888",
"'.	c #C9C9C9",
").	c #999999",
"!.	c #919191",
"~.	c #F0F0F0",
"{.	c #404040",
"].	c #454545",
"^.	c #444444",
"/.	c #0C0C0C",
"(.	c #050505",
"_.	c #090909",
"                                                      .   + ",
"  . @ # # # # # # # # # # # # # # # # # # # # # # # # $   % ",
"  % & * = - - - - - - - - - - - - - - - - - - - - - - ; > , ",
"  + ; ' ) ' ' ' ' ' ' ' ' ' ' ' ' ' ' ' ' ' ' ' ' ) ' ' ! ~ ",
"  + ; ' ) ' ' ' ' ' ' ' ' ' ' ' ' ' ' ' ' ' ' ' ' ) ' ' { ~ ",
"  + ; ' ) ' ' ' ' ' ' ' ' ' ) ' ' ' ' ' ' ' ' ' ' ) ' ' { ~ ",
"  + ; ' ) ' ' ' ' ' ' ' ) ' ' ' ' ' ' ' ) ) ' ' ' ) ' ' { ~ ",
"  + ; ' ) ' ' ' ' ' ) ] ' ^ / ( ' ) ' ' ' ' ' ' ' ) ' ' { ~ ",
"  + ; ' ) ' ' ) ' ) ) ' _ :   < ' ] ) ) [ } ' ) ' ) ' ' { ~ ",
"  + ; ' ) ' ' ' ) ' } | 1     2 ' ] ] ' 3 4 5 ' ) ) ' ' { ~ ",
"  + ; ' ) ' 6 7 8 ( 9   ~ ~   0 ' ' a b c d e ' ] ) ' ' { ~ ",
"  + ; ' ' f g   h i   j .     0 ' ' k 1 0 h % l ' ] ' ' { ~ ",
"  + ; ' ' } +   m n   ~ .     o ' p ( q r = 9 / ' s ' ' { ~ ",
"  + ; ' ' } @   t u   ~ .     v ' w x - y 0 z A ' ) ' ' { ~ ",
"  + ; ' ' } +   t u   ~ .     < ' 6 B C D E F G 5 ' ) ' { ~ ",
"  + ; ' ' } +   t u   ~ .     v ' } H I J K L H M ' ) ' { ~ ",
"  + ; ' ' } @   t u   ~ .     < ' N # c O P Q R S ' ) ' { ~ ",
"  + ; ' ' } @   T u   ~ .     0 ' U V a W X Y Z ' ] ' ' { ~ ",
"  + ; ' ' M y 1 `  .  j .     2 ' ..= +.@.- #.$.' s ' ' { ~ ",
"  + ; ' ) ' %.&.5 k *.  . ~   0 ' ' =.-.l ;.R f ' ) ' ' { ~ ",
"  + ; ' ) ' ' ' ) ' >.,.B   . 2 ' S M f 0 + I ' ] ) ' ' { ~ ",
"  + ; ' ) ' ' ) ' ) ) ' '.!   < ' ] ) ' ).!.' ) ' ) ' ' { ~ ",
"  + ; ' ) ' ' ' ' ' ) ] ' ~. .&.' ) ' ' ' ' ' ' ' ) ' ' { ~ ",
"  + ; ' ) ' ' ' ' ' ' ' ) ' ' ' ' ' ' ' ) ) ' ' ' ) ' ' { ~ ",
"  + ; ' ) ' ' ' ' ' ' ' ' ' S ) ' ' ' ' ' ' ' ' ' ) ' ' { ~ ",
"  + ; ' ) ' ' ' ' ' ' ' ' ' ' ' ' ' ' ' ' ' ' ' ' ) ' ' { ~ ",
"  + ; ' ) ' ' ' ' ' ' ' ' ' ' ' ' ' ' ' ' ' ' ' ' ) ' ' { ~ ",
"  + ; ' ) ' ' ' ' ' ' ' ' ' ' ' ' ' ' ' ' ' ' ' ' ) ' ' ! ~ ",
"  j {.].^.^.^.^.^.^.^.^.^.^.^.^.^.^.^.^.^.^.^.^.^.^.^.]./.1 ",
"# @ (.j j j j j j j j j j j j j j j j j j j j j j j j (._.d "};
