/* XPM */
static char * mouse_pointer_1152_864_xpm[] = {
"36 58 9 1",
" 	c #000004",
".	c #F45E62",
"+	c #F45D61",
"@	c #F45E61",
"#	c #F55E62",
"$	c #F55D62",
"%	c #F55D61",
"&	c #F55E61",
"*	c #F45D62",
" .+                                 ",
"@##$                                ",
"@###@                               ",
"@#####                              ",
"@#####%                             ",
"@######+                            ",
"@#######.                           ",
"@########.                          ",
"@#########.                         ",
"@###########%                       ",
"@############@                      ",
"@#############@                     ",
"@###############                    ",
"@###############.                   ",
"@#################                  ",
"@#################&                 ",
"@##################@                ",
"@####################               ",
"@####################%              ",
"@#####################+             ",
"@######################.            ",
"@#######################.           ",
"@########################.          ",
"@##########################%        ",
"@###########################@       ",
"@############################@      ",
"@##############################     ",
"@##############################.    ",
"@################################   ",
"@################################&  ",
"@#################################@ ",
"@##################################@",
"@##################################.",
"@#############################.*@+# ",
"@###################.#$*            ",
"@####################               ",
"@####################@              ",
"@####################+              ",
"@#####################@             ",
"@##########% &########+             ",
"@########.    ##########            ",
"@#######.     %########%            ",
"@######.      +#########            ",
"@#####+        +########*           ",
"@####@         ##########           ",
"@###%           ##########          ",
"+##*            ##########          ",
" #@              ##########         ",
"                 %########.         ",
"                 $#########$        ",
"                  @########+        ",
"                  +#########*       ",
"                   #########.       ",
"                   &#########       ",
"                    ########%       ",
"                    &#####$%        ",
"                    ####*           ",
"                     %#             "};
