/* XPM */
static char * colon_1152_864_xpm[] = {
"12 24 62 1",
" 	c #369EFF",
".	c #2D9AFF",
"+	c #309BFF",
"@	c #2F9BFF",
"#	c #309CFF",
"$	c #2A98FF",
"%	c #48A7FF",
"&	c #47A6FF",
"*	c #3FA2FF",
"=	c #42A3FF",
"-	c #41A3FF",
";	c #42A4FF",
">	c #3CA1FF",
",	c #59AEFF",
"'	c #44A5FF",
")	c #3EA2FF",
"!	c #3FA3FF",
"~	c #39A0FF",
"{	c #56ADFF",
"]	c #3EA1FE",
"^	c #3EA2FE",
"/	c #3EA6FF",
"(	c #3EA5FF",
"_	c #3C8ADC",
":	c #3B87D6",
"<	c #3B86D6",
"[	c #3C8DE0",
"}	c #3E9FFA",
"|	c #365286",
"1	c #364673",
"2	c #364470",
"3	c #375B93",
"4	c #399FFF",
"5	c #365082",
"6	c #36436F",
"7	c #36426C",
"8	c #375990",
"9	c #3EA0FC",
"0	c #3764A0",
"a	c #375A91",
"b	c #37598F",
"c	c #386AAB",
"d	c #3EA1FD",
"e	c #3EA7FF",
"f	c #3975BB",
"g	c #396EB1",
"h	c #396DAF",
"i	c #3A7AC3",
"j	c #364F81",
"k	c #36416D",
"l	c #36406A",
"m	c #37588E",
"n	c #364E80",
"o	c #36406C",
"p	c #363F69",
"q	c #37578E",
"r	c #3EA0FD",
"s	c #3A79C0",
"t	c #3A72B6",
"u	c #3A71B5",
"v	c #3B7DC7",
"w	c #3EA8FF",
" .+@@@@@@#$%",
"&*=------;>,",
"'>*))))))!~{",
"'>*))))))!~{",
"'>*)]]]^)!~{",
"'>*)///()!~{",
"'>!]_:<[)!~{",
"'>!}|123^!4{",
"'>!}5678)!4{",
"'>!90abc)!4{",
"'>*)ddd])!~{",
"'>*))))))!~{",
"'>*)]dd])!~{",
"'>*)/ee/)!~{",
"'>!9fghi)!~{",
"'>!}jklm^!4{",
"'>!}nopq)!4{",
"'>!rstuv)!~{",
"'>*)ewwe)!~{",
"'>*)ddd])!~{",
"'>*))))))!~{",
"'>*))))))!~{",
"&*=------;>,",
" .+@@@@@@#$%"};
