/* XPM */
static char * eight_1152_864_xpm[] = {
"12 24 171 2",
"  	c #369EFF",
". 	c #2D9AFF",
"+ 	c #309BFF",
"@ 	c #2F9EFF",
"# 	c #2FA1FF",
"$ 	c #2F9DFF",
"% 	c #2A98FF",
"& 	c #48A7FF",
"* 	c #47A6FF",
"= 	c #3FA3FF",
"- 	c #42A7FF",
"; 	c #3F93E7",
"> 	c #3D7CC3",
", 	c #3D74B7",
"' 	c #3C74B8",
") 	c #3D7FC8",
"! 	c #4099EF",
"~ 	c #42A8FF",
"{ 	c #3CA0FE",
"] 	c #59AEFF",
"^ 	c #44A5FF",
"/ 	c #3CA3FF",
"( 	c #3A74B9",
"_ 	c #364976",
": 	c #35436E",
"< 	c #35426C",
"[ 	c #354470",
"} 	c #364C7E",
"| 	c #3C82CE",
"1 	c #39A4FF",
"2 	c #56ACFE",
"3 	c #44AAFF",
"4 	c #3982D1",
"5 	c #36436D",
"6 	c #364875",
"7 	c #364A78",
"8 	c #364775",
"9 	c #364876",
"0 	c #364979",
"a 	c #364571",
"b 	c #374A79",
"c 	c #3892EA",
"d 	c #56B0FF",
"e 	c #44A8FF",
"f 	c #3663A1",
"g 	c #36436E",
"h 	c #364774",
"i 	c #365285",
"j 	c #364E80",
"k 	c #364674",
"l 	c #364A79",
"m 	c #37426D",
"n 	c #3574BD",
"o 	c #56B4FF",
"p 	c #44A3FD",
"q 	c #355890",
"r 	c #364672",
"s 	c #364978",
"t 	c #3D96ED",
"u 	c #3B84D1",
"v 	c #37436D",
"w 	c #3468AB",
"x 	c #56B2FF",
"y 	c #44A3FC",
"z 	c #35558C",
"A 	c #365082",
"B 	c #3EA5FE",
"C 	c #3C93E7",
"D 	c #364977",
"E 	c #37446E",
"F 	c #3366A7",
"G 	c #355B94",
"H 	c #3B83D0",
"I 	c #346BAF",
"J 	c #56B3FF",
"K 	c #3872B8",
"L 	c #36416B",
"M 	c #37446F",
"N 	c #3682D2",
"O 	c #44A6FF",
"P 	c #3CA0FB",
"Q 	c #385F99",
"R 	c #364471",
"S 	c #3A6DAE",
"T 	c #39A3FF",
"U 	c #56ADFE",
"V 	c #44A9FF",
"W 	c #3A8BDE",
"X 	c #374E7F",
"Y 	c #36436F",
"Z 	c #364673",
"` 	c #38598F",
" .	c #3897F2",
"..	c #56AFFF",
"+.	c #3762A0",
"@.	c #36416C",
"#.	c #3966A4",
"$.	c #375F99",
"%.	c #37406A",
"&.	c #3576BF",
"*.	c #35568D",
"=.	c #364C7D",
"-.	c #3EA2FA",
";.	c #3C8EDC",
">.	c #3469AC",
",.	c #44A2FB",
"'.	c #355389",
").	c #375488",
"!.	c #3EA2FF",
"~.	c #3D92E8",
"{.	c #3363A4",
"].	c #355489",
"^.	c #375489",
"/.	c #3EA2FE",
"(.	c #3C94EB",
"_.	c #364877",
":.	c #3364A5",
"<.	c #35578F",
"[.	c #3EA4FD",
"}.	c #3C92E2",
"|.	c #364776",
"1.	c #44A7FF",
"2.	c #36629F",
"3.	c #36446F",
"4.	c #396BAD",
"5.	c #38619D",
"6.	c #36426D",
"7.	c #3574BC",
"8.	c #45ABFF",
"9.	c #3978C2",
"0.	c #36426C",
"a.	c #374773",
"b.	c #378BDF",
"c.	c #56B1FF",
"d.	c #3B9CF7",
"e.	c #37568B",
"f.	c #35416B",
"g.	c #354069",
"h.	c #3967A4",
"i.	c #39A2FF",
"j.	c #56ADFF",
"k.	c #44A4FE",
"l.	c #3CA4FF",
"m.	c #3D96EC",
"n.	c #3763A0",
"o.	c #364D7D",
"p.	c #364F80",
"q.	c #396EAF",
"r.	c #3F9FF7",
"s.	c #39A1FF",
"t.	c #3CA1FF",
"u.	c #3FA5FF",
"v.	c #3EA5FF",
"w.	c #3D98F1",
"x.	c #3C8EE1",
"y.	c #3C90E4",
"z.	c #3D9BF5",
"A.	c #3EA6FF",
"B.	c #3FA4FE",
"C.	c #399FFF",
"D.	c #3FA2FE",
"E.	c #3EA1FE",
"F.	c #3EA4FF",
"G.	c #3FA2FF",
"H.	c #39A0FF",
"I.	c #42A3FF",
"J.	c #41A3FF",
"K.	c #41A3FE",
"L.	c #42A4FF",
"M.	c #2F9BFF",
"N.	c #309CFF",
"  . + @ # # # # $ + % & ",
"* = - ; > , ' ) ! ~ { ] ",
"^ / ( _ : < < [ } | 1 2 ",
"3 4 5 6 7 8 9 0 a b c d ",
"e f g 7 h i j k l m n o ",
"p q r 9 s t u a l v w x ",
"y z r h A B C D D E F d ",
"^ G a 9 s t H a l m I J ",
"3 K L 7 h i j h D M N J ",
"O P Q a s h 8 s R S T U ",
"V W X 8 D Y R s Z `  ...",
"e +.@.l Z #.$.a l %.&.o ",
"y *.r 8 =.-.;.Z 7 v >.x ",
",.'.Z Z ).!.~.s D M {.d ",
",.].Z Z ^./.(.l _.E :.d ",
"p <.r h j [.}.|.s v >.x ",
"1.2.3.s Z 4.5.a l 6.7.o ",
"8.9.0.l 9 : [ D D a.b.c.",
"O d.e.f.8 D _ h g.h.i.j.",
"k.l.m.n.o.7 s p.q.r.s.j.",
"^ t.u.v.w.x.y.z.A.B.C.j.",
"^ t.D.E.F.A.v.F./.G.H.j.",
"* G.I.J.J.K.K.J.J.L.t.] ",
"  . + M.M.M.M.M.M.N.% & "};
