/* XPM */
static char * five_1152_864_xpm[] = {
"12 24 165 2",
"  	c #369EFF",
". 	c #2D9DFF",
"+ 	c #30A1FF",
"@ 	c #2FA0FF",
"# 	c #2A9AFF",
"$ 	c #48A7FF",
"% 	c #47A8FF",
"& 	c #3E93E7",
"* 	c #3E80C9",
"= 	c #3E83CE",
"- 	c #3E82CD",
"; 	c #3F82CC",
"> 	c #3B98F2",
", 	c #59B0FF",
"' 	c #45ACFF",
") 	c #3874BB",
"! 	c #363E66",
"~ 	c #364773",
"{ 	c #364571",
"] 	c #37446F",
"^ 	c #3687D9",
"/ 	c #56B2FF",
"( 	c #3876BD",
"_ 	c #36426D",
": 	c #364B79",
"< 	c #364977",
"[ 	c #364876",
"} 	c #374774",
"| 	c #3687DA",
"1 	c #3875BD",
"2 	c #36416B",
"3 	c #364A78",
"4 	c #364B7B",
"5 	c #364B7A",
"6 	c #374A79",
"7 	c #3688DB",
"8 	c #56B1FF",
"9 	c #36426C",
"0 	c #364877",
"a 	c #364C7C",
"b 	c #3D90E5",
"c 	c #3D99F1",
"d 	c #3D97EE",
"e 	c #3D94EC",
"f 	c #3E94EA",
"g 	c #399CFA",
"h 	c #56AEFF",
"i 	c #364E7E",
"j 	c #3EA0F7",
"k 	c #3D97EF",
"l 	c #3C97EF",
"m 	c #3EA4FE",
"n 	c #40A8FF",
"o 	c #39A0FF",
"p 	c #56ADFF",
"q 	c #36416C",
"r 	c #364C7D",
"s 	c #386099",
"t 	c #364A79",
"u 	c #364A7A",
"v 	c #375A91",
"w 	c #3D8FE2",
"x 	c #39A3FF",
"y 	c #56ADFE",
"z 	c #364875",
"A 	c #36436E",
"B 	c #364673",
"C 	c #385487",
"D 	c #389BF8",
"E 	c #364F81",
"F 	c #364D7D",
"G 	c #364774",
"H 	c #367FCD",
"I 	c #56B3FF",
"J 	c #3873B9",
"K 	c #363C64",
"L 	c #364370",
"M 	c #3B81CD",
"N 	c #364471",
"O 	c #37436D",
"P 	c #346BAF",
"Q 	c #44A8FF",
"R 	c #3A8FE3",
"S 	c #3A7AC1",
"T 	c #3A7BC4",
"U 	c #3B82CD",
"V 	c #3EA6FF",
"W 	c #3C91E4",
"X 	c #33609F",
"Y 	c #56AFFF",
"Z 	c #44A4FF",
"` 	c #3DA5FF",
" .	c #3FAAFF",
"..	c #3EA9FF",
"+.	c #3EA7FE",
"@.	c #3EA5FF",
"#.	c #3C91E5",
"$.	c #364978",
"%.	c #374570",
"&.	c #335C98",
"*.	c #44A3FC",
"=.	c #376AAD",
"-.	c #38619D",
";.	c #386AAA",
">.	c #3EA3FF",
",.	c #3C91E6",
"'.	c #335B97",
").	c #44A2FB",
"!.	c #354F82",
"~.	c #3EA2FE",
"{.	c #335E9B",
"].	c #355489",
"^.	c #365082",
"/.	c #3EA5FE",
"(.	c #3C94E7",
"_.	c #37446E",
":.	c #3364A4",
"<.	c #56B0FF",
"[.	c #35568D",
"}.	c #364672",
"|.	c #364775",
"1.	c #3B82CF",
"2.	c #3A75BC",
"3.	c #346FB5",
"4.	c #3765A3",
"5.	c #37456F",
"6.	c #3683D3",
"7.	c #44A9FF",
"8.	c #3A8DE0",
"9.	c #36436F",
"0.	c #35406A",
"a.	c #395D96",
"b.	c #399FFE",
"c.	c #44A4FE",
"d.	c #3CA5FF",
"e.	c #3C8BDB",
"f.	c #375A92",
"g.	c #3863A0",
"h.	c #3E99F0",
"i.	c #39A2FF",
"j.	c #44A5FF",
"k.	c #3CA0FE",
"l.	c #3FA6FF",
"m.	c #3EA2FD",
"n.	c #3D93E9",
"o.	c #3B89DA",
"p.	c #3B8ADB",
"q.	c #3D95ED",
"r.	c #3FA5FF",
"s.	c #399FFF",
"t.	c #3CA1FF",
"u.	c #3FA2FE",
"v.	c #3EA2FF",
"w.	c #47A6FF",
"x.	c #3FA2FF",
"y.	c #42A3FF",
"z.	c #41A3FF",
"A.	c #41A3FE",
"B.	c #42A4FF",
"C.	c #59AEFF",
"D.	c #2D9AFF",
"E.	c #309BFF",
"F.	c #2F9BFF",
"G.	c #309CFF",
"H.	c #2A98FF",
"  . + @ @ @ @ @ @ + # $ ",
"% & * = - - - - - ; > , ",
"' ) ! ~ { { { { { ] ^ / ",
"' ( _ : < [ [ [ [ } | / ",
"' 1 2 3 [ 4 5 4 4 6 7 8 ",
"' 1 9 0 a b c d e f g h ",
"' 1 9 [ i j k l m n o p ",
"' 1 q 0 r s t u v w x y ",
"' 1 2 t z A B [ _ C D h ",
"' ( _ 5 z E F G 3 ] H I ",
"' J K L [ k M N t O P I ",
"Q R S T U V W < < ] X Y ",
"Z `  ...+.@.#.$.0 %.&.h ",
"*.=.-.-.;.>.,.$.0 %.'.p ",
").!.q q E ~.,.< < %.{.h ",
").].G z ^./.(.0 < _.:.<.",
"*.[.}.0 |.1.2.{ t 9 3.I ",
"Q 4._ t |.|.G z $.5.6./ ",
"7.8.< 9.z [ [ [ 0.a.b.p ",
"c.d.e.f.t [ [ 5 g.h.i.y ",
"j.k.l.m.n.o.p.q.m r.s.p ",
"j.t.u.v.@.V V @.~.u.o p ",
"w.x.y.z.z.A.A.z.z.B.t.C.",
"  D.E.F.F.F.F.F.F.G.H.$ "};
