/* XPM */
static char * four_1152_864_xpm[] = {
"12 24 153 2",
"  	c #369EFF",
". 	c #2D9AFF",
"+ 	c #309BFF",
"@ 	c #2F9BFF",
"# 	c #2F9FFF",
"$ 	c #2FA0FF",
"% 	c #30A0FF",
"& 	c #2A99FF",
"* 	c #48A7FF",
"= 	c #47A6FF",
"- 	c #3FA2FF",
"; 	c #42A3FF",
"> 	c #41A4FF",
", 	c #3F8BDA",
"' 	c #3E80CB",
") 	c #3E82CE",
"! 	c #3E82CD",
"~ 	c #3E81CC",
"{ 	c #3F85D0",
"] 	c #3C9FFC",
"^ 	c #59AFFF",
"/ 	c #44A5FF",
"( 	c #3CA1FF",
"_ 	c #3FA3FF",
": 	c #3E9DF9",
"< 	c #364F81",
"[ 	c #36436E",
"} 	c #364672",
"| 	c #364572",
"1 	c #36436F",
"2 	c #374C7A",
"3 	c #389BF8",
"4 	c #56AFFF",
"5 	c #3CA0FE",
"6 	c #3FA7FF",
"7 	c #3B8ADB",
"8 	c #364774",
"9 	c #364977",
"0 	c #364978",
"a 	c #364775",
"b 	c #375080",
"c 	c #3CA0FD",
"d 	c #3FA8FF",
"e 	c #3A75BA",
"f 	c #35426C",
"g 	c #364876",
"h 	c #364877",
"i 	c #364674",
"j 	c #374F7F",
"k 	c #3EA3FF",
"l 	c #375E97",
"m 	c #364C7D",
"n 	c #375489",
"o 	c #44A4FE",
"p 	c #3CA3FF",
"q 	c #3D98F0",
"r 	c #364470",
"s 	c #375990",
"t 	c #37609B",
"u 	c #364471",
"v 	c #44A4FD",
"w 	c #3DA7FF",
"x 	c #3B82CE",
"y 	c #364673",
"z 	c #36426D",
"A 	c #396DAE",
"B 	c #3866A4",
"C 	c #3DA6FF",
"D 	c #396CAE",
"E 	c #35436E",
"F 	c #3A7FCA",
"G 	c #3868A6",
"H 	c #37568C",
"I 	c #364571",
"J 	c #3C93E8",
"K 	c #3865A1",
"L 	c #44A8FF",
"M 	c #3A90E5",
"N 	c #374A78",
"O 	c #365387",
"P 	c #3EA0FD",
"Q 	c #38629E",
"R 	c #36446F",
"S 	c #45ABFF",
"T 	c #3979C3",
"U 	c #3967A4",
"V 	c #3EA7FF",
"W 	c #38619C",
"X 	c #3663A1",
"Y 	c #35436F",
"Z 	c #3A7AC2",
"` 	c #3FABFF",
" .	c #38609B",
"..	c #389CF8",
"+.	c #439EF6",
"@.	c #344E81",
"#.	c #374773",
"$.	c #3C89D9",
"%.	c #385F99",
"&.	c #374E7E",
"*.	c #3898F2",
"=.	c #56AEFF",
"-.	c #4292E3",
";.	c #344776",
">.	c #374875",
",.	c #365083",
"'.	c #375184",
").	c #364B7A",
"!.	c #364875",
"~.	c #374774",
"{.	c #32558D",
"].	c #55AAFA",
"^.	c #4291E1",
"/.	c #344675",
"(.	c #374775",
"_.	c #314A7D",
":.	c #55A9F8",
"<.	c #4292E2",
"[.	c #344A7C",
"}.	c #374B7B",
"|.	c #364B7B",
"1.	c #314F85",
"2.	c #55A9F9",
"3.	c #44A2FB",
"4.	c #3B93EA",
"5.	c #3E94EA",
"6.	c #3D94EA",
"7.	c #3D95EC",
"8.	c #375D97",
"9.	c #374D7D",
"0.	c #388FE6",
"a.	c #3CA4FF",
"b.	c #3FA5FF",
"c.	c #3EA5FF",
"d.	c #3EA6FF",
"e.	c #374E7D",
"f.	c #389DF8",
"g.	c #3EA2FF",
"h.	c #3866A3",
"i.	c #374A79",
"j.	c #385487",
"k.	c #399BF8",
"l.	c #3E9EF9",
"m.	c #3E9CF6",
"n.	c #3F9DF7",
"o.	c #399FFF",
"p.	c #56ADFF",
"q.	c #39A0FF",
"r.	c #41A3FF",
"s.	c #42A4FF",
"t.	c #59AEFF",
"u.	c #309CFF",
"v.	c #2A98FF",
"  . + @ # $ $ $ $ % & * ",
"= - ; > , ' ) ! ~ { ] ^ ",
"/ ( _ : < [ } | 1 2 3 4 ",
"/ 5 6 7 8 9 9 0 a b 3 4 ",
"/ c d e f 0 g h i j 3 4 ",
"/ ( k l 1 m n 8 8 j 3 4 ",
"o p q m r s t u a j 3 4 ",
"v w x y z A B [ a j 3 4 ",
"v C D E u F G [ a j 3 4 ",
"/ ] H I 0 J K 1 a j 3 4 ",
"L M N | O P Q R a j 3 4 ",
"S T R R U V W r a j 3 4 ",
"L X r Y Z `  .r a j ..4 ",
"+.@.#.g $.k %.r a &.*.=.",
"-.;.>.9 ,.'.).!.g ~.{.].",
"^./.(.a | | a g h #._.:.",
"<.[.}.|.|.|.0 g h ~.1.2.",
"3.4.5.6.6.7.8.I !.9.0.=.",
"/ a.b.c.c.d.W [ y e.f.4 ",
"/ ( - g.g.k h.i.&.j.k.=.",
"/ ( - g.g.g.l.m.m.n.o.p.",
"/ ( - g.g.g.k k k _ q.p.",
"= - ; r.r.r.r.r.r.s.( t.",
"  . + @ @ @ @ @ @ u.v.* "};
