/* XPM */
static char * nine_1152_864_xpm[] = {
"12 24 167 2",
"  	c #369EFF",
". 	c #2D9AFF",
"+ 	c #309BFF",
"@ 	c #2F9CFF",
"# 	c #2FA0FF",
"$ 	c #30A2FF",
"% 	c #30A1FF",
"& 	c #2A99FF",
"* 	c #48A7FF",
"= 	c #47A6FF",
"- 	c #3FA2FE",
"; 	c #42A7FF",
"> 	c #409BF1",
", 	c #3D82CC",
"' 	c #3D79BE",
") 	c #3D7ABF",
"! 	c #3E84D1",
"~ 	c #409DF4",
"{ 	c #42A8FF",
"] 	c #3CA0FE",
"^ 	c #59AEFF",
"/ 	c #44A4FE",
"( 	c #3CA5FF",
"_ 	c #3C85D2",
": 	c #364E80",
"< 	c #364471",
"[ 	c #36426D",
"} 	c #35436E",
"| 	c #364571",
"1 	c #365084",
"2 	c #3C88D7",
"3 	c #39A3FF",
"4 	c #56ACFE",
"5 	c #44A8FF",
"6 	c #3A94EA",
"7 	c #364B7A",
"8 	c #364978",
"9 	c #364876",
"0 	c #36446F",
"a 	c #384E7F",
"b 	c #3896F1",
"c 	c #56AFFF",
"d 	c #44ABFF",
"e 	c #3771B6",
"f 	c #36426C",
"g 	c #364A79",
"h 	c #364774",
"i 	c #364F80",
"j 	c #364D7E",
"k 	c #37436D",
"l 	c #3578C3",
"m 	c #56B4FF",
"n 	c #44A5FF",
"o 	c #365D97",
"p 	c #364470",
"q 	c #364977",
"r 	c #364775",
"s 	c #3C8FE2",
"t 	c #3B86D5",
"u 	c #364572",
"v 	c #3467AA",
"w 	c #56B2FF",
"x 	c #44A2FB",
"y 	c #355288",
"z 	c #364673",
"A 	c #364B7B",
"B 	c #3D9EF8",
"C 	c #3C95EA",
"D 	c #364877",
"E 	c #37446F",
"F 	c #33609E",
"G 	c #44A1F9",
"H 	c #354F82",
"I 	c #3D9CF7",
"J 	c #3C93E8",
"K 	c #374570",
"L 	c #335E9B",
"M 	c #56AEFF",
"N 	c #44A1FA",
"O 	c #355084",
"P 	c #364773",
"Q 	c #364A7B",
"R 	c #3D9FF7",
"S 	c #3C96E9",
"T 	c #44A3FC",
"U 	c #35578E",
"V 	c #364672",
"W 	c #3A7AC2",
"X 	c #3974B9",
"Y 	c #374470",
"Z 	c #3764A3",
"` 	c #36436E",
" .	c #364674",
"..	c #364875",
"+.	c #44AAFF",
"@.	c #3A86D5",
"#.	c #3CA3FF",
"$.	c #3B7CC5",
"%.	c #365388",
"&.	c #396FB2",
"*.	c #364C7C",
"=.	c #3DA5FF",
"-.	c #40ACFF",
";.	c #3EA6FF",
">.	c #3D9EF9",
",.	c #3EA1FD",
"'.	c #3C95E8",
").	c #364979",
"!.	c #335F9D",
"~.	c #44A6FF",
"{.	c #3988DA",
"].	c #3B7DC6",
"^.	c #3C85D3",
"/.	c #3C91E5",
"(.	c #3363A2",
"_.	c #56B0FF",
":.	c #3663A1",
"<.	c #363E67",
"[.	c #36416D",
"}.	c #375184",
"|.	c #3C94E8",
"1.	c #346AAD",
"2.	c #3767A7",
"3.	c #3C90E3",
"4.	c #3A7BC4",
"5.	c #3575BE",
"6.	c #45ABFF",
"7.	c #3770B4",
"8.	c #36416B",
"9.	c #364A7A",
"0.	c #374773",
"a.	c #378ADE",
"b.	c #56B1FF",
"c.	c #44A7FF",
"d.	c #3B94EB",
"e.	c #375082",
"f.	c #35426C",
"g.	c #354069",
"h.	c #3966A2",
"i.	c #39A2FF",
"j.	c #56ADFF",
"k.	c #3D93E6",
"l.	c #38629E",
"m.	c #365082",
"n.	c #396EB0",
"o.	c #3E9FF6",
"p.	c #39A1FF",
"q.	c #3FA5FF",
"r.	c #3EA4FF",
"s.	c #3D98F2",
"t.	c #3C90E4",
"u.	c #3C92E7",
"v.	c #3FA4FE",
"w.	c #399FFF",
"x.	c #3CA1FF",
"y.	c #3EA1FE",
"z.	c #3EA5FF",
"A.	c #3EA2FE",
"B.	c #3FA2FF",
"C.	c #39A0FF",
"D.	c #42A3FF",
"E.	c #41A3FF",
"F.	c #41A3FE",
"G.	c #42A4FF",
"H.	c #2F9BFF",
"I.	c #309CFF",
"J.	c #2A98FF",
"  . + @ # $ % # @ + & * ",
"= - ; > , ' ) ! ~ { ] ^ ",
"/ ( _ : < [ } | 1 2 3 4 ",
"5 6 7 < 8 9 9 8 0 a b c ",
"d e f g h i j h g k l m ",
"n o p q r s t u g k v w ",
"x y z r A B C 8 D E F c ",
"G H h r A I J 8 D K L M ",
"N O P r Q R S D q K L M ",
"T U V q z W X | 8 Y L M ",
"5 Z ` g r  . ...8 E L M ",
"+.@.` u ..u V q q Y L M ",
"n #.$.%.7 %.&.*.9 Y L M ",
"n =.-.;.>.,.'.).D Y !.c ",
"~.{.W ].^.;./.8 q E (._.",
"5 :.<.[.}.;.|.8 q k 1.w ",
"5 2.p 8 7 3.4.u g k 5.m ",
"6.7.8.9.r g 9 ..q 0.a.b.",
"c.d.e.f.r h ..h g.h.i.j.",
"/ ( k.l.j g g m.n.o.p.j.",
"n ] q.r.s.t.u.I ;.v.w.j.",
"n x.- y.r.z.z.r.A.B.C.j.",
"= B.D.E.E.F.F.E.E.G.x.^ ",
"  . + H.H.H.H.H.H.I.J.* "};
