/* XPM */
static char * one_1152_864_xpm[] = {
"12 24 78 1",
" 	c #369EFF",
".	c #2D9AFF",
"+	c #309BFF",
"@	c #2F9BFF",
"#	c #2F9CFF",
"$	c #2FA0FF",
"%	c #2F9FFF",
"&	c #309CFF",
"*	c #2A98FF",
"=	c #48A7FF",
"-	c #47A6FF",
";	c #3FA2FF",
">	c #42A3FF",
",	c #41A2FD",
"'	c #41A6FF",
")	c #409BEF",
"!	c #3E81CC",
"~	c #3E81CB",
"{	c #3F8BDA",
"]	c #42A4FF",
"^	c #3CA1FF",
"/	c #59AEFF",
"(	c #44A5FF",
"_	c #3EA3FF",
":	c #3FA7FF",
"<	c #3EA2FD",
"[	c #3863A0",
"}	c #36426D",
"|	c #36426C",
"1	c #385C95",
"2	c #3FA3FF",
"3	c #39A0FF",
"4	c #56ADFF",
"5	c #3CA2FF",
"6	c #3E9EF8",
"7	c #3B86D4",
"8	c #375C94",
"9	c #364471",
"0	c #364A79",
"a	c #364571",
"b	c #385F99",
"c	c #44A4FD",
"d	c #3DA7FF",
"e	c #3B82CD",
"f	c #35436E",
"g	c #364572",
"h	c #364977",
"i	c #364470",
"j	c #44A3FD",
"k	c #3B7FC9",
"l	c #353F68",
"m	c #3DA6FF",
"n	c #3B85D3",
"o	c #38619C",
"p	c #3A7EC9",
"q	c #364C7C",
"r	c #364876",
"s	c #3FA0FD",
"t	c #3EA6FF",
"u	c #3D98EC",
"v	c #364A7A",
"w	c #3FA2FE",
"x	c #3EA4FF",
"y	c #3D94E9",
"z	c #3EA5FF",
"A	c #3D94EA",
"B	c #364774",
"C	c #36436E",
"D	c #385E97",
"E	c #3D95EC",
"F	c #375082",
"G	c #374E7F",
"H	c #374A7A",
"I	c #38639F",
"J	c #3EA2FF",
"K	c #3EA1FE",
"L	c #3E9CF6",
"M	c #41A3FF",
" .+@@#$$%&*=",
"-;>,')!~{]^/",
"(^_:<[}|1234",
"(567890ab234",
"cdefghhib234",
"jdklhhhib234",
"cmnopqrib234",
"(^stuvrib234",
"(^wxy0rib234",
"(^wzA0rib234",
"(^wzA0rib234",
"(^wzA0rib234",
"(^wzA0rib234",
"(^wzA0rib234",
"(^wzA0rib234",
"(^wzA0rib234",
"(^wzA0rib234",
"(^wzA0rib234",
"(^wzAhBCD234",
"(^wzEFGHI234",
"(^;JKLLL6234",
"(^;JJ____234",
"-;>MMMMMM]^/",
" .+@@@@@@&*="};
