/* XPM */
static char * seven_1152_864_xpm[] = {
"12 24 151 2",
"  	c #369EFF",
". 	c #2D9DFF",
"+ 	c #30A1FF",
"@ 	c #2FA0FF",
"# 	c #2A9BFF",
"$ 	c #48A7FF",
"% 	c #47A7FF",
"& 	c #3D8DDF",
"* 	c #3E80CA",
"= 	c #3E82CE",
"- 	c #3E82CD",
"; 	c #3E83CE",
"> 	c #3F80CA",
", 	c #3A8DE1",
"' 	c #59B0FF",
") 	c #44A9FF",
"! 	c #3766A5",
"~ 	c #364068",
"{ 	c #364673",
"] 	c #364571",
"^ 	c #373F67",
"/ 	c #3468AA",
"( 	c #56B2FF",
"_ 	c #44A8FF",
": 	c #3767A8",
"< 	c #36426C",
"[ 	c #364877",
"} 	c #364775",
"| 	c #364876",
"1 	c #364977",
"2 	c #364A79",
"3 	c #37446E",
"4 	c #346AAD",
"5 	c #376AAD",
"6 	c #364D7F",
"7 	c #364C7D",
"8 	c #364D7E",
"9 	c #364B7B",
"0 	c #364A78",
"a 	c #37426C",
"b 	c #346CB1",
"c 	c #56B3FF",
"d 	c #44A5FF",
"e 	c #3B9BF6",
"f 	c #3E98F0",
"g 	c #3D98F1",
"h 	c #3D97F0",
"i 	c #3D9CF7",
"j 	c #3865A2",
"k 	c #36436F",
"l 	c #357BC7",
"m 	c #3CA3FF",
"n 	c #3FA4FF",
"o 	c #3EA4FE",
"p 	c #3EA6FF",
"q 	c #3D9CF4",
"r 	c #364F81",
"s 	c #364774",
"t 	c #364875",
"u 	c #374C7B",
"v 	c #3893EC",
"w 	c #56B0FF",
"x 	c #3CA1FF",
"y 	c #3FA2FF",
"z 	c #3EA1FD",
"A 	c #3FA8FF",
"B 	c #3A7DC8",
"C 	c #35436E",
"D 	c #3966A2",
"E 	c #39A3FF",
"F 	c #56ADFE",
"G 	c #3EA2FF",
"H 	c #3EA3FF",
"I 	c #385E96",
"J 	c #364470",
"K 	c #364978",
"L 	c #3D8BD9",
"M 	c #39A4FF",
"N 	c #56ACFE",
"O 	c #3FA1FE",
"P 	c #3C8FE1",
"Q 	c #364776",
"R 	c #385D96",
"S 	c #39A0FF",
"T 	c #56ADFF",
"U 	c #3FA1FD",
"V 	c #3EA7FF",
"W 	c #3970B3",
"X 	c #35426D",
"Y 	c #364A7A",
"Z 	c #36436E",
"` 	c #3B7EC8",
" .	c #40A9FF",
"..	c #399EFD",
"+.	c #3FA3FF",
"@.	c #3E9FFA",
"#.	c #375387",
"$.	c #3D98F0",
"%.	c #3FA5FF",
"&.	c #399FFE",
"*.	c #3CA0FD",
"=.	c #3FA7FF",
"-.	c #3B87D6",
";.	c #364572",
">.	c #3864A1",
",.	c #3EA5FF",
"'.	c #3FA2FE",
").	c #396CAD",
"!.	c #36426D",
"~.	c #364B7A",
"{.	c #3A7CC5",
"].	c #3CA2FF",
"^.	c #3EA0FB",
"/.	c #375488",
"(.	c #3C92E7",
"_.	c #44A4FE",
":.	c #3DA5FF",
"<.	c #3C8FE2",
"[.	c #44A3FD",
"}.	c #3DA8FF",
"|.	c #3B7DC6",
"1.	c #3864A0",
"2.	c #3EA4FF",
"3.	c #3EA2FE",
"4.	c #44A4FD",
"5.	c #3DA7FF",
"6.	c #3A6FB1",
"7.	c #35416C",
"8.	c #3A71B6",
"9.	c #39629E",
"0.	c #35416B",
"a.	c #3A7AC2",
"b.	c #3FA9FF",
"c.	c #3EA0FD",
"d.	c #3CA1FE",
"e.	c #39609A",
"f.	c #374B7A",
"g.	c #374F81",
"h.	c #3B85D3",
"i.	c #3F9DF7",
"j.	c #3E9CF6",
"k.	c #47A6FF",
"l.	c #42A3FF",
"m.	c #41A3FF",
"n.	c #42A4FF",
"o.	c #59AEFF",
"p.	c #2D9AFF",
"q.	c #309BFF",
"r.	c #2F9BFF",
"s.	c #309CFF",
"t.	c #2A98FF",
"  . + @ @ @ @ @ @ + # $ ",
"% & * = - - - - ; > , ' ",
") ! ~ { ] ] ] ] { ^ / ( ",
"_ : < [ } } | 1 2 3 4 ( ",
"_ 5 } 6 7 8 9 } 0 a b c ",
"d e f g h i j k 2 3 l c ",
"d m n o p q r s t u v w ",
"d x y z A B C 2 C D E F ",
"d x y G H I J K { L M N ",
"d x O p P Q 1 J R n S T ",
"d x U V W X Y Z `  ...T ",
"d x +.@.#.{ } 8 $.%.&.T ",
"d *.=.-.;.0 Z >.,.'.S T ",
"d *.=.).!.~.C {.A U S T ",
"d ].^./.{ | K (.,.'.S T ",
"_.:.<.| | { /.^.H y S T ",
"[.}.|.C 2 k 1.2.3.y S T ",
"4.5.6.7.9 7.8.A z +.S T ",
"d m 9.!.K 0.a.b.c.+.S T ",
"d d.e.f.g.f.h.=.z +.S T ",
"d x i.j.j.j.c.G G +.S T ",
"d x +.H H H H G G +.S T ",
"k.y l.m.m.m.m.m.m.n.x o.",
"  p.q.r.r.r.r.r.r.s.t.$ "};
