/* XPM */
static char * six_1152_864_xpm[] = {
"12 24 165 2",
"  	c #369EFF",
". 	c #2D9AFF",
"+ 	c #309BFF",
"@ 	c #2F9CFF",
"# 	c #2FA0FF",
"$ 	c #30A1FF",
"% 	c #30A2FF",
"& 	c #2F9DFF",
"* 	c #309BFE",
"= 	c #2A98FF",
"- 	c #48A7FF",
"; 	c #47A6FF",
"> 	c #3FA2FF",
", 	c #42A7FF",
"' 	c #409FF7",
") 	c #3E86D3",
"! 	c #3D7ABF",
"~ 	c #3D78BE",
"{ 	c #3D82CC",
"] 	c #409AF0",
"^ 	c #42A8FF",
"/ 	c #3CA1FE",
"( 	c #59AEFF",
"_ 	c #44A4FE",
": 	c #3CA4FF",
"< 	c #3C8EE0",
"[ 	c #375387",
"} 	c #364571",
"| 	c #35436E",
"1 	c #35426D",
"2 	c #364471",
"3 	c #364D7F",
"4 	c #3C80C9",
"5 	c #39A3FF",
"6 	c #56ADFE",
"7 	c #44A6FF",
"8 	c #3B9CF7",
"9 	c #375386",
"0 	c #36436E",
"a 	c #364A78",
"b 	c #364774",
"c 	c #364673",
"d 	c #364977",
"e 	c #364672",
"f 	c #374672",
"g 	c #3689DC",
"h 	c #56B1FF",
"i 	c #45ABFF",
"j 	c #397FCB",
"k 	c #364A79",
"l 	c #375589",
"m 	c #375A92",
"n 	c #36426C",
"o 	c #346CB1",
"p 	c #56B3FF",
"q 	c #44AAFF",
"r 	c #376DB1",
"s 	c #36426D",
"t 	c #364978",
"u 	c #364876",
"v 	c #3C8FE3",
"w 	c #3D9CF6",
"x 	c #364A7A",
"y 	c #364775",
"z 	c #37426D",
"A 	c #3467AA",
"B 	c #44A7FF",
"C 	c #3664A2",
"D 	c #36446F",
"E 	c #364B7A",
"F 	c #3D98F0",
"G 	c #3EA1FE",
"H 	c #365489",
"I 	c #374773",
"J 	c #346BAE",
"K 	c #44A5FF",
"L 	c #365E99",
"M 	c #364570",
"N 	c #3D97EC",
"O 	c #3FA9FF",
"P 	c #3E9DF7",
"Q 	c #3D99F2",
"R 	c #3E96EB",
"S 	c #3898F4",
"T 	c #56AEFF",
"U 	c #355B95",
"V 	c #364C7C",
"W 	c #3C94EA",
"X 	c #3B89D9",
"Y 	c #3B81CD",
"Z 	c #3C91E5",
"` 	c #40A6FF",
" .	c #39A2FF",
"..	c #56ADFF",
"+.	c #355A93",
"@.	c #375B93",
"#.	c #364573",
"$.	c #3968A6",
"%.	c #399EFD",
"&.	c #364470",
"*.	c #364877",
"=.	c #37416B",
"-.	c #357CC9",
";.	c #364E7F",
">.	c #364E7E",
",.	c #37436E",
"'.	c #3362A2",
").	c #56B0FF",
"!.	c #3B8BDD",
"~.	c #3B89DA",
"{.	c #374671",
"].	c #325891",
"^.	c #56ACFE",
"/.	c #3D9AF3",
"(.	c #3D98EF",
"_.	c #32538A",
":.	c #55ABFB",
"<.	c #355B94",
"[.	c #3D97EE",
"}.	c #32538B",
"|.	c #55ABFC",
"1.	c #364979",
"2.	c #3D9BF1",
"3.	c #3C98ED",
"4.	c #374571",
"5.	c #325994",
"6.	c #44A9FF",
"7.	c #3768A8",
"8.	c #364572",
"9.	c #3A77BE",
"0.	c #3A76BC",
"a.	c #37436D",
"b.	c #3466A7",
"c.	c #397CC7",
"d.	c #364875",
"e.	c #364674",
"f.	c #37446E",
"g.	c #367FCE",
"h.	c #3B9DF8",
"i.	c #37588E",
"j.	c #35406B",
"k.	c #35406A",
"l.	c #395D96",
"m.	c #399EFE",
"n.	c #3D97ED",
"o.	c #3865A3",
"p.	c #3968A8",
"q.	c #3E9BF1",
"r.	c #3CA1FF",
"s.	c #3FA5FF",
"t.	c #3EA5FF",
"u.	c #3D9AF4",
"v.	c #3C90E5",
"w.	c #3FA4FE",
"x.	c #399FFF",
"y.	c #3FA2FE",
"z.	c #3EA4FF",
"A.	c #3EA2FE",
"B.	c #39A0FF",
"C.	c #42A3FF",
"D.	c #41A3FF",
"E.	c #41A3FE",
"F.	c #42A4FF",
"G.	c #2F9BFF",
"H.	c #309CFF",
"  . + @ # $ % # & * = - ",
"; > , ' ) ! ~ { ] ^ / ( ",
"_ : < [ } | 1 2 3 4 5 6 ",
"7 8 9 0 a b c d e f g h ",
"i j 0 k c l m b k n o p ",
"q r s t u v w x y z A h ",
"B C D u E F G H k I J h ",
"K L M u x N O P Q R S T ",
"K U } u V W X Y Z `  ...",
"_ +.} u V @.#.} c $.%.T ",
"_ +.} d u &.y t *.=.-.p ",
"_ +.} t b ;.>.b t ,.'.).",
"_ +.} d c !.~.c d {.].^.",
"_ +.} u x /.(.k u f _.:.",
"_ <.} u k F [.k u f }.|.",
"K L M u 1.2.3.t u 4.5.6 ",
"6.7.0 a 8.9.0.8.k a.b.h ",
"i c.s k d.c e.d.k f.g.p ",
"7 h.i.j.y d.d.y k.l.m.T ",
"_ : n.o.;.k k ;.p.q. .6 ",
"K r.s.t.u.Z v.u.t.w.x...",
"K r.y.G z.t.t.z.A.y.B...",
"; > C.D.D.E.E.D.D.F.r.( ",
"  . + G.G.G.G.G.G.H.= - "};
