/* XPM */
static char * slash_1152_864_xpm[] = {
"12 24 133 2",
"  	c #369EFF",
". 	c #2D9AFF",
"+ 	c #309BFF",
"@ 	c #2F9BFF",
"# 	c #2FA0FF",
"$ 	c #2FA1FF",
"% 	c #30A1FF",
"& 	c #2A99FF",
"* 	c #48A7FF",
"= 	c #47A6FF",
"- 	c #3FA2FF",
"; 	c #42A3FF",
"> 	c #41A3FF",
", 	c #41A3FE",
"' 	c #3E84CF",
") 	c #3D7CC3",
"! 	c #3D7DC4",
"~ 	c #3F82CC",
"{ 	c #3C9FFD",
"] 	c #59AFFF",
"^ 	c #44A5FF",
"/ 	c #3CA1FF",
"( 	c #3EA2FE",
"_ 	c #3EA4FF",
": 	c #3D9BF4",
"< 	c #364A79",
"[ 	c #36426E",
"} 	c #363F69",
"| 	c #385B92",
"1 	c #39A0FF",
"2 	c #56ADFF",
"3 	c #3EA1FD",
"4 	c #3EA7FF",
"5 	c #3B89D8",
"6 	c #364774",
"7 	c #364B7A",
"8 	c #35436D",
"9 	c #3A73B7",
"0 	c #39A6FF",
"a 	c #56ACFD",
"b 	c #3FA8FF",
"c 	c #3A76BC",
"d 	c #35426D",
"e 	c #364572",
"f 	c #3C85D1",
"g 	c #3AA5FF",
"h 	c #3863A0",
"i 	c #36436F",
"j 	c #364876",
"k 	c #364B7B",
"l 	c #3E98EF",
"m 	c #39A2FF",
"n 	c #56ADFE",
"o 	c #3EA3FF",
"p 	c #3D9EF9",
"q 	c #365184",
"r 	c #375990",
"s 	c #3FA2FD",
"t 	c #3FA1FE",
"u 	c #3EA6FF",
"v 	c #3C8FE2",
"w 	c #364978",
"x 	c #36426D",
"y 	c #396CAE",
"z 	c #3FA7FF",
"A 	c #399FFD",
"B 	c #3A7BC4",
"C 	c #35436E",
"D 	c #35436F",
"E 	c #3A7FC9",
"F 	c #40A9FF",
"G 	c #399EFD",
"H 	c #3969A9",
"I 	c #364977",
"J 	c #3C92E7",
"K 	c #3FA6FF",
"L 	c #399FFE",
"M 	c #3FA3FF",
"N 	c #3EA0FC",
"O 	c #37568B",
"P 	c #364673",
"Q 	c #375488",
"R 	c #3E9FFB",
"S 	c #399FFF",
"T 	c #3CA0FE",
"U 	c #3FA5FF",
"V 	c #3D95EB",
"W 	c #36436E",
"X 	c #3867A5",
"Y 	c #3EA5FF",
"Z 	c #3FA2FE",
"` 	c #3CA0FD",
" .	c #3B81CD",
"..	c #364470",
"+.	c #3A79C1",
"@.	c #3FA1FD",
"#.	c #396FB2",
"$.	c #35426C",
"%.	c #364775",
"&.	c #3C8CDE",
"*.	c #3EA2FF",
"=.	c #375C94",
"-.	c #364571",
";.	c #365081",
">.	c #3E9DF7",
",.	c #44A4FE",
"'.	c #3CA3FF",
").	c #3E9AF2",
"!.	c #364D7D",
"~.	c #38619C",
"{.	c #44A4FD",
"].	c #3DA6FF",
"^.	c #3C88D6",
"/.	c #3A74B9",
"(.	c #44A3FD",
"_.	c #3DA8FF",
":.	c #3A75BB",
"<.	c #3B87D5",
"[.	c #36436D",
"}.	c #3D99F2",
"|.	c #44A6FF",
"1.	c #3B9CF8",
"2.	c #374D7D",
"3.	c #374B7B",
"4.	c #38609A",
"5.	c #3E9CF6",
"6.	c #3E9CF5",
"7.	c #3E9FFA",
"8.	c #3FA4FF",
"9.	c #42A4FF",
"0.	c #59AEFF",
"a.	c #309CFF",
"b.	c #2A98FF",
"  . + @ @ @ # $ $ % & * ",
"= - ; > > , ' ) ! ~ { ] ",
"^ / - ( _ : < [ } | 1 2 ",
"^ / - 3 4 5 6 7 8 9 0 a ",
"^ / - 3 b c d < e f g a ",
"^ / - ( _ h i j k l m n ",
"^ / - o p q 6 e r s 1 2 ",
"^ / t u v j w x y z A 2 ",
"^ / 3 b B C < D E F G 2 ",
"^ / t u H x I I J K L 2 ",
"^ / M N O P P Q R M S 2 ",
"^ T U V < I W X Y Z 1 2 ",
"^ ` b  ...< d +.b @.1 2 ",
"^ ` b #.$.w %.&.u Z 1 2 ",
"^ / *.=.-.%.;.>.o Z 1 2 ",
",.'.).!.j ..~._ *.- 1 2 ",
"{.].^.P < $./.b 3 M 1 2 ",
"(._.:.$.< P <.z 3 M 1 2 ",
"^ '.~.[.6 k }._ ( M 1 2 ",
"|.1.O 2.3.4.( *.*.M 1 2 ",
"^ T 5.5.6.7.*.*.*.M 1 2 ",
"^ / 8.o o o *.*.*.M 1 2 ",
"= - ; > > > > > > 9./ 0.",
"  . + @ @ @ @ @ @ a.b.* "};
