/* XPM */
static char * three_1152_864_xpm[] = {
"12 24 174 2",
"  	c #369EFF",
". 	c #2D9AFF",
"+ 	c #309AFE",
"@ 	c #2F9CFF",
"# 	c #2F9FFF",
"$ 	c #2FA0FF",
"% 	c #2F9EFF",
"& 	c #2F9BFE",
"* 	c #309BFE",
"= 	c #2A99FF",
"- 	c #48A7FF",
"; 	c #47A6FF",
"> 	c #3FA2FE",
", 	c #42A8FF",
"' 	c #419FF7",
") 	c #3E8CDB",
"! 	c #3E83CD",
"~ 	c #3E83CE",
"{ 	c #3F90E2",
"] 	c #41A4FC",
"^ 	c #43A6FF",
"/ 	c #3CA0FF",
"( 	c #59AEFF",
"_ 	c #44A4FE",
": 	c #3CA5FF",
"< 	c #3C85D2",
"[ 	c #365387",
"} 	c #364775",
"| 	c #364572",
"1 	c #364672",
"2 	c #364876",
"3 	c #375D96",
"4 	c #3E96EA",
"5 	c #39A3FF",
"6 	c #56ACFE",
"7 	c #44A8FF",
"8 	c #3A8EE2",
"9 	c #364571",
"0 	c #364977",
"a 	c #36416C",
"b 	c #38598F",
"c 	c #399EFC",
"d 	c #56AEFF",
"e 	c #44AAFF",
"f 	c #376BAD",
"g 	c #36426D",
"h 	c #364A79",
"i 	c #364978",
"j 	c #364470",
"k 	c #3682D2",
"l 	c #56B2FF",
"m 	c #44A5FF",
"n 	c #355B94",
"o 	c #364570",
"p 	c #364875",
"q 	c #3C8EE0",
"r 	c #3B7BC4",
"s 	c #37426C",
"t 	c #3571B8",
"u 	c #56B4FF",
"v 	c #44A3FC",
"w 	c #35578E",
"x 	c #364774",
"y 	c #365183",
"z 	c #3EA5FF",
"A 	c #3C92E4",
"B 	c #364877",
"C 	c #346CB2",
"D 	c #56B3FF",
"E 	c #3B91E8",
"F 	c #3C8FE2",
"G 	c #3C8EE2",
"H 	c #3C92E6",
"I 	c #3EA8FF",
"J 	c #3A7CC6",
"K 	c #364A7A",
"L 	c #36426C",
"M 	c #3470B7",
"N 	c #3CA4FF",
"O 	c #3FA5FE",
"P 	c #3EA7FF",
"Q 	c #3D9CF3",
"R 	c #3866A5",
"S 	c #37436D",
"T 	c #3683D3",
"U 	c #3CA1FE",
"V 	c #3FA2FD",
"W 	c #3C91E5",
"X 	c #354673",
"Y 	c #3A6FB2",
"Z 	c #39A0FF",
"` 	c #56ADFF",
" .	c #3CA1FF",
"..	c #3C91E6",
"+.	c #364673",
"@.	c #3B72B5",
"#.	c #39A1FF",
"$.	c #56ADFE",
"%.	c #3CA2FF",
"&.	c #3FA3FE",
"*.	c #3D99F1",
"=.	c #3864A1",
"-.	c #37446E",
";.	c #3685D6",
">.	c #3C9FFD",
",.	c #3FA0FC",
"'.	c #3EA0FC",
").	c #3A73B7",
"!.	c #36436E",
"~.	c #364B7A",
"{.	c #3570B7",
"].	c #44A2FA",
"^.	c #355E9A",
"/.	c #385990",
"(.	c #37568D",
"_.	c #396AAA",
":.	c #3B8ADA",
"<.	c #364674",
"[.	c #364A78",
"}.	c #346AAE",
"|.	c #43A1F8",
"1.	c #344B7C",
"2.	c #374470",
"3.	c #36416B",
"4.	c #385B93",
"5.	c #3C8BDD",
"6.	c #3469AC",
"7.	c #44A1F9",
"8.	c #355084",
"9.	c #374775",
"0.	c #375B92",
"a.	c #3EABFF",
"b.	c #3C8CDA",
"c.	c #356DB2",
"d.	c #44A3FD",
"e.	c #3B86D4",
"f.	c #396DAE",
"g.	c #37436E",
"h.	c #3579C3",
"i.	c #44A9FF",
"j.	c #366AAA",
"k.	c #374977",
"l.	c #3790E8",
"m.	c #56B0FF",
"n.	c #3A8FE3",
"o.	c #36446F",
"p.	c #364069",
"q.	c #3A6EB0",
"r.	c #3C89D8",
"s.	c #37598F",
"t.	c #365083",
"u.	c #3A74B9",
"v.	c #3FA2FB",
"w.	c #3CA0FE",
"x.	c #3FA6FF",
"y.	c #3EA1FC",
"z.	c #3D94EA",
"A.	c #3C8DDE",
"B.	c #3C90E4",
"C.	c #3D9DF7",
"D.	c #399FFF",
"E.	c #3EA2FF",
"F.	c #3EA6FF",
"G.	c #3EA4FF",
"H.	c #3EA2FE",
"I.	c #3FA2FF",
"J.	c #42A3FF",
"K.	c #41A3FF",
"L.	c #41A3FE",
"M.	c #42A4FF",
"N.	c #309BFF",
"O.	c #2F9BFF",
"P.	c #309CFF",
"Q.	c #2A98FF",
"  . + @ # $ $ % & * = - ",
"; > , ' ) ! ~ { ] ^ / ( ",
"_ : < [ } | 1 2 3 4 5 6 ",
"7 8 2 9 0 2 2 0 a b c d ",
"e f g h } h 0 } i j k l ",
"m n o 2 p q r j h s t u ",
"v w x 2 y z A B i s C D ",
"_ E F G H I J 9 K L M u ",
"m N O P Q R K } 0 S T l ",
"m U V z W | } 0 X Y Z ` ",
"m  .> z ..+.} 0 X @.#.$.",
"m %.&.z *.=.i p 2 -.;.l ",
"m >.,.'.'.I ).!.~.s {.u ",
"].^./.(._.P :.<.[.S }.l ",
"|.1.2.3.4.z 5.} i S 6.l ",
"7.8.9.| 0.a.b.<.h s c.D ",
"d.w | 2 ~.e.f.j h g.h.u ",
"i.j.g h } +.+.2 2 k.l.m.",
"7 n.k.o.2 2 2 x p.q.5 $.",
"_ : r.s.h 0 i t.u.v.#.` ",
"m w.x.y.z.A.B.C.P &.D.` ",
"m  .> E.z F.z G.H.I.Z ` ",
"; I.J.K.K.L.L.K.K.M. .( ",
"  . N.O.O.O.O.O.O.P.Q.- "};
