/* XPM */
static char * two_1152_864_xpm[] = {
"12 24 173 2",
"  	c #369EFF",
". 	c #2D9AFF",
"+ 	c #309BFE",
"@ 	c #2F9BFF",
"# 	c #2F9EFF",
"$ 	c #2FA1FF",
"% 	c #2F9FFF",
"& 	c #2F9CFF",
"* 	c #2A99FF",
"= 	c #48A7FF",
"- 	c #47A6FF",
"; 	c #3FA2FF",
"> 	c #42A7FF",
", 	c #41A1FA",
"' 	c #3E8BDB",
") 	c #3D7FC9",
"! 	c #3D80C9",
"~ 	c #3F8ADA",
"{ 	c #41A0F9",
"] 	c #43A8FF",
"^ 	c #3CA0FE",
"/ 	c #59AEFF",
"( 	c #44A4FE",
"_ 	c #3CA5FF",
": 	c #3C8FE2",
"< 	c #37568C",
"[ 	c #364674",
"} 	c #364471",
"| 	c #364570",
"1 	c #364774",
"2 	c #37558A",
"3 	c #3D8BDB",
"4 	c #39A4FF",
"5 	c #56ACFE",
"6 	c #44A6FF",
"7 	c #3B9BF6",
"8 	c #375285",
"9 	c #36436E",
"0 	c #364977",
"a 	c #364877",
"b 	c #36446F",
"c 	c #374C7B",
"d 	c #3791E8",
"e 	c #56B0FF",
"f 	c #45ABFF",
"g 	c #397DC8",
"h 	c #36436D",
"i 	c #364A79",
"j 	c #364775",
"k 	c #37426C",
"l 	c #346BAF",
"m 	c #56B2FF",
"n 	c #44AAFF",
"o 	c #376AAC",
"p 	c #364571",
"q 	c #3A7CC6",
"r 	c #3C88D8",
"s 	c #374571",
"t 	c #325993",
"u 	c #55ADFE",
"v 	c #36629E",
"w 	c #364470",
"x 	c #364978",
"y 	c #3C95EA",
"z 	c #3EA2FC",
"A 	c #364C7D",
"B 	c #374672",
"C 	c #32538B",
"D 	c #55ABFC",
"E 	c #44A5FF",
"F 	c #365C96",
"G 	c #36426C",
"H 	c #364672",
"I 	c #3C94EA",
"J 	c #3D9CF6",
"K 	c #364B7B",
"L 	c #364875",
"M 	c #325791",
"N 	c #56ACFD",
"O 	c #3769AA",
"P 	c #37558B",
"Q 	c #3D99F2",
"R 	c #3C8BDB",
"S 	c #364673",
"T 	c #364A78",
"U 	c #37436E",
"V 	c #3364A4",
"W 	c #56B1FF",
"X 	c #3C9FFC",
"Y 	c #3F9FFA",
"Z 	c #3E9FFA",
"` 	c #3E9EF9",
" .	c #3EA7FF",
"..	c #396BAC",
"+.	c #36426E",
"@.	c #364A7A",
"#.	c #357CC9",
"$.	c #56B3FF",
"%.	c #3CA2FF",
"&.	c #3FA3FF",
"*.	c #3EA2FE",
"=.	c #3C92E4",
"-.	c #364876",
";.	c #385284",
">.	c #389AF6",
",.	c #56AFFF",
"'.	c #3CA1FF",
").	c #3EA3FF",
"!.	c #375C96",
"~.	c #3C7EC8",
"{.	c #39A5FF",
"].	c #3FA1FE",
"^.	c #396FB2",
"/.	c #36426D",
"(.	c #3866A3",
"_.	c #3FA5FF",
":.	c #39A0FF",
"<.	c #56ADFF",
"[.	c #3FA8FF",
"}.	c #3B81CC",
"|.	c #354471",
"1.	c #3D9DF5",
"2.	c #3FA4FF",
"3.	c #399FFE",
"4.	c #3CA4FF",
"5.	c #3D94E7",
"6.	c #364B7C",
"7.	c #3C90E3",
"8.	c #3EA5FF",
"9.	c #3FA0FB",
"0.	c #44A4FF",
"a.	c #38629C",
"b.	c #35436E",
"c.	c #364572",
"d.	c #3FAFFF",
"e.	c #3FA7FD",
"f.	c #40AAFF",
"g.	c #3AA5FF",
"h.	c #44A9FF",
"i.	c #3A8BDE",
"j.	c #3976BD",
"k.	c #3A7AC1",
"l.	c #3A79C0",
"m.	c #3B78BD",
"n.	c #3681D0",
"o.	c #44ABFF",
"p.	c #3771B6",
"q.	c #35426D",
"r.	c #35436F",
"s.	c #363E66",
"t.	c #325892",
"u.	c #56AEFF",
"v.	c #44A7FF",
"w.	c #3663A1",
"x.	c #374570",
"y.	c #335C99",
"z.	c #3765A4",
"A.	c #374A79",
"B.	c #374F80",
"C.	c #374E7F",
"D.	c #384B79",
"E.	c #33619F",
"F.	c #3C9DF9",
"G.	c #3F9CF6",
"H.	c #3E9CF6",
"I.	c #399BF8",
"J.	c #39A1FF",
"K.	c #42A3FF",
"L.	c #41A3FF",
"M.	c #42A4FF",
"N.	c #309BFF",
"O.	c #309CFF",
"P.	c #2A98FF",
"  . + @ # $ $ % & + * = ",
"- ; > , ' ) ! ~ { ] ^ / ",
"( _ : < [ } | 1 2 3 4 5 ",
"6 7 8 9 0 a a 0 b c d e ",
"f g h i j a 0 j i k l m ",
"n o h i p q r j 0 s t u ",
"6 v w a x y z A j B C D ",
"E F G H 1 I J K L B M N ",
"6 O 8 2 P Q R S T U V W ",
"E X Y Z `  ...+.@.U #.$.",
"E %.&.*. .=.i -.S ;.>.,.",
"E '.; ).z !.w i 9 ~.{.N ",
"E '.]. .^.h @./.(._.:.<.",
"E ^ [.}.|.x p < 1.2.3.<.",
"( 4.5.6.1 j i 7.8.9.3.<.",
"0.4.a.b.i c.}.d.e.f.g.<.",
"h.i.1 -.j A j.k.l.m.n.<.",
"o.p./.x -.-.9 q.r.s.t.u.",
"v.w.G -.1 1 -.-.0 x.y.u.",
"6 z.A.B.C.C.C.C.B.D.E.u.",
"E F.G.H.H.H.H.H.H.G.I.<.",
"E %.&.).).).).).).2.J.<.",
"- ; K.L.L.L.L.L.L.M.'./ ",
"  . N.@ @ @ @ @ @ O.P.= "};
