/* XPM */
static char * zero_1152_864_xpm[] = {
"12 24 132 2",
"  	c #369EFF",
". 	c #2D9AFF",
"+ 	c #309AFF",
"@ 	c #2F9CFF",
"# 	c #2FA0FF",
"$ 	c #30A2FF",
"% 	c #30A1FF",
"& 	c #309BFF",
"* 	c #2A99FF",
"= 	c #48A7FF",
"- 	c #47A6FF",
"; 	c #3FA2FE",
"> 	c #42A8FF",
", 	c #409BF2",
"' 	c #3D83CE",
") 	c #3D79BE",
"! 	c #3D7ABF",
"~ 	c #3E87D4",
"{ 	c #40A0F8",
"] 	c #3CA0FF",
"^ 	c #59AEFF",
"/ 	c #44A4FE",
"( 	c #3CA5FF",
"_ 	c #3B84D0",
": 	c #364F81",
"< 	c #364571",
"[ 	c #35426D",
"} 	c #36436E",
"| 	c #364672",
"1 	c #37568A",
"2 	c #3D90E2",
"3 	c #39A3FF",
"4 	c #56ACFE",
"5 	c #44A8FF",
"6 	c #3A90E3",
"7 	c #364977",
"8 	c #364572",
"9 	c #364978",
"0 	c #364875",
"a 	c #364876",
"b 	c #364A78",
"c 	c #385386",
"d 	c #3899F5",
"e 	c #56AFFF",
"f 	c #44AAFF",
"g 	c #376BAC",
"h 	c #36426D",
"i 	c #364A79",
"j 	c #364774",
"k 	c #364C7D",
"l 	c #37426D",
"m 	c #3579C5",
"n 	c #56B3FF",
"o 	c #44A4FD",
"p 	c #355991",
"q 	c #3C93E9",
"r 	c #3B81CE",
"s 	c #364470",
"t 	c #37436D",
"u 	c #3466A8",
"v 	c #56B1FF",
"w 	c #44A2FA",
"x 	c #355286",
"y 	c #364673",
"z 	c #364775",
"A 	c #364C7C",
"B 	c #3EA2FD",
"C 	c #3C90E3",
"D 	c #374470",
"E 	c #335F9D",
"F 	c #44A1FA",
"G 	c #355084",
"H 	c #364773",
"I 	c #3EA1FD",
"J 	c #3C8FE3",
"K 	c #374570",
"L 	c #335E9B",
"M 	c #56AEFF",
"N 	c #3EA0FD",
"O 	c #3C8FE2",
"P 	c #3EA3FD",
"Q 	c #3C91E1",
"R 	c #335F9E",
"S 	c #44A5FF",
"T 	c #355A94",
"U 	c #364674",
"V 	c #3A7BC5",
"W 	c #396FB1",
"X 	c #3468AB",
"Y 	c #56B2FF",
"Z 	c #3873B8",
"` 	c #36416B",
" .	c #364A7A",
"..	c #3680CE",
"+.	c #44A7FF",
"@.	c #3B9AF3",
"#.	c #37558A",
"$.	c #35416B",
"%.	c #35406A",
"&.	c #39619C",
"*.	c #399FFF",
"=.	c #56ADFF",
"-.	c #3CA4FF",
";.	c #3E97EE",
">.	c #3966A4",
",.	c #364E7F",
"'.	c #365082",
").	c #396EB1",
"!.	c #3E9EF5",
"~.	c #39A1FF",
"{.	c #56ADFE",
"].	c #3CA1FF",
"^.	c #3FA5FF",
"/.	c #3EA5FF",
"(.	c #3D9AF3",
"_.	c #3C91E4",
":.	c #3C92E7",
"<.	c #3E9CF7",
"[.	c #3EA6FF",
"}.	c #3FA4FE",
"|.	c #3EA1FE",
"1.	c #3EA4FF",
"2.	c #3EA2FE",
"3.	c #3FA2FF",
"4.	c #39A0FF",
"5.	c #42A3FF",
"6.	c #41A3FF",
"7.	c #41A3FE",
"8.	c #42A4FF",
"9.	c #2F9BFF",
"0.	c #309CFF",
"a.	c #2A98FF",
"  . + @ # $ % # @ & * = ",
"- ; > , ' ) ! ~ { > ] ^ ",
"/ ( _ : < [ } | 1 2 3 4 ",
"5 6 7 8 9 0 a b } c d e ",
"f g h i j : k j i l m n ",
"o p < a a q r s i t u v ",
"w x y z A B C a 7 D E e ",
"F G H z A I J a 7 K L M ",
"F G H z A I J a 7 K L M ",
"F G H z A I J a 7 K L M ",
"F G H z A I J a 7 K L M ",
"F G H z A I J a 7 K L M ",
"F G H z A I J a 7 K L M ",
"F G H z A I J a 7 K L M ",
"F G H z A N O a 7 K L M ",
"w x y z A P Q z 7 D R e ",
"S T < 7 U V W s i t X Y ",
"f Z `  .0 y y a i t ..n ",
"+.@.#.$.z a a j %.&.*.=.",
"/ -.;.>.,.i i '.).!.~.{.",
"S ].^./.(._.:.<.[.}.*.=.",
"S ].; |.1././.1.2.3.4.=.",
"- 3.5.6.6.7.7.6.6.8.].^ ",
"  . & 9.9.9.9.9.9.0.a.= "};
