/* XPM */
static char * colon_800_600_xpm[] = {
"8 16 44 1",
" 	c #34A0FF",
".	c #3BA0FF",
"+	c #3AA1FF",
"@	c #3FA4FF",
"#	c #38A1FF",
"$	c #3EA2FF",
"%	c #43A6FF",
"&	c #3EA1FE",
"*	c #3EA1FC",
"=	c #3D9FF6",
"-	c #3EA1FD",
";	c #3EA3FF",
">	c #3C90E3",
",	c #375D97",
"'	c #385E98",
")	c #3C93E8",
"!	c #43A5FF",
"~	c #3C8DDE",
"{	c #364A7A",
"]	c #364C7C",
"^	c #3C90E4",
"/	c #3D9DF8",
"(	c #3E9EF9",
"_	c #3EA5FF",
":	c #3C92E6",
"<	c #3866A5",
"[	c #3867A5",
"}	c #3D95EB",
"|	c #3C8BDC",
"1	c #36426E",
"2	c #364470",
"3	c #3C8FE2",
"4	c #3D99F1",
"5	c #3B84CE",
"6	c #3D9BF3",
"7	c #3EA3FE",
"8	c #3AA2FF",
"9	c #41A3FF",
"0	c #40A3FF",
"a	c #45A7FF",
"b	c #57AAFF",
"c	c #5BAAFF",
"d	c #5BABFF",
"e	c #5EAEFF",
" .....+@",
"#$$$$$$%",
"#$$&&$$%",
"#$*==-$%",
"#;>,')$!",
"#;~{]^$!",
"#$/))($%",
"#$$$$$$%",
"#$;__;$%",
"#;:<[}$%",
"#;|123$!",
"#$4556$%",
"#$$77$$%",
"#$$$$$$%",
"8900000a",
"bcddddde"};
