/* XPM */
static char * eight_800_600_xpm[] = {
"8 16 94 2",
"  	c #399FFF",
". 	c #359EFF",
"+ 	c #349BF8",
"@ 	c #3398F0",
"# 	c #349CF9",
"$ 	c #349DFF",
"% 	c #47A5FF",
"& 	c #43A5FF",
"* 	c #3C8DDC",
"= 	c #386099",
"- 	c #375385",
"; 	c #375386",
"> 	c #39639F",
", 	c #3C93E6",
"' 	c #51AAFF",
") 	c #419FF2",
"! 	c #36558B",
"~ 	c #364976",
"{ 	c #364977",
"] 	c #364978",
"^ 	c #364774",
"/ 	c #375F9A",
"( 	c #4FA9F8",
"_ 	c #4196E8",
": 	c #364A79",
"< 	c #364775",
"[ 	c #3A7CC5",
"} 	c #396EB0",
"| 	c #364876",
"1 	c #364E81",
"2 	c #4FA4EE",
"3 	c #4094E7",
"4 	c #364875",
"5 	c #3C92E3",
"6 	c #3A81CD",
"7 	c #364D7F",
"8 	c #4FA2ED",
"9 	c #419CEE",
"0 	c #364F81",
"a 	c #37629D",
"b 	c #375991",
"c 	c #36568D",
"d 	c #4FA7F3",
"e 	c #42A4FD",
"f 	c #3970B3",
"g 	c #364674",
"h 	c #364673",
"i 	c #397AC2",
"j 	c #50ABFE",
"k 	c #419CEF",
"l 	c #375185",
"m 	c #364877",
"n 	c #385990",
"o 	c #375489",
"p 	c #365992",
"q 	c #4FA8F4",
"r 	c #4094E6",
"s 	c #3C92E4",
"t 	c #3B81CA",
"u 	c #4093E4",
"v 	c #3C93E7",
"w 	c #3B85D4",
"x 	c #364C7E",
"y 	c #4FA1EC",
"z 	c #4195E8",
"A 	c #3B89D6",
"B 	c #3A7BC0",
"C 	c #364776",
"D 	c #429EF0",
"E 	c #365185",
"F 	c #364D7E",
"G 	c #364B7B",
"H 	c #365B94",
"I 	c #4FA8F6",
"J 	c #42A4FE",
"K 	c #397BC3",
"L 	c #364C7C",
"M 	c #3A85D2",
"N 	c #50ABFF",
"O 	c #42A4FF",
"P 	c #3EA2FC",
"Q 	c #3C94E7",
"R 	c #3B83D0",
"S 	c #3B85D3",
"T 	c #3C97EA",
"U 	c #3DA2FD",
"V 	c #50AAFF",
"W 	c #43A4FF",
"X 	c #3FA2FE",
"Y 	c #3FA5FF",
"Z 	c #3FA4FF",
"` 	c #3FA3FE",
" .	c #3EA2FF",
"..	c #359DFF",
"  . + @ @ # $ % ",
"& * = - ; > , ' ",
") ! ~ { ] ^ / ( ",
"_ : < [ } | 1 2 ",
"3 ] 4 5 6 4 7 8 ",
"9 0 ~ a b | c d ",
"e f g g < h i j ",
"k l m n o | p q ",
"r { < s t 4 7 8 ",
"u m m v w < x y ",
"z : < A B C 1 2 ",
"D E ] F G { H I ",
"J K ] 4 4 L M N ",
"O P Q R S T U V ",
"W X X Y Z `  .' ",
"  ..$ $ $ $ $ % "};
