/* XPM */
static char * five_800_600_xpm[] = {
"8 16 94 2",
"  	c #399FFE",
". 	c #349AF5",
"+ 	c #3399F4",
"@ 	c #339AF6",
"# 	c #46A5FE",
"$ 	c #43A1F3",
"% 	c #39609B",
"& 	c #385B91",
"* 	c #385990",
"= 	c #3868A8",
"- 	c #50A9F8",
"; 	c #42A0F1",
"> 	c #365286",
", 	c #364A78",
"' 	c #364876",
") 	c #364775",
"! 	c #365C96",
"~ 	c #4FA8F7",
"{ 	c #364877",
"] 	c #3A77BF",
"^ 	c #3B8AD9",
"/ 	c #3B86D6",
"( 	c #3B8ADC",
"_ 	c #4FA9FC",
": 	c #3B85CF",
"< 	c #3B88D8",
"[ 	c #3C92E4",
"} 	c #3DA2FA",
"| 	c #50AAFF",
"1 	c #365186",
"2 	c #364978",
"3 	c #364A79",
"4 	c #364673",
"5 	c #364875",
"6 	c #3978C0",
"7 	c #50AAFE",
"8 	c #42A0F0",
"9 	c #365084",
"0 	c #37609C",
"a 	c #37588F",
"b 	c #364977",
"c 	c #36558B",
"d 	c #4FA7F2",
"e 	c #42A2F6",
"f 	c #3975BA",
"g 	c #3971B4",
"h 	c #3D99ED",
"i 	c #3A80CA",
"j 	c #364C7D",
"k 	c #4FA1EC",
"l 	c #42A1FA",
"m 	c #3D9AEB",
"n 	c #3EA2FA",
"o 	c #3B83D0",
"p 	c #364A7A",
"q 	c #4F9EEA",
"r 	c #4193E5",
"s 	c #364B7D",
"t 	c #364B7C",
"u 	c #3C93E8",
"v 	c #364A7B",
"w 	c #4093E5",
"x 	c #3B8EDD",
"y 	c #3A7FC9",
"z 	c #354D7E",
"A 	c #4FA2ED",
"B 	c #4199EA",
"C 	c #364B7B",
"D 	c #37568C",
"E 	c #375285",
"F 	c #36578E",
"G 	c #4FA7F4",
"H 	c #42A3FA",
"I 	c #3870B2",
"J 	c #364774",
"K 	c #3A7FCA",
"L 	c #42A4FF",
"M 	c #3EA0F9",
"N 	c #3C90E3",
"O 	c #3A7EC9",
"P 	c #3A7FCB",
"Q 	c #3C93E6",
"R 	c #3DA2FD",
"S 	c #43A4FF",
"T 	c #3FA2FE",
"U 	c #3FA3FF",
"V 	c #3FA5FF",
"W 	c #3FA3FE",
"X 	c #3EA2FE",
"Y 	c #51AAFF",
"Z 	c #399FFF",
"` 	c #359DFF",
" .	c #349DFF",
"..	c #47A5FF",
"  . + + + + @ # ",
"$ % & * * * = - ",
"; > , ' ) ) ! ~ ",
"; > { ] ^ / ( _ ",
"; > { : < [ } | ",
"; 1 2 3 4 5 6 7 ",
"8 9 ) 0 a b c d ",
"e f g h i 5 j k ",
"l m m n o ) p q ",
"r s t u o 5 v q ",
"w 2 ' x y 5 z A ",
"B C b D E b F G ",
"H I ' J J 2 K | ",
"L M N O P Q R | ",
"S T U V V W X Y ",
"Z `  . . . . ..."};
