/* XPM */
static char * four_800_600_xpm[] = {
"8 16 82 1",
" 	c #399FFF",
".	c #359DFF",
"+	c #349DFD",
"@	c #3499F4",
"#	c #3399F4",
"$	c #339AF7",
"%	c #47A6FF",
"&	c #43A4FF",
"*	c #3FA3FF",
"=	c #3D92E7",
"-	c #385A90",
";	c #38588F",
">	c #3972B7",
",	c #50ABFE",
"'	c #42A4FF",
")	c #3EA5FF",
"!	c #3A79C0",
"~	c #364774",
"{	c #364977",
"]	c #364776",
"^	c #376AAA",
"/	c #4FABFE",
"(	c #3EA3FF",
"_	c #375D95",
":	c #364978",
"<	c #374F81",
"[	c #3769AA",
"}	c #42A4FE",
"|	c #3C98EE",
"1	c #364877",
"2	c #37588F",
"3	c #375B93",
"4	c #364673",
"5	c #42A5FE",
"6	c #3A82CD",
"7	c #35436E",
"8	c #3970B2",
"9	c #376099",
"0	c #364572",
"a	c #386CAD",
"b	c #3B88D7",
"c	c #42A1F4",
"d	c #374C7C",
"e	c #3D98EB",
"f	c #375B92",
"g	c #4097E9",
"h	c #364B7B",
"i	c #37578E",
"j	c #3EA0F4",
"k	c #385A91",
"l	c #3769A9",
"m	c #3F86D2",
"n	c #365083",
"o	c #396BAC",
"p	c #364E7F",
"q	c #364775",
"r	c #365287",
"s	c #4E9EEB",
"t	c #3F83CC",
"u	c #364573",
"v	c #364674",
"w	c #354674",
"x	c #4D97E1",
"y	c #4198ED",
"z	c #3B85D4",
"A	c #3B86D4",
"B	c #3B86D6",
"C	c #375489",
"D	c #365D97",
"E	c #4FA3F4",
"F	c #42A5FF",
"G	c #3EA4FF",
"H	c #376AA9",
"I	c #3EA2FF",
"J	c #3C91E4",
"K	c #3C8DDF",
"L	c #3C93E9",
"M	c #50AAFF",
"N	c #3FA2FF",
"O	c #51AAFF",
"P	c #349DFF",
"Q	c #47A5FF",
" .+@##$%",
"&*=--;>,",
"')!~{]^/",
"'(_:<~[/",
"}|1234[/",
"567890[/",
"}a0b_4[/",
"c2def4[/",
"ghijk4l/",
"m~nopqrs",
"tuv0]1wx",
"yzABC~DE",
"FGG)f0H,",
"'IIIJKLM",
"&NNN**IO",
" .PPPPPQ"};
