/* XPM */
static char * nine_800_600_xpm[] = {
"8 16 98 2",
"  	c #399FFF",
". 	c #359EFF",
"+ 	c #349CFA",
"@ 	c #3499F1",
"# 	c #3499F2",
"$ 	c #349CFB",
"% 	c #349EFF",
"& 	c #47A5FF",
"* 	c #43A5FF",
"= 	c #3D95E8",
"- 	c #3965A1",
"; 	c #385589",
"> 	c #38568A",
", 	c #3967A5",
"' 	c #3C96EA",
") 	c #51AAFF",
"! 	c #41A2F8",
"~ 	c #37609A",
"{ 	c #364674",
"] 	c #364977",
"^ 	c #364877",
"/ 	c #364673",
"( 	c #3762A0",
"_ 	c #4FA9FA",
": 	c #4199EB",
"< 	c #364B7C",
"[ 	c #364875",
"} 	c #3976BC",
"| 	c #396FB3",
"1 	c #364876",
"2 	c #364E81",
"3 	c #4FA4EE",
"4 	c #4092E4",
"5 	c #364774",
"6 	c #3B8EE0",
"7 	c #3B86D3",
"8 	c #364775",
"9 	c #364B7B",
"0 	c #4F9FEB",
"a 	c #4091E3",
"b 	c #3B8EDF",
"c 	c #4F9EEA",
"d 	c #4196E7",
"e 	c #364A79",
"f 	c #3867A4",
"g 	c #38629E",
"h 	c #364A7B",
"i 	c #41A0F3",
"j 	c #37568C",
"k 	c #364572",
"l 	c #42A5FF",
"m 	c #3C92E2",
"n 	c #386FB0",
"o 	c #386DAE",
"p 	c #3970B3",
"q 	c #4F9EEB",
"r 	c #42A1F9",
"s 	c #3B8BD9",
"t 	c #3C8AD9",
"u 	c #3E9FF7",
"v 	c #3B84D1",
"w 	c #364C7D",
"x 	c #4FA0EB",
"y 	c #419AEC",
"z 	c #364A7A",
"A 	c #364573",
"B 	c #3C91E2",
"C 	c #3A81CB",
"D 	c #364F82",
"E 	c #419EEE",
"F 	c #364F81",
"G 	c #364978",
"H 	c #375C94",
"I 	c #375489",
"J 	c #364976",
"K 	c #365B94",
"L 	c #4FA8F6",
"M 	c #42A3FC",
"N 	c #3976BB",
"O 	c #364A78",
"P 	c #364D7D",
"Q 	c #3A84D1",
"R 	c #50ABFF",
"S 	c #42A4FF",
"T 	c #3EA1FB",
"U 	c #3C93E7",
"V 	c #3B84D2",
"W 	c #3B86D5",
"X 	c #3C97EB",
"Y 	c #3DA2FD",
"Z 	c #50AAFF",
"` 	c #43A4FF",
" .	c #3FA2FE",
"..	c #3FA4FF",
"+.	c #3FA3FE",
"@.	c #3EA2FF",
"#.	c #359DFF",
"$.	c #349DFF",
"  . + @ # $ % & ",
"* = - ; > , ' ) ",
"! ~ { ] ^ / ( _ ",
": < [ } | 1 2 3 ",
"4 1 5 6 7 8 9 0 ",
"a [ { b 7 8 9 c ",
"d e 1 f g 1 h c ",
"i j 5 k / ] h c ",
"l m n o p ^ h q ",
"r s t u v [ w x ",
"y z A B C [ D 3 ",
"E F G H I J K L ",
"M N O 5 5 P Q R ",
"S T U V W X Y Z ",
"`  . .....+.@.) ",
"  #.$.$.$.$.$.& "};
