/* XPM */
static char * one_800_600_xpm[] = {
"8 16 51 1",
" 	c #34A0FF",
".	c #3BA0FF",
"+	c #3BA1FE",
"@	c #3A9DF6",
"#	c #3889DB",
"$	c #398EE1",
"%	c #3AA0FE",
"&	c #3FA4FF",
"*	c #38A2FF",
"=	c #3EA2FE",
"-	c #3E9DF2",
";	c #396DAE",
">	c #36446F",
",	c #375489",
"'	c #3EA1FD",
")	c #43A6FF",
"!	c #38A3FF",
"~	c #3C8EDF",
"{	c #365589",
"]	c #364876",
"^	c #364875",
"/	c #37568C",
"(	c #3B87D3",
"_	c #364E7F",
":	c #364775",
"<	c #3E9BF5",
"[	c #3D97EA",
"}	c #38629D",
"|	c #364774",
"1	c #38A1FF",
"2	c #3EA0F9",
"3	c #38629E",
"4	c #3EA1FA",
"5	c #3EA0FA",
"6	c #364674",
"7	c #37568B",
"8	c #3865A2",
"9	c #374B7B",
"0	c #385990",
"a	c #3EA2FF",
"b	c #3E9FFA",
"c	c #3E9EF8",
"d	c #3E9FF9",
"e	c #3AA2FF",
"f	c #41A3FF",
"g	c #40A3FF",
"h	c #45A7FF",
"i	c #57AAFF",
"j	c #5BAAFF",
"k	c #5BABFF",
"l	c #5EAEFF",
" .+@#$%&",
"*=-;>,')",
"!~{]^/')",
"!(__:/')",
"*<[}|/')",
"1=23|/')",
"1=43|/')",
"1=53|/')",
"1=53|/')",
"1=53|/')",
"1=53|/')",
"1=5367')",
"1=4890')",
"1aabcda)",
"efgggggh",
"ijkkkkkl"};
