/* XPM */
static char * seven_800_600_xpm[] = {
"8 16 82 1",
" 	c #339BF6",
".	c #388ADC",
"+	c #388ADB",
"@	c #3FA0F7",
"#	c #3590E1",
"$	c #364876",
"%	c #364673",
"&	c #364572",
"*	c #364672",
"=	c #364774",
"-	c #364977",
";	c #4198E2",
">	c #3591E2",
",	c #364D7E",
"'	c #364B7C",
")	c #364A79",
"!	c #364978",
"~	c #364B7B",
"{	c #4199E4",
"]	c #37A0FC",
"^	c #3E9CF5",
"/	c #3D9BF4",
"(	c #3D9CF6",
"_	c #375B92",
":	c #364775",
"<	c #375388",
"[	c #429FEF",
"}	c #38A2FF",
"|	c #3EA2FF",
"1	c #3EA4FE",
"2	c #3C8FE0",
"3	c #354775",
"4	c #354672",
"5	c #386DAE",
"6	c #43A7FE",
"7	c #38A1FF",
"8	c #3EA2FE",
"9	c #396FB0",
"0	c #3C94E7",
"a	c #43A7FF",
"b	c #3EA1FE",
"c	c #3D9AEE",
"d	c #365387",
"e	c #3969A8",
"f	c #3EA5FD",
"g	c #43A5FE",
"h	c #3EA3FF",
"i	c #3B87D6",
"j	c #364877",
"k	c #3B89D9",
"l	c #3EA3FE",
"m	c #43A5FF",
"n	c #38A1FE",
"o	c #3866A4",
"p	c #365285",
"q	c #3D9AED",
"r	c #43A6FF",
"s	c #3D9CF4",
"t	c #364D7D",
"u	c #3864A1",
"v	c #3EA1FA",
"w	c #38A4FF",
"x	c #3B88D5",
"y	c #354571",
"z	c #3975B9",
"A	c #3A77BC",
"B	c #354470",
"C	c #3B83CD",
"D	c #38A3FF",
"E	c #396EB0",
"F	c #374A79",
"G	c #3C8CDB",
"H	c #3E9FFA",
"I	c #3E9EF8",
"J	c #3AA2FF",
"K	c #41A3FF",
"L	c #40A3FF",
"M	c #45A7FF",
"N	c #57AAFF",
"O	c #5BAAFF",
"P	c #5BABFF",
"Q	c #5EAEFF",
" ..++..@",
"#$%&*=-;",
">,'')!~{",
"]^/(_:<[",
"}|123456",
"7|89%)0a",
"7bcd$efg",
"7hi$jklm",
"nfo$pqbr",
"}st:uv8r",
"wxy&zh|r",
"wABBC1|r",
"DEFFGl|r",
"7HIIb||r",
"JKLLLLLM",
"NOPPPPPQ"};
