/* XPM */
static char * six_800_600_xpm[] = {
"8 16 86 1",
" 	c #34A0FF",
".	c #3BA2FF",
"+	c #3998F1",
"@	c #3887D5",
"#	c #3785D4",
"$	c #3995EC",
"%	c #3AA3FE",
"&	c #3FA4FF",
"*	c #38A2FF",
"=	c #3B87D5",
"-	c #364C7C",
";	c #354470",
">	c #35436F",
",	c #364978",
"'	c #3A7BC3",
")	c #43A6FC",
"!	c #379CF1",
"~	c #37568B",
"{	c #364875",
"]	c #374F80",
"^	c #375286",
"/	c #364876",
"(	c #364D7E",
"_	c #419BE8",
":	c #3592E3",
"<	c #364B7B",
"[	c #364775",
"}	c #3B84D3",
"|	c #3C8FE2",
"1	c #364673",
"2	c #364979",
"3	c #4197E2",
"4	c #358CDE",
"5	c #364A78",
"6	c #364774",
"7	c #3B8AD9",
"8	c #3EA2F8",
"9	c #3B8BDC",
"0	c #3B88D7",
"a	c #42A0F5",
"b	c #358ADC",
"c	c #364977",
"d	c #3A7DC7",
"e	c #3A7AC2",
"f	c #3A7EC8",
"g	c #3D9AEF",
"h	c #43A7FF",
"i	c #3589DB",
"j	c #364674",
"k	c #375991",
"l	c #42A0F1",
"m	c #358ADB",
"n	c #375D95",
"o	c #375C94",
"p	c #4193DE",
"q	c #3B89D9",
"r	c #3B87D6",
"s	c #408DD7",
"t	c #408ED8",
"u	c #3590E0",
"v	c #364A79",
"w	c #3A77BC",
"x	c #3975BA",
"y	c #4195E0",
"z	c #379BF0",
"A	c #37588F",
"B	c #42A1F3",
"C	c #3B8EDF",
"D	c #37578E",
"E	c #3C91E3",
"F	c #38A1FF",
"G	c #3EA4FF",
"H	c #3EA2FC",
"I	c #3D98EF",
"J	c #3D97EF",
"K	c #3EA3FE",
"L	c #43A5FF",
"M	c #3AA2FF",
"N	c #41A3FF",
"O	c #40A3FF",
"P	c #40A4FF",
"Q	c #45A7FF",
"R	c #57AAFF",
"S	c #5BAAFF",
"T	c #5BABFF",
"U	c #5EAEFF",
" .+@#$%&",
"*=-;>,')",
"!~{]^/(_",
":<[}|123",
"4567890a",
"bc/defgh",
"icc51jkl",
"mc/no/,p",
"mc6qr6/s",
"bc6976/t",
"uv6wx[,y",
"z~[66[AB",
"*CDvvkEh",
"FGHIJHKL",
"MNOPPOOQ",
"RSTTTTTU"};
