/* XPM */
static char * slash_800_600_xpm[] = {
"8 16 81 1",
" 	c #34A0FF",
".	c #3BA0FF",
"+	c #3BA0FE",
"@	c #388ADB",
"#	c #3787D5",
"$	c #388DE1",
"%	c #3FA4FF",
"&	c #38A1FF",
"*	c #3EA2FF",
"=	c #3EA3FE",
"-	c #3D9AF1",
";	c #364977",
">	c #36416C",
",	c #386FB1",
"'	c #43A7FF",
")	c #3EA4FE",
"!	c #3B87D4",
"~	c #354672",
"{	c #364672",
"]	c #3B87D3",
"^	c #43A8FF",
"/	c #3EA3FF",
"(	c #3974B8",
"_	c #364572",
":	c #364B7B",
"<	c #3D9AF3",
"[	c #3EA1FE",
"}	c #3EA0F9",
"|	c #38629D",
"1	c #364774",
"2	c #385D96",
"3	c #3EA3FC",
"4	c #43A5FE",
"5	c #3D9AED",
"6	c #365286",
"7	c #364875",
"8	c #3EA6FE",
"9	c #3C90E2",
"0	c #364A79",
"a	c #364876",
"b	c #3B89DA",
"c	c #43A5FF",
"d	c #38A1FE",
"e	c #3A7EC9",
"f	c #364E7F",
"g	c #3D97E9",
"h	c #3EA2FE",
"i	c #43A6FF",
"j	c #3EA5FD",
"k	c #3866A4",
"l	c #364775",
"m	c #375B93",
"n	c #3D9EF4",
"o	c #3D9FFA",
"p	c #365284",
"q	c #364673",
"r	c #386CAD",
"s	c #38A3FF",
"t	c #354570",
"u	c #3B80C8",
"v	c #3EA4FF",
"w	c #38A4FF",
"x	c #3A7BC2",
"y	c #35446F",
"z	c #3C93E5",
"A	c #37A2FE",
"B	c #3868A7",
"C	c #374A78",
"D	c #37588E",
"E	c #3EA0FC",
"F	c #3E9EF9",
"G	c #3E9EF8",
"H	c #3EA0FA",
"I	c #3AA2FF",
"J	c #41A3FF",
"K	c #40A3FF",
"L	c #45A7FF",
"M	c #57AAFF",
"N	c #5BAAFF",
"O	c #5BABFF",
"P	c #5EAEFF",
" ..+@#$%",
"&*=-;>,'",
"&*)!~{]^",
"&*/(_:<'",
"&[}|1234",
"&[567(84",
"&*90ab/c",
"d)eafghi",
"djklmnhi",
"&opqrhhi",
"s9ltuv*i",
"wxyaz=*i",
"ABCDE**i",
"&FGH***i",
"IJKKKKKL",
"MNOOOOOP"};
