/* XPM */
static char * three_800_600_xpm[] = {
"8 16 97 2",
"  	c #399FFF",
". 	c #359EFF",
"+ 	c #349DFC",
"@ 	c #339AF5",
"# 	c #349AF5",
"$ 	c #349DFD",
"% 	c #349DFF",
"& 	c #47A5FF",
"* 	c #43A5FF",
"= 	c #3D95E8",
"- 	c #396AA8",
"; 	c #385B92",
"> 	c #385C93",
", 	c #3A70B1",
"' 	c #3E9CF4",
") 	c #51AAFF",
"! 	c #41A1F6",
"~ 	c #375C95",
"{ 	c #364774",
"] 	c #364875",
"^ 	c #364876",
"/ 	c #364571",
"( 	c #376BAC",
"_ 	c #50AAFD",
": 	c #4198EA",
"< 	c #364B7A",
"[ 	c #364775",
"} 	c #3975BA",
"| 	c #3967A6",
"1 	c #365287",
"2 	c #4FA6F1",
"3 	c #4197EB",
"4 	c #37629E",
"5 	c #38619C",
"6 	c #3C99EC",
"7 	c #3A7FC9",
"8 	c #364E82",
"9 	c #4FA5EF",
"0 	c #42A3FE",
"a 	c #3EA0F8",
"b 	c #3DA0F7",
"c 	c #3A84CF",
"d 	c #37558B",
"e 	c #36568D",
"f 	c #4FA7F4",
"g 	c #42A4FF",
"h 	c #3EA2FE",
"i 	c #3EA1F9",
"j 	c #38609B",
"k 	c #354774",
"l 	c #3A7FCB",
"m 	c #50AAFF",
"n 	c #3EA2FB",
"o 	c #3970B3",
"p 	c #364877",
"q 	c #3766A4",
"r 	c #4FA9F8",
"s 	c #42A0F8",
"t 	c #3C92E7",
"u 	c #3EA3FA",
"v 	c #396FB0",
"w 	c #364F83",
"x 	c #4091E1",
"y 	c #364978",
"z 	c #374C7C",
"A 	c #3D97EA",
"B 	c #3A7EC8",
"C 	c #364E80",
"D 	c #4FA3ED",
"E 	c #4092E3",
"F 	c #3C94E0",
"G 	c #3A78BD",
"H 	c #365083",
"I 	c #419AEB",
"J 	c #364C7D",
"K 	c #364977",
"L 	c #37578D",
"M 	c #374F81",
"N 	c #365E9A",
"O 	c #42A3FA",
"P 	c #3970B2",
"Q 	c #374E7F",
"R 	c #3A89D8",
"S 	c #50ABFF",
"T 	c #3C8FE2",
"U 	c #3B81CC",
"V 	c #3B85D3",
"W 	c #3D99EC",
"X 	c #3DA2FE",
"Y 	c #43A4FF",
"Z 	c #3FA2FE",
"` 	c #3FA3FF",
" .	c #3FA5FF",
"..	c #3FA4FF",
"+.	c #3FA3FE",
"@.	c #3EA2FF",
"#.	c #359DFF",
"  . + @ # $ % & ",
"* = - ; > , ' ) ",
"! ~ { ] ^ / ( _ ",
": < [ } | ^ 1 2 ",
"3 4 5 6 7 ^ 8 9 ",
"0 a b c d ^ e f ",
"g h i j ^ k l m ",
"g h n o p ] q r ",
"s t t u v ^ w 9 ",
"x y z A B [ C D ",
"E p y F G ^ H 9 ",
"I J K L M ^ N r ",
"O P ^ [ [ Q R S ",
"g a T U V W X m ",
"Y Z `  ...+.@.) ",
"  #.% % % % % & "};
