/* XPM */
static char * two_800_600_xpm[] = {
"8 16 97 2",
"  	c #399FFF",
". 	c #359EFF",
"+ 	c #349CFD",
"@ 	c #3399F4",
"# 	c #339AF4",
"$ 	c #349DFC",
"% 	c #349EFF",
"& 	c #47A5FF",
"* 	c #43A5FF",
"= 	c #3D9AF0",
"- 	c #3A6CAB",
"; 	c #385990",
"> 	c #385A90",
", 	c #3A6BAA",
"' 	c #3D98EC",
") 	c #51AAFF",
"! 	c #42A3FB",
"~ 	c #3866A4",
"{ 	c #364672",
"] 	c #364876",
"^ 	c #364673",
"/ 	c #365E99",
"( 	c #4FA8F7",
"_ 	c #419EEF",
": 	c #365082",
"< 	c #3868A7",
"[ 	c #3971B4",
"} 	c #354A7A",
"| 	c #4E9EEA",
"1 	c #4198EB",
"2 	c #364B7A",
"3 	c #364674",
"4 	c #3A86D4",
"5 	c #3C91E3",
"6 	c #364775",
"7 	c #354877",
"8 	c #4E9AE6",
"9 	c #4198EC",
"0 	c #375489",
"a 	c #375083",
"b 	c #3B8ADB",
"c 	c #3B82CD",
"d 	c #364875",
"e 	c #354B7C",
"f 	c #4FA0EB",
"g 	c #42A4FE",
"h 	c #3EA0FC",
"i 	c #3EA0FB",
"j 	c #3EA2F9",
"k 	c #385D96",
"l 	c #364776",
"m 	c #365B95",
"n 	c #4FA8F6",
"o 	c #42A4FF",
"p 	c #3EA2FF",
"q 	c #3EA3FF",
"r 	c #3A7EC7",
"s 	c #364572",
"t 	c #3A82CE",
"u 	c #50ABFE",
"v 	c #3C93E3",
"w 	c #364E7F",
"x 	c #396DAE",
"y 	c #3DA3FF",
"z 	c #50AAFF",
"A 	c #3D9CF2",
"B 	c #37578D",
"C 	c #375C95",
"D 	c #3D9CF3",
"E 	c #3DA0FD",
"F 	c #50A9FF",
"G 	c #3872B4",
"H 	c #354672",
"I 	c #3B8AD4",
"J 	c #3E9FF0",
"K 	c #3D9EF1",
"L 	c #50A9FC",
"M 	c #41A0F1",
"N 	c #365489",
"O 	c #364877",
"P 	c #364977",
"Q 	c #375488",
"R 	c #36558B",
"S 	c #4F9FEC",
"T 	c #4199EB",
"U 	c #364B7B",
"V 	c #364A7A",
"W 	c #4F9EEA",
"X 	c #42A0F9",
"Y 	c #3C8DE0",
"Z 	c #3C8DDF",
"` 	c #3B8DE0",
" .	c #4FA6F9",
"..	c #43A4FF",
"+.	c #3FA3FF",
"@.	c #359DFF",
"#.	c #349DFF",
"  . + @ # $ % & ",
"* = - ; > , ' ) ",
"! ~ { ] ] ^ / ( ",
"_ : ] < [ ] } | ",
"1 2 3 4 5 6 7 8 ",
"9 0 a b c d e f ",
"g h i j k l m n ",
"o p q r 3 s t u ",
"o p v w l x y z ",
"o A B 6 C D E F ",
"g G H ] I J K L ",
"M N O P Q N R S ",
"T U ] 6 ] P V W ",
"X Y Z Z Z Z `  .",
"..+.+.+.+.+.q ) ",
"  @.#.#.#.#.#.& "};
