/* XPM */
static char * zero_800_600_xpm[] = {
"8 16 72 1",
" 	c #34A0FF",
".	c #3BA3FF",
"+	c #3996EE",
"@	c #3786D4",
"#	c #3887D5",
"$	c #3999F2",
"%	c #3AA3FF",
"&	c #3FA4FF",
"*	c #37A2FD",
"=	c #3A7FC8",
"-	c #364A79",
";	c #354470",
">	c #364571",
",	c #364E7D",
"'	c #3B88D6",
")	c #43A6FE",
"!	c #3696E8",
"~	c #364E7F",
"{	c #364876",
"]	c #364C7C",
"^	c #364A7A",
"/	c #375389",
"(	c #429FEF",
"_	c #3588D8",
":	c #364673",
"<	c #3B89D9",
"[	c #3A7AC2",
"}	c #364774",
"|	c #4195E1",
"1	c #3585D4",
"2	c #364875",
"3	c #364674",
"4	c #3C92E6",
"5	c #3B83D0",
"6	c #364978",
"7	c #4192DE",
"8	c #3B82D0",
"9	c #3C92E7",
"0	c #3B83CF",
"a	c #3589DA",
"b	c #364877",
"c	c #3A7BC4",
"d	c #396FB0",
"e	c #364775",
"f	c #4196E1",
"g	c #3698EC",
"h	c #375286",
"i	c #375990",
"j	c #42A1F3",
"k	c #38A2FE",
"l	c #3C8DDF",
"m	c #37588F",
"n	c #375D97",
"o	c #3C93E6",
"p	c #43A6FF",
"q	c #38A1FF",
"r	c #3EA4FF",
"s	c #3EA2FC",
"t	c #3D98EE",
"u	c #3D99F0",
"v	c #3EA3FD",
"w	c #3EA3FE",
"x	c #43A5FF",
"y	c #3AA2FF",
"z	c #41A3FF",
"A	c #40A3FF",
"B	c #40A4FF",
"C	c #45A7FF",
"D	c #57AAFF",
"E	c #5BAAFF",
"F	c #5BABFF",
"G	c #5EAEFF",
" .+@#$%&",
"*=-;>,')",
"!~{]^{/(",
"_{:<[}-|",
"12345}67",
"12348}67",
"12348}67",
"12348}67",
"12348}67",
"12390}67",
"ab}cde^f",
"ghe}}eij",
"klm--nop",
"qrstuvwx",
"yzABBAAC",
"DEFFFFFG"};
