/* XPM */
static char * back_arrow_800_600_xpm[] = {
"91 80 206 2",
"  	c #3EA2FF",
". 	c #389FFF",
"+ 	c #42A5FE",
"@ 	c #4893D7",
"# 	c #090B0E",
"$ 	c #030705",
"% 	c #010101",
"& 	c #191F25",
"* 	c #4699E6",
"= 	c #19222B",
"- 	c #459EF2",
"; 	c #3F99EE",
"> 	c #0A1313",
", 	c #040508",
"' 	c #43A8FF",
") 	c #45B1FF",
"! 	c #16212A",
"~ 	c #4074A2",
"{ 	c #2F5475",
"] 	c #325879",
"^ 	c #376875",
"/ 	c #568A86",
"( 	c #55897F",
"_ 	c #5C9489",
": 	c #233539",
"< 	c #243A4D",
"[ 	c #7CCBBD",
"} 	c #7CD2C2",
"| 	c #90D8CA",
"1 	c #405957",
"2 	c #253D52",
"3 	c #030B09",
"4 	c #1A2B2C",
"5 	c #82C5BB",
"6 	c #74C4B9",
"7 	c #83D0BE",
"8 	c #162A2B",
"9 	c #7DC5BB",
"0 	c #74CBBB",
"a 	c #83D1C4",
"b 	c #3C5B56",
"c 	c #479BEA",
"d 	c #489EED",
"e 	c #4BA2EF",
"f 	c #335C5E",
"g 	c #0C1C1C",
"h 	c #152423",
"i 	c #314B44",
"j 	c #77CBC0",
"k 	c #6BC5B6",
"l 	c #365A56",
"m 	c #3A75AC",
"n 	c #609491",
"o 	c #76C6B5",
"p 	c #6AB7AA",
"q 	c #75B6AA",
"r 	c #69ADA5",
"s 	c #429B92",
"t 	c #4BA29B",
"u 	c #499B95",
"v 	c #54A39C",
"w 	c #224443",
"x 	c #336997",
"y 	c #61988E",
"z 	c #3B8F8A",
"A 	c #3D9493",
"B 	c #429494",
"C 	c #3B6E9D",
"D 	c #6DBCB3",
"E 	c #419599",
"F 	c #386FA0",
"G 	c #5A9C93",
"H 	c #7ECEC1",
"I 	c #3B938D",
"J 	c #3C9B8F",
"K 	c #3FA9FF",
"L 	c #4282BC",
"M 	c #3C7CB4",
"N 	c #417EB7",
"O 	c #42758F",
"P 	c #56A497",
"Q 	c #65B9AF",
"R 	c #63B4AC",
"S 	c #5BB2A6",
"T 	c #44AA9C",
"U 	c #4BAAA0",
"V 	c #3EA195",
"W 	c #4DAB9E",
"X 	c #36638B",
"Y 	c #4192DC",
"Z 	c #121B1D",
"` 	c #3D625A",
" .	c #8CD2C6",
"..	c #82CCBE",
"+.	c #82CDC2",
"@.	c #3D9B94",
"#.	c #42A194",
"$.	c #4ABEA9",
"%.	c #5BBEAC",
"&.	c #28564C",
"*.	c #1C364E",
"=.	c #141C23",
"-.	c #45C1A5",
";.	c #46BFA8",
">.	c #53C2AC",
",.	c #3F9798",
"'.	c #46BDA5",
").	c #58C1AC",
"!.	c #48A598",
"~.	c #48C0A4",
"{.	c #4EB69F",
"].	c #274557",
"^.	c #284964",
"/.	c #325B68",
"(.	c #4BB3A3",
"_.	c #52BAA6",
":.	c #439683",
"<.	c #45887F",
"[.	c #0C241F",
"}.	c #85D2C9",
"|.	c #5EB5A9",
"1.	c #53B5A4",
"2.	c #4ABEA7",
"3.	c #4FC3AB",
"4.	c #0E291F",
"5.	c #263E55",
"6.	c #16241F",
"7.	c #53BDAA",
"8.	c #51B69F",
"9.	c #16342B",
"0.	c #72BAB2",
"a.	c #6ECBBB",
"b.	c #0A1618",
"c.	c #11171C",
"d.	c #7BD0BF",
"e.	c #3A75A9",
"f.	c #2E6896",
"g.	c #356B90",
"h.	c #447269",
"i.	c #458E86",
"j.	c #469D98",
"k.	c #193240",
"l.	c #254648",
"m.	c #64A49B",
"n.	c #305F89",
"o.	c #66B8B0",
"p.	c #65B5B0",
"q.	c #090D11",
"r.	c #73AEA4",
"s.	c #2F5F89",
"t.	c #7CBAAE",
"u.	c #84BAB3",
"v.	c #539593",
"w.	c #539D98",
"x.	c #2F5C83",
"y.	c #295659",
"z.	c #2D666B",
"A.	c #2C5F64",
"B.	c #21605F",
"C.	c #4A8E89",
"D.	c #8BD4CA",
"E.	c #2D6671",
"F.	c #2E686D",
"G.	c #266364",
"H.	c #31666C",
"I.	c #48918A",
"J.	c #346A6C",
"K.	c #356A70",
"L.	c #3B7A79",
"M.	c #367775",
"N.	c #69C8B8",
"O.	c #296669",
"P.	c #6DB2AB",
"Q.	c #38686B",
"R.	c #87CBC4",
"S.	c #1D3750",
"T.	c #304F63",
"U.	c #1B3336",
"V.	c #4BA5F6",
"W.	c #3B656A",
"X.	c #2B6365",
"Y.	c #65C6B5",
"Z.	c #436869",
"`.	c #336266",
" +	c #3E80BD",
".+	c #0D1F21",
"++	c #4A8E87",
"@+	c #2C4B4D",
"#+	c #35897F",
"$+	c #3C8A83",
"%+	c #182934",
"&+	c #35756F",
"*+	c #1A3336",
"=+	c #1A2D32",
"-+	c #060C10",
";+	c #4589C9",
">+	c #427C7C",
",+	c #253A46",
"'+	c #162725",
")+	c #323F4F",
"!+	c #379EFF",
"~+	c #37A1FF",
"{+	c #0E2422",
"]+	c #5FB2FF",
"^+	c #61B8FF",
"/+	c #65ACEC",
"                                                                . + @ # $ % % % % % % & *                                       + + . + . +                                           ",
"                            . +                                     @ # % % % % % $ % = *                                       . + + .   -                     +                   . ",
"        +                 - + .           +                     ;   @ > % , % , % % % = *                             +         + .                             . + .                 ",
"                          + . +                         +   ' ' ' ) @ # % $ % % % % % ! *                                       . +                             + . + -               ",
"                                                          + ~ { ] ] ^ / ( ( _ : % % % = *                                                                                             ",
"                                                          + < % , % = [ } [ | 1 % $ % ! *                                                     +         +                           . ",
"                                                  +       ' 2 % 3 % 4 5 [ 6 7 1 % % % ! *                                                                         +                 . ",
"  +                                                       ' < % , % 8 9 0 0 a b % $ % ! c                                   +                                                         ",
"            . +         +                         + d - d e f g h g i 6 j k j l % , % & *                                       +                                       . + .         ",
"          - + .                                 + m & ! ! ! n o p q r s t u v w % % % = *                                                                               + . + -     . ",
"            . +                                 ' x % % % % y a 0 [ o z A B s w % % % & *   .       + -               + - +               . +                   + .     + +           ",
"            +                                   ' C % % % $ y 7 6 [ D B E B u w % , , & *   - + .   . + .                 . + .         . + - . + .             - + .   .             ",
"                                          ' ' + ) F % , % % G a [ H D I J I s w % % % = d ' + ' ' ' + ' + + ' ' ' ' ' +   ' ' K ' + ' ' ' ' ' + + ' + ' ' + ' '   ' + ' ' +           ",
"                                        e L M N M O l l l l P Q R R S T U V W w % , % > X F C C C C C C C ~ C C C C C C C C C C C C C C C C C C C C C C C C C C C F C C C L +         ",
"                                        Y Z % , % `  .0 ..+.t I @.I #.$.$.$.%.&.% $ % % % % % % % % % % % % % % % % % % % % % % % % % % % % % % % % % % % % % % % % % , % *.'         ",
"                      +                 Y =.% , % ` 7 k 0 [ u A B A #.-.$.;.>.&.% % % % % % % % % % % % % % % % % % % % % % % % % % % % % % % % % % % % % % % % % % % % % *.'       . ",
"                                        Y =.% % % b 7 o 0 0 u B ,.A s ;.'.-.).&.% % % % % % % % % % % % % % % % % % % % % % % % % % % % % % % % % % % % $ $ % % % % % % % *.+ .       ",
"                                + ' + ' Y h $ 3 $ ` 7 [ 0 0 !.A ,.,.V $.~.{.).&.$ # $ 3 3 3 3 3 3 3 3 3 3 3 3 3 3 3 3 $ 3 3 3 3 3 $ 3 3 3 3 3 $ 3 3 3 3 3 3 $ 3 3 % % $ % < '       . ",
"                              + C ].^.^./.n _ _ G P v t W W (.(.(.(.(.$.;.'._.!.:.:.:.:.:.:.:.:.:.:.:.:.:.:.:.:.:.:.:.:.:.:.:.:.:.:.:.:.:.:.:.:.:.:.:.:.:.:.<.:.<.[.% % % *.' +       ",
"      +                       + 2 % , % h o } } }.|.I ,.B I 1.$.$.;.2.;.;.2.'.3.3.>.3.3.3.3.3.3.3.3.3.3.3.3.3.3.3.3.3.3.3.3.3.3.3.3.3.3.3.3.3.3.3.3.3.>.3.3.3.>.1.4.% $ % *.+         ",
"                              + ].% , % 4 q 0 o [ S I B E A 1.2.;.{.-.-.3.2.-.;.;.;.'.'.$.2.;.'.;.'.;.;.2.;.;.2.'.'.;.;.;.2.2.;.$.;.2.;.;.;.;.$.;.'.2.'.;.'.'.'.{.[.% $ % *.+         ",
"                              + 5.% % % 6.q [ [ [ R z B B I (.2.'.~.~.2.~.-.-.2.2.2.2.$.~.$.2.2.'.2.2.$.2.2.$.$.2.2.2.2.'.'.2.'.$.$.2.2.2.2.2.$.2.2.2.2.'.2.'.7.8.[.% % % *.'         ",
"                    + + d d c e /.h 9.4.w 0.a.k a.1.V s #.V (.2.2.2.2.2.2.{._.2.2.2.;.~.$.~.~.$.2.2.~.$.'.~.2.~.2.2.$.2.~.$.2.'.$.~.2.2.2.2.$.~.2.2.2.2.2.2.{.~.8.[.% % % *.' .     . ",
"            +       + M > b.c.b._ [ o 5 k s s @.J T $.2.2.2.2.;.2.2.2.'.2.2.2.2.2.2.2.'.$.~.$.~.2.~.$.~.2.2.~.$.;.2.3.~.$.~.2.~.-.$.~.-.2.2.~.~.$.$.2.2.2.'.~.~.{.[.% $ % < '         ",
"                    ' m % % % % / a o [ D B B B B T $.$.$.$.2.2.2.2.2.2.2.2.2.~.;.-.$.2.2.$.$.$.$.$.$.~.$.$.$.$.2.$.$.$.$.$.~.$._.3.$.$.$.$.$.$.$.2.7.$.2.2.2.2.{.[.% $ % *.+         ",
"                . ; K m % , , % y ..o [ k u B E A T $.;.~.2.2.2.2.2.2.2.2.~.$.$.3._.2.$.2.2.2.2.2.$.$.2.~.2.2.2.2.2.2.$.2.2.$.$.~.2.$.$.2.2.2.2.2.2.2.$.2.2.2.2.{.[.% % % *.'       . ",
". +           ' ) ) ) M % % % % _ } 0 d.k B I A I T $.$.2._.2.2.2.2.2.2.2.2.2.$.2.~.2.2.2.2.2.$.2.2.2.2.$.$.2.2.2.2.$.$.~.2.2.2.2.2.2.2.2.~.$.$.2.2.2.$.2.2.7.'.{.[.% , % *.+ +     . ",
"+ . +         e.f.x x g.h.h.h.h.G |.S S 1.U T W U (.$.$.2.2.2.2.2.2.2.2.2.2.2.2.2.2.$.2.2.2.2.2.~.$.$.2.2.2.2.2.2.2.2.~.$.$.2.2.2.2.$.2.2.2.$.2.2.2.2.$.$.$.2.2.{.[.% % % *.+         ",
". +         ; =.% $ % i | a a }.t I B i.@.$.$.$.;.;.;.;.'.2.2.2.2.2.$.2.$.2.2.~.2.$.~.2.2.2.~.$.$.2.2.2.2.~._.2.$.2.$.$.$.2.$.2.2.2.$.$.2.$.2.$.2.2.2.$.$.$.'.2.{.[.% % % *.+         ",
"  -         ; =.% $ % i 7 k 0 a.t B B B E $.;.'.$.;.2.;.2.2.2.2.~.2.2.2.2.2.$.$.2.2.$.$.2.$.$.2.$.2.2.$.$.2.3.$.2.2.2.~.2.2.2.2.2.2.~.$.2.$.~.2.2.2.2.$.$.$.2.2.{.[.% , % *.'         ",
"          + ; =.% $ % i 7 0 [ 0 v A ,.A j.$.;.'.(.2.2.2.2.2.2.2.$.$.$.2.2.2.$.2.2.2.$.~.$.2.2.2.$.2.2.2.2.2.$.$.2.2.$.2.2.$.2.2.2.2.~.2.2.$.2.2.$.2.2.$.$.$.2.~.{.[.% % % *.' +       ",
"    + + + ' d 8 3 b.$ &.a 0 6 [ v @.@.@.@.$.$.$.$.$.$.2.2.2.2.2.2.$.$.~.$.2.2.2.2.$.$.2.2.2.2.2.2.$.$.~.2.2.$.~.2.2.2.2.2.$.$.~.$.$.$.2.2.2.2.2.2.~.7.$.$.$.2.2.{.[.% , % < ' .     . ",
"+ + e.k.k.*.l.y m.m.m.P t !.t t 1.(.(.(.(.'.'.2.$.2.2.2.2.2.$.~.2.2.2.2.2.2.2.2.2.2.2.2.2.2.$.2.2.2.2.$.2.2.2.2.2.2.2.~.$.2.$.2.2.~.$.2.2.2.2.2.2._.3.$.$.$.2.2.8.[.% % % *.'         ",
"  + n.% , % 3 q }.[ a o.I A A I (.$.$.$.2.2.'.2.2.2.2.$.2.2.$.$.2.2.2.2.$.2.~.2.2.3.2.2.2.2.2.2.2.2.$.~.2.2.$.2.2.2.2.$.$.2.2.2.2.2.$.$.2.2.2.$.~.$.2.$.$.$.2.2.{.[.% , % *.+         ",
". + n.% % % > m.j o j p.A B ,.J (.$.2.$.7.'.2.2.~.$.$.$.$.2.2.2.2._.3.2.2.2.$.$.2.2.2.$.2.$.2.2.2.$.$.2.$.2.2.$.~.$.2.2.2.$.2.2.$.2.2.$.$.$.$.2.2.2.2.$.2.2.2._.{.[.% % % *.'         ",
"  ' n.% % % > r } 0 j p.A E ,.A (.$.2.2.2.~.2.2.2.$.~.2.2.2.2.2.$.~.2.$.$.2.2.$.2.2.2.2.2.2.2.2.2.2.2.2.3._.~.2.$.$.2.2.2.$.$.~.2.2.2.$.2.~.2.2.2.2.2.$.2.2.2.2.{.[.% $ % *.+       . ",
"  K X % % % q.r...[ [ o.A B A A (.;.;.$.$.2.2.2.2.2.2.2.2.2.2.2.$.$.$.2.2.$.$.2.$.2.~.2.2.2.~.2.2.2.$.2.2.2.2.2.2.2.2.2.2.2.2.~.2.2.2.~.2.2.2.2.~.$.2.$.3.2.2.2.{.[.% % % *.+       . ",
"  + s.% $ % > t.a [ +.p.B E A ,.(.;.'.$.$.2.2.2.2.$.~.2.2.2.$.2.2.~.2.2.2.~.$.2.2.2.$.$.$.$.$.2.$.~.$.~.$.2.2.2.2.2.2.2.2.$.$.$.2.2.2.$.2.2.2.2.2.$.2.$.$.$.2.2.{.[.% , % *.'         ",
"  ' s.% % % > t.a [ a o.I B B A (.$.'.$.$.2.~.$.2.2.$.$.2.$.2.2.2.$.2.2.~.2.2.2.2.2.$.~.2.2.2.$.$.2.2.$.2.2.~.$.2.2.2.2.2.2.2.2.2.$.2.2.2.2.2.2.2.2.7.$.$.$.'.2.{.[.% % % *.' +       ",
"  + n.% % % c.t.} +.a o.A E E A (.$.'.2.7.$.$.2.2.2.2.$.2.2.2.2.2.2.$.$.$.2.2.2.2.$.$.2.2.2.2.2.$.2.2.2.2.2.$.$.2.2.3.2.2.2.2.$.2.2.2.$.2.2.3.2.$.2.~.$.$.$.2.2.{.[.% , % *.' .       ",
"    s.% % % > u.}.}.}.o.z A A I U $.2.2.2.2.2.2.2.~.$.2.2.$.2.2.2.2.3.2.$.2.$.2.2.~.$.$.2.~.$.2.$.2.2.2.2.2.~.2.$.2.2.~.$.2.2.$.~.$.$.2.2.2.2.2.2.2.2.$.2.2.2.2.{.[.% % % *.+         ",
"  ' s.% $ % # / v.v.v.w.R p.p.|.(.$.'.2.2.2.2.2.$.2.$.2.2.2.2.2.2.2.2.2.$.~.2.2.2.2.2.$.2.2.$.$.2.2.2.$.$.$.$.$.2.2.$.2.$.2.2.2.2.2.$.2.$.2.2.2.2.2.2.2.2.2.2.2.{.[.% $ % *.'         ",
"  K x.% % % # y.z.A.B.C.D.+.}.} ).'.'.2.2.~.'.~.2.2.$.$.2.3.2.2.2.2.2.2.2.2.2.2.~.2.2.2.2.2.2.$.~.$.$.$.2.2.2.2.2.$.2.2.$.$.2.2.2.2.2.$.2.$.2.2.2._.2.$.$.2.2.2.{.[.% % % *.+ .       ",
"  K s.% % % 3 /.E.F.G.C.}.+.j H ).'.2.2.2.2.2.2.2.2.$.~.2.2.2.2.2.2.2.2.2.$.2.2.$.2.$.2.$.2.2.$.2.$.~.2.2.2.2.2.2.2.2.2.2.$.~.2.2.$.2.$.~.$.2.$.2.3.2.$.$.$.2.2.{.[.% , % < '       . ",
"  ' s.% % % q.f H.H.G.I.}.H H H Q 2.2.'.2.'.2.2.$.2.2.2.$.2.2.2.2.2.2.2.2.$.2.2.$.2.2.2.2.2.2.~.2.2.2.2.~.$.2.2.2.2.2.2.2.2.$.2.2.2.$.~.$.2.2.2.2.2.2.$.$.$.2.2.{.[.% % % *.' +     . ",
"  + s.% % % # /.z.J.A.C.}.9 H H %.$.(.'.2.'.2.2.2.2.2.2.2.2.2.$.$.2.2.2.$.~.2.2.2.$.2.2.2.2.$.2.2.$.2.2.2.2.$.2.2.2.2.2.2.2.$.~.2.2.2.2.2.2.2.2.2.2.2.$.$.$.2.2.{.[.% , % *.+         ",
"    n.% % % # f J.H.z.K.L.M.L.L.R j 0 0 N._.2.2.2.2._.2.~.$.$.$.2.2.2.2.$.$.$.$.$.2.2.$.~.$.2.2.$.2.~.$.2.2.2.$.2.2.2.2.2.2.$.2.$.2.2.$.2.2.2.$.2.$.$.$.2.2.$.~.{.[.% % % *.+         ",
"  ' n.% % % # f z.z.z.H.A.A.A.O.P.a +.+.0 2.{.2.2.$.$.2.2.$.~.2.2.2.2.$.2.$.2.2.3.2.$.$.$.$.2.2.2.2.3._.7.2.2.2.2.2.3.2.2.2.$.2.2.2.2.3._.~.2.2.2.$.$.$.7.2.2.$.(.[.% $ % *.'         ",
"  K X % , % # f O.O.F.F.H.E.H.z.P.+...+.0 2.'.2.'.'.2.2.~.$.$.2.2.2.2.2.2.~.'.2.2.'.2.2.'.'.2.2.2.'.'.2.'.'.2.'.2.2.'.'.2.'.2.'.2.2.'.'.'.'.'.'.2.'.2.2.;.'.'.~.{.[.% $ % *.+ +       ",
"  K ] % , % $ f K.Q.K.H.F.F.F.z.0.D.R.}.j 2.'.2.'.2.2.2.2.2.2.2.2.2.2.2.2.~.2.'.2.2.'.'.'.'.'.'.;.'.'.'.'.'.'.'.{.'.'.;.'.'.'.'.'.'.'.'.'.'.'.'.'.'.'.'.'.'.'.{.{.[.% % % S.+ .       ",
"    M ^.T.^.^.l.U.: U.l.H.H.F.O.v.P.r R |.%.).).%._.'.'.2._.2.2.2.~.2.2.$.2.'.>.|.%.%.%.%.).).>.).).%.).).).).).>.).).).).).%.%.).).).>.%.).).).).).%.%.).).).).S [.% , % *.' +     . ",
"  + ' ' ' ' V.=.% $ % 8 W.X.F.X.X.G.O.G.M.0 } j } Y.'.2.2.2.2.2.$.$.2.2.2.2.{.Y.d.} } } d.....} } H 7 [ } +.} +...H } ....} 7 [ ..} ..a ..d.+.} H H +.H H H +.a 5 h % % % *.+         ",
"        .   ; ! % , % 4 Q.z.z.z.H.H.H.z.L.u.+.R.+.Y.(.'.'.2.2.2.$.2.2.2.2.2._.k } +.H +.+.+.+.+.+...+.+.+.+.+.+.+...+...+.+.+.+.+.+...+.+.+.+.+.+.+.+.+.+.+.+.+.5 h % $ % *.+       . ",
"            ; =.% % % 8 W.H.F.H.z.H.H.A.L.H +.+.+.Y.'.;.2.'.'.;.2.2.2.2.2.2.{.Y.+.....+.+.+...+...+.+.[ a ..H +.+.} +.7 [ +.+...H ..+.+.+.+.+.+.H +.+.+.H +.[ +.9 6.% , % *.'         ",
"            c =.% $ % 4 Z./.`.`.H.z.H.X.L.j a a }.Y.(.'.2.'.'.-.2.$.2.2.2.2.'.k }.+.+.+.+.a a a a a a a a a +.a a a a a a a a a a a a a a +.a a +.a a +.a a +.}.5 h % $ % *.+ +       ",
"              L M N  +X Z g .+.+y.F.H./.K.C.C.C.i.1.a.Y.k k _.'.2._.2.$.2.2.2.!.C.I.C.C.C.++C.C.++++++++++C.C.C.C.C.++++++++++++++++C.C.C.C.C.C.C.C.C.C.C.C.C.C.++g % % % < ' .   + . ",
"                + + K M % % % % @+H.F.F.z.X.X.X.A.v.}.+.+.a %.;.2.2.'.~.2.'.2.#+B.G.G.O.X.X.X.A.X.X.X.X.X.X.X.X.X.X.X.X.X.X.X.X.X.X.X.X.X.X.X.X.X.X.A.A.X.X.X.X.A.q.% % % *.'       . ",
"              +   ; K e.% $ , % @+F.O.E.z.F.z.J.A.v.R.H +.j %.'.2.2.'.'.;.'.>.$+X.F.F.F.F.F.F.F.H.E.H.E.F.F.H.F.H.H.F.E.H.E.H.F.E.F.F.H.F.F.E.E.F.F.E.F.F.F.F.F.`.> % , % *.+         ",
"  +                 K e.% , % % @+K.F.K.H.O.H.H.A.v.D.+.+.} %.'.'.2.2.'.2.2.$.$+G.J.H.H.H.F.H.H.F.F.H.H.H.F.H.H.H.H.H.H.H.H.F.F.H.H.H.H.H.H.H.H.H.H.H.z.F.z.H.H.`.b.% $ % *.'         ",
"                    K  += %+%+%+@+@+@+@+y.z.z.z.A.I.H 0.6 6 %._._.|.7.'.2.$.7.$+X.F.H.z.F.F.F.E.F.F.E.H.F.F.z.z.F.F.F.F.H.F.H.F.F.H.z.z.F.F.z.H.F.H.z.F.F.F.z.z.`.> % % % *.+     + . ",
"                      + - - d V.]., , % g ` H.z.E.H.M.&+&+&+p j 0 0 Y.2.'.$.$.$+G.J.z.z.H.H.H.H.H.H.H.H.H.J.z.J.J.z.H.H.H.H.E.H.H.H.z.J.`.J.H.H.H.H.H.F.H.z.`.J.X.> % $ % *.'       . ",
"                              ' ].% , % b.f H.F.E.H.X.X.z.G.0.}.+.7 0 '.2.'.$.$+G.z.z.z.H.H.H.H.H.H.H.H.H.H.`.H.H.J.J.H.H.H.H.H.H.J.H.H.H.H.H.H.H.H.`.H.H.H.H.H./.> % % % *.+         ",
"                              + ].% , % b.G.O.X.z.H.F.H.H.O.0.a ....0 7.$.$.7.$+X.`.H.H.O.O.z.O.O.O.z.z.z.O.O.O.O.O.O.O.F.O.z.z.O.z.z.O.O.O.O.O.z.z.z.O.z.X.O.z.z.> % , % *.' +       ",
"                              + 2 % % % > /.Q.Q.W.H.F.H.Q.O.D }.a }.0 (.'.$.$.$+H.J.J.J.J.J.J.J.J.J.J.H.J.J.J.J.J.J.J.J.J.J.H.H.J.J.J.J.J.J.J.J.J.J.J.J.J.J.J.J.`.> % % % < + .       ",
"                            + + e.{ ] ] ] : *+*+=+@+J.H.H.O.w.r r v S ).).).Y.&+=+*+*+*+*+*+U.U.U.U.*+U.U.U.U.U.*+U.U.U.U.U.*+U.U.U.*+U.U.U.U.U.*+*+=+=+U.*+=+*+=+3 % , % *.+       . ",
"    +                       . + + ' ' ' * c.% $ % *+J.O.z.`.X.O.z.y.#+R.} ..D.b % $ % $ % % % % % % % % % % % % % % % % % % % % % % % % % % % % % % % % % % % % % % % % % *.'         ",
"                              .     +   Y =.% % % =+Q.F.X.`.F.z.H.G.O +.+.[  .1 % $ % % % % % $ % % % % % % % % % % % % % % % % % % % % % % % % % % % % % % % % % % % % % *.'         ",
"                              +         Y c.% $ % =+Q.E.F.H.F.F.z.B.<.}.H H  .1 % % % % % % % % % % % % % % % % % % % % % % % % % % % % % % % % % % % % % % % % % % % % % *.'         ",
"                +                   .   @ Z $ # $ : Z./.`.`.H.F.J.y.<.R.R.5  .1 % % % % , # # # # # # # # q.# # # # # # # # # # # # # # # q.# # 3 -+# # # -+# # # # # -+$ 5.'       . ",
"                                        V.@ ;+;+@ X > > > b.y.H.z.J.z.M.M.M.>+*+% $ % c.;+d * d * d * d * * c c c c d * d * * d * d * d * * c c c c d * d * * d * * * d * -           ",
"          +                                     ' C % % % % @+K.z.z.`.G./.X.z.4 % % % 8 d           K           K                   K           K                     K               ",
"                                                K C % % % , y.F.O.z.z.z.H.z.J.4 % % % ! *                                                                     -                       ",
"        +               +       . +         + . K x % % % % @+^ ^ K.Q.z.H.z.J.=+% $ % ! *                 +               +                             . + . +       -               ",
"                                + . +           + N ,+< ,+< @+l.l.l.].F.E.z.J.=+% % % ! *                                                               +   + .       +             . ",
". +                             . +               + + + + ) ].% , % Z H.H.E.Q.=+% % % ! *                                                                           + .               ",
"+                                 -                     - ' < % $ % Z `.z.z.Q.%+% , % '+*                                                                           . + . +           ",
". +                 . + . +                             . ' 2 % , % =.W.O.z.W.=+% , % ! Y                           . + . +                                                         . ",
"  -       +     . + + -   -                 +             + )+% , % Z W.Q.H.Z.=+% % % ! *     +         +         + +     -               + +     +     . +   -     +   +             ",
"!+!+. . . . . . . !+!+!+!+!+. . . . . . !+!+!+  . . ~+~+~+  M s.f.f.X 8 {+{+h # % % % & ; !+!+!+  ~+~+!+!+. . . . . . !+!+!+. .   ~+~+!+. . !+. . . . . . !+!+. . . !+. . !+. . . . !+",
"]+]+]+]+]+]+]+]+^+]+]+]+]+]+]+]+]+]+]+]+]+]+]+]+]+]+]+]+]+]+]+]+^+^+/+: ! = 8 = = = & )+/+]+]+]+]+]+]+]+]+]+]+]+]+]+]+]+]+]+]+]+]+]+]+]+]+]+]+]+]+]+]+]+^+]+]+]+]+]+]+]+]+]+]+]+]+]+]+"};
