/* XPM */
static char *back_arrow_800_600_xpm[] = {
/* columns rows colors chars-per-pixel */
"92 81 214 2 ",
"   c #010101",
".  c #040508",
"X  c #030B09",
"o  c #090B0E",
"O  c #030705",
"+  c #060C10",
"@  c #090D11",
"#  c #0A1313",
"$  c #0C1C1C",
"%  c #0A1618",
"&  c #121B1D",
"*  c #11171C",
"=  c #0C241F",
"-  c #0E291F",
";  c #16241F",
":  c #0D1F21",
">  c #141C23",
",  c #191F25",
"<  c #0E2422",
"1  c #152423",
"2  c #16212A",
"3  c #19222B",
"4  c #162A2B",
"5  c #1A2B2C",
"6  c #162725",
"7  c #1A2D32",
"8  c #182934",
"9  c #1B3336",
"0  c #1A3336",
"q  c #16342B",
"w  c #233539",
"e  c #1C364E",
"r  c #193240",
"t  c #1D3750",
"y  c #243A4D",
"u  c #253A46",
"i  c #253D52",
"p  c #263E55",
"a  c #323F4F",
"s  c #1F4B50",
"d  c #224443",
"f  c #2C4B4D",
"g  c #254648",
"h  c #314B44",
"j  c #28564C",
"k  c #274557",
"l  c #295659",
"z  c #3C5B56",
"x  c #335C5E",
"c  c #365A56",
"v  c #3D625A",
"b  c #21605F",
"n  c #284964",
"m  c #2C5F64",
"M  c #325B68",
"N  c #2F5475",
"B  c #325879",
"V  c #304F63",
"C  c #266364",
"Z  c #2B6365",
"A  c #2D666B",
"S  c #2E686D",
"D  c #296669",
"F  c #336266",
"G  c #31666C",
"H  c #3B656A",
"J  c #346A6C",
"K  c #38686B",
"L  c #35756F",
"P  c #2D6671",
"I  c #356A70",
"U  c #376875",
"Y  c #3B7A79",
"T  c #367775",
"R  c #405957",
"E  c #436869",
"W  c #447269",
"Q  c #427C7C",
"!  c #35897F",
"~  c #55897F",
"^  c #45887F",
"/  c #2F5F89",
"(  c #2F5C83",
")  c #305F89",
"_  c #36638B",
"`  c #2E6896",
"'  c #3B6E9D",
"]  c #336997",
"[  c #356B90",
"{  c #386FA0",
"}  c #3A75AC",
"|  c #3A75A9",
" . c #3C7CB4",
".. c #42758F",
"X. c #417EB7",
"o. c #4074A2",
"O. c #3C8A83",
"+. c #3B8F8A",
"@. c #3B938D",
"#. c #3C9B8F",
"$. c #3D9493",
"%. c #3D9B94",
"&. c #3F9798",
"*. c #3EA195",
"=. c #3E80BD",
"-. c #4A8E87",
";. c #4A8E89",
":. c #458E86",
">. c #568A86",
",. c #439683",
"<. c #48918A",
"1. c #5C9489",
"2. c #429494",
"3. c #429B92",
"4. c #499B95",
"5. c #419599",
"6. c #469D98",
"7. c #539593",
"8. c #5A9C93",
"9. c #539D98",
"0. c #61988E",
"q. c #609491",
"w. c #42A194",
"e. c #4BA29B",
"r. c #44AA9C",
"t. c #4DAB9E",
"y. c #48A598",
"u. c #54A39C",
"i. c #56A497",
"p. c #4EB69F",
"a. c #51B69F",
"s. c #64A49B",
"d. c #4282BC",
"f. c #4BAAA0",
"g. c #5EAAA2",
"h. c #4BB3A3",
"j. c #46BDA5",
"k. c #4ABEA7",
"l. c #46BFA8",
"z. c #4ABEA9",
"x. c #53B5A4",
"c. c #5BB2A6",
"v. c #52BAA6",
"b. c #53BDAA",
"n. c #5BBEAC",
"m. c #5EB5A9",
"M. c #69ADA5",
"N. c #63B4AC",
"B. c #6DB2AB",
"V. c #65B9AF",
"C. c #6AB7AA",
"Z. c #7CBAAE",
"A. c #75B6AA",
"S. c #65B5B0",
"D. c #6DBCB3",
"F. c #66B8B0",
"G. c #72BAB2",
"H. c #73AEA4",
"J. c #45C1A5",
"K. c #4FC3AB",
"L. c #48C0A4",
"P. c #53C2AC",
"I. c #58C1AC",
"U. c #65C6B5",
"Y. c #6BC5B6",
"T. c #6ECBBB",
"R. c #69C8B8",
"E. c #74C4B9",
"W. c #7DC5BB",
"Q. c #74CBBB",
"!. c #7CCBBD",
"~. c #76C6B5",
"^. c #7BD0BF",
"/. c #3F99EE",
"(. c #389FFF",
"). c #379EFF",
"_. c #3EA2FF",
"`. c #3FA9FF",
"'. c #37A1FF",
"]. c #4589C9",
"[. c #4192DC",
"{. c #4893D7",
"}. c #4699E6",
"|. c #479BEA",
" X c #489EED",
".X c #4095E6",
"XX c #459EF2",
"oX c #42A5FE",
"OX c #43A8FF",
"+X c #4BA5F6",
"@X c #45B1FF",
"#X c #5FB2FF",
"$X c #4BA2EF",
"%X c #65ACEC",
"&X c #61B8FF",
"*X c #7ECEC1",
"=X c #77CBC0",
"-X c #7CD2C2",
";X c #76D0C2",
":X c #84BAB3",
">X c #82CCBE",
",X c #82C5BB",
"<X c #83D0BE",
"1X c #82CDC2",
"2X c #87CBC4",
"3X c #83D1C4",
"4X c #8CD2C6",
"5X c #85D2C9",
"6X c #8BD4CA",
"7X c #90D8CA",
"8X c #CBE6FF",
"9X c #D4EAFF",
"0X c #F3F6F8",
"qX c #FAFCFF",
/* pixels */
"_._._._._._._._._._._._._._._._._._._._._._._._._._._._._._._._.(.oX{.o O             , }._._._._._._._._._._._._._._._._._._._.oXoX(.oX(.oX_._._._._._._._._._._._._._._._._._._._._.8X",
"_._._._._._._._._._._._._._.(.oX_._._._._._._._._._._._._._._._._._.{.o           O   3 }._._._._._._._._._._._._._._._._._._._.(.oXoX(._.XX_._._._._._._._._._.oX_._._._._._._._._.(.8X",
"_._._._.oX_._._._._._._._.XXoX(._._._._._.oX_._._._._._._._._._./._.{.#   .   .       3 }._._._._._._._._._._._._._._.oX_._._._.oX(._._._._._._._._._._._._._._.(.oX(._._._._._._._._.8X",
"_._._._._._._._._._._._._.oX(.oX_._._._._._._._._._._._.oX_.OXOXOX@X{.o   O           2 }._._._._._._._._._._._._._._._._._._._.(.oX_._._._._._._._._._._._._._.oX(.oXXX_._._._._._._.8X",
"_._._._._._._._._._._._._._._._._._._._._._._._._._._._._.oXo.N B B U >.~ ~ 1.w       3 }._._._._._._._._._._._._._._._._._._._._._._._._._._._._._._._._._._._._._._._._._._._._._._.8X",
"_._._._._._._._._._._._._._._._._._._._._._._._._._._._._.oXy   .   3 !.-X!.7XR   O   2 }._._._._._._._._._._._._._._._._._._._._._._._._._._.oX_._._._.oX_._._._._._._._._._._._._.(.8X",
"_._._._._._._._._._._._._._._._._._._._._._._._._.oX_._._.OXi   X   5 ,X!.E.<XR       2 }._._._._._._._._._._._._._._._._._._._._._._._._._._._._._._._._._._._._.oX_._._._._._._._.(.8X",
"_.oX_._._._._._._._._._._._._._._._._._._._._._._._._._._.OXy   .   4 W.Q.Q.3Xz   O   2 |._._._._._._._._._._._._._._._._._.oX_._._._._._._._._._._._._._._._._._._._._._._._._._._._.8X",
"_._._._._._.(.oX_._._._.oX_._._._._._._._._._._._.oX XXX X$Xx $ 1 $ h E.=XY.=Xc   .   , }._._._._._._._._._._._._._._._._._._._.oX_._._._._._._._._._._._._._._._._._._.(.oX(._._._._.8X",
"_._._._._.XXoX(._._._._._._._._._._._._._._._._.oX} , 2 2 2 q.~.C.A.M.3.e.4.u.d       3 }._._._._._._._._._._._._._._._._._._._._._._._._._._._._._._._._._._._._._._._.oX(.oXXX_._.(.8X",
"_._._._._._.(.oX_._._._._._._._._._._._._._._._.OX]         0.3XQ.!.~.+.$.2.3.d       , }._.(._._._.oXXX_._._._._._._.oXXXoX_._._._._._._.(.oX_._._._._._._._._.oX(._._.oXoX_._._._._.8X",
"_._._._._._.oX_._._._._._._._._._._._._._._._._.OX'       O 0.<XE.!.D.2.5.2.4.d   . . , }._.XXoX(._.(.oX(._._._._._._._._.(.oX(._._._._.(.oXXX(.oX(._._._._._._.XXoX(._.(._._._._._._.8X",
"_._._._._._._._._._._._._._._._._._._._._.OXOXoX@X{   .     8.3X!.*XD.@.#.@.3.d       3  XOXoXOXOXOXoXOXoXoXOXOXOXOXOXoX_.OXOX`.OXoXOXOXOXOXOXoXoXOXoXOXOXoXOXOX_.OXoXOXOXoX_._._._._.8X",
"_._._._._._._._._._._._._._._._._._._._.$Xd. .X. ...c c c c i.V.N.N.c.r.f.*.t.d   .   # _ { ' ' ' ' ' ' ' o.' ' ' ' ' ' ' ' ' ' ' ' ' ' ' ' ' ' ' ' ' ' ' ' ' ' ' { ' ' ' d.oX_._._._.8X",
"_._._._._._._._._._._._._._._._._._._._.[.&   .   v 4XQ.>X1Xe.@.%.@.w.z.z.z.n.j   O                                                                                   .   e OX_._._._.8X",
"_._._._._._._._._._._.oX_._._._._._._._.[.>   .   v <XY.Q.!.4.$.2.$.w.J.z.l.P.j                                                                                           e OX_._._.(.8X",
"_._._._._._._._._._._._._._._._._._._._.[.>       z <X~.Q.Q.4.2.&.$.3.l.j.J.I.j                                                                         O O               e oX(._._._.8X",
"_._._._._._._._._._._._._._._._.oXOXoXOX[.1 O X O v <X!.Q.Q.y.$.&.&.*.z.L.p.I.j O o O X X X X X X X X X X X X X X X X O X X X X X O X X X X X O X X X X X X O X X     O   y OX_._._.(.8X",
"_._._._._._._._._._._._._._._.oX' k n n M q.1.1.8.i.u.e.t.t.h.h.h.h.h.z.l.j.v.y.,.,.,.,.,.,.,.,.,.,.,.,.,.,.,.,.,.,.,.,.,.,.,.,.,.,.,.,.,.,.,.,.,.,.,.,.,.,.^ ,.^ =       e OXoX_._._.8X",
"_._._.oX_._._._._._._._._._._.oXi   .   1 ~.-X-X5Xm.@.&.2.@.x.z.z.l.k.l.l.k.j.K.K.P.K.K.K.K.K.K.K.K.K.K.K.K.K.K.K.K.K.K.K.K.K.K.K.K.K.K.K.K.K.K.K.K.K.P.K.K.K.P.x.-   O   e oX_._._._.8X",
"_._._._._._._._._._._._._._._.oXk   .   5 A.Q.~.!.c.@.2.5.$.x.k.l.p.J.J.K.k.J.l.l.l.j.j.z.k.l.j.l.j.l.l.k.l.l.k.j.j.l.l.l.k.k.l.z.l.k.l.l.l.l.z.l.j.k.j.l.j.j.j.p.=   O   e oX_._._._.8X",
"_._._._._._._._._._._._._._._.oXp       ; A.!.!.!.N.+.2.2.@.h.k.j.L.L.k.L.J.J.k.k.k.k.z.L.z.k.k.j.k.k.z.k.k.z.z.k.k.k.k.j.j.k.j.z.z.k.k.k.k.k.z.k.k.k.k.j.k.j.b.a.=       e OX_._._._.8X",
"_._._._._._._._._._.oXoX X X|.$XM 1 q - d G.T.Y.T.x.*.3.w.*.h.k.k.k.k.k.k.p.v.k.k.k.l.L.z.L.L.z.k.k.L.z.j.L.k.L.k.k.z.k.L.z.k.j.z.L.k.k.k.k.z.L.k.k.k.k.k.k.p.L.a.=       e OX(._._.(.8X",
"_._._._._._.oX_._._.oX .# % * % 1.!.~.,XY.3.3.%.#.r.z.k.k.k.k.l.k.k.k.j.k.k.k.k.k.k.k.j.z.L.z.L.k.L.z.L.k.k.L.z.l.k.K.L.z.L.k.L.J.z.L.J.k.k.L.L.z.z.k.k.k.j.L.L.p.=   O   y OX_._._._.8X",
"_._._._._._._._._._.OX}         >.3X~.!.D.2.2.2.2.r.z.z.z.z.k.k.k.k.k.k.k.k.k.L.l.J.z.k.k.z.z.z.z.z.z.L.z.z.z.z.k.z.z.z.z.z.L.z.v.K.z.z.z.z.z.z.z.k.b.z.k.k.k.k.p.=   O   e oX_._._._.8X",
"_._._._._._._._.(./.`.}   . .   0.>X~.!.Y.4.2.5.$.r.z.l.L.k.k.k.k.k.k.k.k.L.z.z.K.v.k.z.k.k.k.k.k.z.z.k.L.k.k.k.k.k.k.z.k.k.z.z.L.k.z.z.k.k.k.k.k.k.k.z.k.k.k.k.p.=       e OX_._._.(.8X",
"(.oX_._._._._.OX@X@X@X .        1.-XQ.^.Y.2.@.$.@.r.z.z.k.v.k.k.k.k.k.k.k.k.k.z.k.L.k.k.k.k.k.z.k.k.k.k.z.z.k.k.k.k.z.z.L.k.k.k.k.k.k.k.k.L.z.z.k.k.k.z.k.k.b.j.p.=   .   e oXoX_._.(.8X",
"oX(.oX_._._._.| ` ] ] [ W W W W 8.m.c.c.x.f.r.t.f.h.z.z.k.k.k.k.k.k.k.k.k.k.k.k.k.k.z.k.k.k.k.k.L.z.z.k.k.k.k.k.k.k.k.L.z.z.k.k.k.k.z.k.k.k.z.k.k.k.k.z.z.z.k.k.p.=       e oX_._._._.8X",
"(.oX_._._._./.>   O   h 7X3X3X5Xe.@.2.:.%.z.z.z.l.l.l.l.j.k.k.k.k.k.z.k.z.k.k.L.k.z.L.k.k.k.L.z.z.k.k.k.k.L.v.k.z.k.z.z.z.k.z.k.k.k.z.z.k.z.k.z.k.k.k.z.z.z.j.k.p.=       e oX_._._._.8X",
"_.XX_._._._./.>   O   h <XY.Q.T.e.2.2.2.5.z.l.j.z.l.k.l.k.k.k.k.L.k.k.k.k.k.z.z.k.k.z.z.k.z.z.k.z.k.k.z.z.k.K.z.k.k.k.L.k.k.k.k.k.k.L.z.k.z.L.k.k.k.k.z.z.z.k.k.p.=   .   e OX_._._._.8X",
"_._._._._.oX/.>   O   h <XQ.!.Q.u.$.&.$.6.z.l.j.h.k.k.k.k.k.k.k.z.z.z.k.k.k.z.k.k.k.z.L.z.k.k.k.z.k.k.k.k.k.z.z.k.k.z.k.k.z.k.k.k.k.L.k.k.z.k.k.z.k.k.z.z.z.k.L.p.=       e OXoX_._._.8X",
"_._.oXoXoXOX X4 X % O j 3XQ.E.!.u.%.%.%.%.z.z.z.z.z.z.k.k.k.k.k.k.z.z.L.z.k.k.k.k.z.z.k.k.k.k.k.k.z.z.L.k.k.z.L.k.k.k.k.k.z.z.L.z.z.z.k.k.k.k.k.k.L.b.z.z.z.k.k.p.=   .   y OX(._._.(.8X",
"oXoX| r r e g 0.s.s.s.i.e.y.e.e.x.h.h.h.h.j.j.k.z.k.k.k.k.k.z.L.k.k.k.k.k.k.k.k.k.k.k.k.k.k.z.k.k.k.k.z.k.k.k.k.k.k.k.L.z.k.z.k.k.L.z.k.k.k.k.k.k.v.K.z.z.z.k.k.a.=       e OX_._._._.8X",
"_.oX)   .   X A.5X!.3XF.@.$.$.@.h.z.z.z.k.k.j.k.k.k.k.z.k.k.z.z.k.k.k.k.z.k.L.k.k.K.k.k.k.k.k.k.k.k.z.L.k.k.z.k.k.k.k.z.z.k.k.k.k.k.z.z.k.k.k.z.L.z.k.z.z.z.k.k.p.=   .   e oX_._._._.8X",
"(.oX)       # s.=X~.=XS.$.2.&.#.h.z.k.z.b.j.k.k.L.z.z.z.z.k.k.k.k.v.K.k.k.k.z.z.k.k.k.z.k.z.k.k.k.z.z.k.z.k.k.z.L.z.k.k.k.z.k.k.z.k.k.z.z.z.z.k.k.k.k.z.k.k.k.v.p.=       e OX_._._._.8X",
"_.OX)       # M.-XQ.=XS.$.5.&.$.h.z.k.k.k.L.k.k.k.z.L.k.k.k.k.k.z.L.k.z.z.k.k.z.k.k.k.k.k.k.k.k.k.k.k.k.K.v.L.k.z.z.k.k.k.z.z.L.k.k.k.z.k.L.k.k.k.k.k.z.k.k.k.k.p.=   O   e oX_._._.(.8X",
"_.`._       @ H.>X!.!.F.$.2.$.$.h.l.l.z.z.k.k.k.k.k.k.k.k.k.k.k.z.z.z.k.k.z.z.k.z.k.L.k.k.k.L.k.k.k.z.k.k.k.k.k.k.k.k.k.k.k.k.L.k.k.k.L.k.k.k.k.L.z.k.z.K.k.k.k.p.=       e oX_._._.(.8X",
"_.oX/   O   # Z.3X!.1XS.2.5.$.&.h.l.j.z.z.k.k.k.k.z.L.k.k.k.z.k.k.L.k.k.k.L.z.k.k.k.z.z.z.z.z.k.z.L.z.L.z.k.k.k.k.k.k.k.k.z.z.z.k.k.k.z.k.k.k.k.k.z.k.z.z.z.k.k.p.=   .   e OX_._._._.8X",
"_.OX/       # Z.3X!.3XF.@.2.2.$.h.z.j.z.z.k.L.z.k.k.z.z.k.z.k.k.k.z.k.k.L.k.k.k.k.k.z.L.k.k.k.z.z.k.k.z.k.k.L.z.k.k.k.k.k.k.k.k.k.z.k.k.k.k.k.k.k.k.b.z.z.z.j.k.p.=       e OXoX_._._.8X",
"_.oX)       * Z.-X1X3XF.$.5.5.$.h.z.j.k.b.z.z.k.k.k.k.z.k.k.k.k.k.k.z.z.z.k.k.k.k.z.z.k.k.k.k.k.z.k.k.k.k.k.z.z.k.k.K.k.k.k.k.z.k.k.k.z.k.k.K.k.z.k.L.z.z.z.k.k.p.=   .   e OX(._._._.8X",
"_._./       # :X5X5X5XF.+.$.$.@.f.z.k.k.k.k.k.k.k.L.z.k.k.z.k.k.k.k.K.k.z.k.z.k.k.L.z.z.k.L.z.k.z.k.k.k.k.k.L.k.z.k.k.L.z.k.k.z.L.z.z.k.k.k.k.k.k.k.k.z.k.k.k.k.p.=       e oX_._._._.8X",
"_.OX/   O   o >.7.7.7.9.N.S.S.m.h.z.j.k.k.k.k.k.z.k.z.k.k.k.k.k.k.k.k.k.z.L.k.k.k.k.k.z.k.k.z.z.k.k.k.z.z.z.z.z.k.k.z.k.z.k.k.k.k.k.z.k.z.k.k.k.k.k.k.k.k.k.k.k.p.=   O   e OX_._._._.8X",
"_.`.(       o l A m b ;.6X1X5X-XI.j.j.k.k.L.j.L.k.k.z.z.k.K.k.k.k.k.k.k.k.k.k.k.L.k.k.k.k.k.k.z.L.z.z.z.k.k.k.k.k.z.k.k.z.z.k.k.k.k.k.z.k.z.k.k.k.v.k.z.z.k.k.k.p.=       e oX(._._._.8X",
"_.`./       X M P S C ;.5X1X=X*XI.j.k.k.k.k.k.k.k.k.z.L.k.k.k.k.k.k.k.k.k.z.k.k.z.k.z.k.z.k.k.z.k.z.L.k.k.k.k.k.k.k.k.k.k.z.L.k.k.z.k.z.L.z.k.z.k.K.k.z.z.z.k.k.p.=   .   y OX_._._.(.8X",
"_.OX/       @ x G G C <.5X*X*X*XV.k.k.j.k.j.k.k.z.k.k.k.z.k.k.k.k.k.k.k.k.z.k.k.z.k.k.k.k.k.k.L.k.k.k.k.L.z.k.k.k.k.k.k.k.k.z.k.k.k.z.L.z.k.k.k.k.k.k.z.z.z.k.k.p.=       e OXoX_._.(.8X",
"_.oX/       o M A J m ;.5XW.*X*Xn.z.h.j.k.j.k.k.k.k.k.k.k.k.k.z.z.k.k.k.z.L.k.k.k.z.k.k.k.k.z.k.k.z.k.k.k.k.z.k.k.k.k.k.k.k.z.L.k.k.k.k.k.k.k.k.k.k.k.z.z.z.k.k.p.=   .   e oX_._._._.8X",
"_._.)       o x J G A I Y T Y Y N.=XQ.Q.R.v.k.k.k.k.v.k.L.z.z.z.k.k.k.k.z.z.z.z.z.k.k.z.L.z.k.k.z.k.L.z.k.k.k.z.k.k.k.k.k.k.z.k.z.k.k.z.k.k.k.z.k.z.z.z.k.k.z.L.p.=       e oX_._._._.8X",
"_.OX)       o x A A A G m m m D B.3X1X1XQ.k.p.k.k.z.z.k.k.z.L.k.k.k.k.z.k.z.k.k.K.k.z.z.z.z.k.k.k.k.K.v.b.k.k.k.k.k.K.k.k.k.z.k.k.k.k.K.v.L.k.k.k.z.z.z.b.k.k.z.h.=   O   e OX_._._._.8X",
"_.`._   .   o x D D S S G P G A B.1X>X1XQ.k.j.k.j.j.k.k.L.z.z.k.k.k.k.k.k.L.j.k.k.j.k.k.j.j.k.k.k.j.j.k.j.j.k.j.k.k.j.j.k.j.k.j.k.k.j.j.j.j.j.j.k.j.k.k.l.j.j.L.p.=   O   e oXoX_._._.8X",
"_.`.B   .   O x I K I G S S S A G.6X2X5X=Xk.j.k.j.k.k.k.k.k.k.k.k.k.k.k.k.L.k.j.k.k.j.j.j.j.j.j.l.j.j.j.j.j.j.j.p.j.j.l.j.j.j.j.j.j.j.j.j.j.j.j.j.j.j.j.j.j.j.p.p.=       t oX(._._._.8X",
"_._. .n V n n g 9 w 9 g G G S D 7.B.M.N.m.n.I.I.n.v.j.j.k.v.k.k.k.L.k.k.z.k.j.P.m.n.n.n.n.I.I.P.I.I.n.I.I.I.I.I.P.I.I.I.I.I.n.n.I.I.I.P.n.I.I.I.I.I.n.n.I.I.I.I.c.=   .   e OXoX_._.(.8X",
"_.oXOXOXOXOX+X>   O   4 H Z S Z Z C D C T Q.-X=X-XU.j.k.k.k.k.k.z.z.k.k.k.k.p.U.^.-X-X-X^.>X>X-X-X*X<X!.-X1X-X1X>X*X-X>X>X-X<X!.>X-X>X3X>X^.1X-X*X*X1X*X*X*X1X3X,X1       e oX_._._._.8X",
"_._._._.(._./.2   .   5 K A A A G G G A Y :X1X2X1XU.h.j.j.k.k.k.z.k.k.k.k.k.v.Y.-X1X*X1X1X1X1X1X1X>X1X1X1X1X1X1X1X>X1X>X1X1X1X1X1X1X>X1X1X1X1X1X1X1X1X1X1X1X1X1X,X1   O   e oX_._._.(.8X",
"_._._._._._./.>       4 H G S G A G G m Y *X1X1X1XU.j.l.k.j.j.l.k.k.k.k.k.k.p.U.1X>X>X1X1X1X>X1X>X1X1X!.3X>X*X1X1X-X1X<X!.1X1X>X*X>X1X1X1X1X1X1X*X1X1X1X*X1X!.1XW.;   .   e OX_._._._.8X",
"_._._._._._.|.>   O   5 E M F F G A G Z Y =X3X3X5XU.h.j.k.j.j.J.k.z.k.k.k.k.j.Y.5X1X1X1X1X3X3X3X3X3X3X3X3X3X1X3X3X3X3X3X3X3X3X3X3X3X3X3X3X1X3X3X1X3X3X1X3X3X1X5X,X1   O   e oXoX_._._.8X",
"_._._._._._._.d. .X.=._ & $ : : l S G M I ;.;.;.:.x.T.U.Y.Y.v.j.k.v.k.z.k.k.k.y.;.<.;.;.;.-.;.;.-.-.-.-.-.;.;.;.;.;.-.-.-.-.-.-.-.-.;.;.;.;.;.;.;.;.;.;.;.;.;.;.-.$       y OX(._.oX(.8X",
"_._._._._._._._.oXoX`. .        f G S S A Z Z Z m 7.5X1X1X3Xn.l.k.k.j.L.k.j.k.! b C C D Z Z Z m Z Z Z Z Z Z Z Z Z Z Z Z Z Z Z Z Z Z Z Z Z Z Z Z Z Z m m Z Z Z Z m @       e OX_._._.(.8X",
"_._._._._._._.oX_./.`.|   O .   f S D P A S A J m 7.2X*X1X=Xn.j.k.k.j.j.l.j.P.O.Z S S S S S S S G P G P S S G S G G S P G P G S P S S G S S P P S S P S S S S S F #   .   e oX_._._._.8X",
"_.oX_._._._._._._._.`.|   .     f I S I G D G G m 7.6X1X1X-Xn.j.j.k.k.j.k.k.z.O.C J G G G S G G S S G G G S G G G G G G G G S S G G G G G G G G G G G A S A G G F %   O   e OX_._._._.8X",
"_._._._._._._._._._.`.=.3 8 8 8 f f f f l A A A m <.*XG.E.E.n.v.v.m.b.j.k.z.b.O.Z S G A S S S P S S P G S S A A S S S S G S G S S G A A S S A G S G A S S S A A F #       e oX_._.oX(.8X",
"_._._._._._._._._._._.oXXXXX X+Xk . .   $ v G A P G T L L L C.=XQ.Q.U.k.j.z.z.O.C J A A G G G G G G G G G J A J J A G G G G P G G G A J F J G G G G G S G A F J Z #   O   e OX_._._.(.8X",
"_._._._._._._._._._._._._._._.OXk   .   % x G S P G Z Z A C G.5X1X<XQ.j.k.j.z.O.C A A A G G G G G G G G G G F G G J J G G G G G G J G G G G G G G G F G G G G G M #       e oX_._._._.8X",
"_._._._._._._._._._._._._._._.oXk   .   % C D Z A G S G G D G.3X>X>XQ.b.z.z.b.O.Z F G G D D A D D D A A A D D D D D D D S D A A D A A D D D D D A A A D A Z D A A #   .   e OXoX_._._.8X",
"_._._._._._._._._._._._._._._.oXi       # M K K H G S G K D D.5X3X5XQ.h.j.z.z.O.G J J J J J J J J J J G J J J J J J J J J J G G J J J J J J J J J J J J J J J J F #       y oX(._._._.8X",
"_._._._._._._._._._._._._._.oXoX| N B B B w 0 0 7 f J G G D 9.M.M.u.c.I.I.I.U.L 7 0 0 0 0 0 9 9 9 9 0 9 9 9 9 9 0 9 9 9 9 9 0 9 9 9 0 9 9 9 9 9 0 0 7 7 9 0 7 0 7 X   .   e oX_._._.(.8X",
"_._.oX_._._._._._._._._._._.(.oXoXOXOXOX}.*   O   0 J D A F Z D A l ! 2X-X>X6Xz   O   O                                                                                   e OX_._._._.8X",
"_._._._._._._._._._._._._._._.(._._.oX_.[.>       7 K S Z F S A G C ..1X1X!.4XR   O           O                                                                           e OX_._._._.8X",
"_._._._._._._._._._._._._._._.oX_._._._.[.*   O   7 K P S G S S A b ^ 5X*X*X4XR                                                                                           e OX_._._._.8X",
"_._._._._._._._.oX_._._._._._._._._.(._.{.& O o O w E M F F G S J l ^ 2X2X,X4XR         . o o o o o o o o @ o o o o o o o o o o o o o o o @ o o X + o o o + o o o o o + O p OX_._._.(.8X",
"_._._._._._._._._._._._._._._._._._._._.+X{.].].{._ # # # % l G A J A T T T Q 0   O   * ]. X}. X}. X}. X}.}.|.|.|.|. X}. X}.}. X}. X}. X}.}.|.|.|.|. X}. X}.}. X}.}.}. X}.XX_._._._._.8X",
"_._._._._.oX_._._._._._._._._._._._._._._._._._.OX'         f I A A F C M Z A 5       4  X_._._._._.`._._._._._.`._._._._._._._._._.`._._._._._.`._._._._._._._._._._.`._._._._._._._.8X",
"_._._._._._._._._._._._._._._._._._._._._._._._.`.'       . l S D A A A G A J 5       2 }._._._._._._._._._._._._._._._._._._._._._._._._._._._._._._._._._._.XX_._._._._._._._._._._.8X",
"_._._._.oX_._._._._._._.oX_._._.(.oX_._._._.oX(.`.]         f U U I K A G A J 7   O   2 }._._._._._._._._.oX_._._._._._._.oX_._._._._._._._._._._._._._.(.oX(.oX_._._.XX_._._._._._._.8X",
"_._._._._._._._._._._._._._._._.oX(.oX_._._._._.oXX.u y u y f g g g k S P A J 7       2 }._._._._._._._._._._._._._._._._._._._._._._._._._._._._._._._.oX_.oX(._._._.oX_._._._._._.(.8X",
"(.oX_._._._._._._._._._._._._._.(.oX_._._._._._._.oXoXoXoX@Xk   .   & G G P K 7       2 }._._._._._._._._._._._._._._._._._._._._._._._._._._._._._._._._._._._._._.oX(._._._._._._._.8X",
"oX_._._._._._._._._._._._._._._._.XX_._._._._._._._._._.XXOXy   O   & F A A K 8   .   6 }._._._._._._._._._._._._._._._._._._._._._._._._._._._._._._._._._._._._._.(.oX(.oX_._._._._.8X",
"(.oX_._._._._._._._.(.oX(.oX_._._._._._._._._._._._._._.(.OXi   .   > H D A H 7   .   2 [._._._._._._._._._._._._._.(.oX(.oX_._._._._._._._._._._._._._._._._._._._._._._._._._._._.(.8X",
"_.XX_._._.oX_._.(.oXoXXX_.XX_._._._._._._._.oX_._._._._._.oXa   .   & H K G E 7       2 }._._.oX_._._._.oX_._._._.oXoX_._.XX_._._._._._._.oXoX_._.oX_._.(.oX_.XX_._.oX_.oX_._._._._._.8X",
").).(.(.(.(.(.(.(.).).).).).(.(.(.(.(.(.).).)._.(.(.'.'.'._. ./ ` ` _ 4 < < 1 o       , /.).).)._.'.'.).).(.(.(.(.(.(.).).).(.(._.'.'.).(.(.).(.(.(.(.(.(.).).(.(.(.).(.(.).(.(.(.(.).8X",
"#X#X#X#X#X#X#X#X&X#X#X#X#X#X#X#X#X#X#X#X#X#X#X#X#X#X#X#X#X#X#X#X&X&X%Xw 2 3 4 3 3 3 , a %X#X#X#X#X#X#X#X#X#X#X#X#X#X#X#X#X#X#X#X#X#X#X#X#X#X#X#X#X#X#X#X&X#X#X#X#X#X#X#X#X#X#X#X#X#X#X9X",
"qXqXqXqXqXqXqXqXqXqXqXqXqXqXqXqXqXqXqXqXqXqXqXqXqXqXqXqXqXqXqXqXqXqXqX0X0X0X0X0X0X0X0X0XqXqXqXqXqXqXqXqXqXqXqXqXqXqXqXqXqXqXqXqXqXqXqXqXqXqXqXqXqXqXqXqXqXqXqXqXqXqXqXqXqXqXqXqXqXqXqXqX"
};
