/* XPM */
static char * adjust_fan_power_button_800_600_xpm[] = {
"10 21 4 1",
" 	c #FAFAFA",
".	c #FBFBFB",
"+	c #F9F9F9",
"@	c #F8F8F8",
"  .+ .    ",
"+  +      ",
"     +   .",
" @    . + ",
"++   ++.+ ",
"  +       ",
"+  +    . ",
"          ",
"         +",
".    .   .",
" + +      ",
".+     .  ",
"  ++      ",
" + +      ",
"  ++      ",
"+ +       ",
"+   .  + .",
"   ++ .   ",
"  +     + ",
" +   + ++ ",
"+ + .     "};
