/* XPM */
static char * cam_800_600_xpm[] = {
"21 21 99 2",
"  	c #000000",
". 	c #0B0B0B",
"+ 	c #989898",
"@ 	c #C6C6C6",
"# 	c #C4C4C4",
"$ 	c #A4A4A4",
"% 	c #090909",
"& 	c #C5C5C5",
"* 	c #FEFEFE",
"= 	c #D3D3D3",
"- 	c #0A0A0A",
"; 	c #FFFFFF",
"> 	c #FBFBFB",
", 	c #DBDBDB",
"' 	c #D6D6D6",
") 	c #DCDCDC",
"! 	c #D4D4D4",
"~ 	c #F6F6F6",
"{ 	c #F3F3F3",
"] 	c #F7F7F7",
"^ 	c #A5A5A5",
"/ 	c #4A4A4A",
"( 	c #505050",
"_ 	c #4F4F4F",
": 	c #494949",
"< 	c #AEAEAE",
"[ 	c #FCFCFC",
"} 	c #F8F8F8",
"| 	c #929292",
"1 	c #161616",
"2 	c #060606",
"3 	c #2E2E2E",
"4 	c #CACACA",
"5 	c #EDEDED",
"6 	c #EEEEEE",
"7 	c #C3C3C3",
"8 	c #292929",
"9 	c #080808",
"0 	c #050505",
"a 	c #151515",
"b 	c #999999",
"c 	c #F9F9F9",
"d 	c #C9C9C9",
"e 	c #E7E7E7",
"f 	c #252525",
"g 	c #DADADA",
"h 	c #E3E3E3",
"i 	c #E5E5E5",
"j 	c #FAFAFA",
"k 	c #E4E4E4",
"l 	c #D9D9D9",
"m 	c #1B1B1B",
"n 	c #343434",
"o 	c #535353",
"p 	c #E8E8E8",
"q 	c #7F7F7F",
"r 	c #464646",
"s 	c #858585",
"t 	c #E1E1E1",
"u 	c #FDFDFD",
"v 	c #F2F2F2",
"w 	c #272727",
"x 	c #313131",
"y 	c #F0F0F0",
"z 	c #D0D0D0",
"A 	c #3D3D3D",
"B 	c #A6A6A6",
"C 	c #D2D2D2",
"D 	c #9E9E9E",
"E 	c #474747",
"F 	c #E6E6E6",
"G 	c #7D7D7D",
"H 	c #969696",
"I 	c #888888",
"J 	c #444444",
"K 	c #C7C7C7",
"L 	c #262626",
"M 	c #8F8F8F",
"N 	c #E0E0E0",
"O 	c #454545",
"P 	c #979797",
"Q 	c #E9E9E9",
"R 	c #878787",
"S 	c #8E8E8E",
"T 	c #282828",
"U 	c #202020",
"V 	c #D8D8D8",
"W 	c #E2E2E2",
"X 	c #1E1E1E",
"Y 	c #131313",
"Z 	c #171717",
"` 	c #222222",
" .	c #A2A2A2",
"..	c #D5D5D5",
"+.	c #B0B0B0",
"@.	c #0D0D0D",
"#.	c #101010",
"$.	c #141414",
"%.	c #111111",
"                                        . ",
"  + @ # # # # # # # # # # # # # # # # $ % ",
"  & * * * * * * * * * * * * * * * * * = - ",
"  @ * * ; ; ; > , ' ' ' ) > ; ; ; * ; ! % ",
"  @ * > ~ { ] ^ / ( _ ( : < ] { ~ [ ; ! % ",
"  & } | 1 2 % 3 4 5 5 6 7 8 9 0 a b c ! % ",
"  d e f g h i e j * * * c e i k l m 6 ! % ",
"  4 k n 5 o p [ ) q r s t u ; u v w 5 ! % ",
"  4 k x y z ~ ) A B C D E F * u v f 5 ! % ",
"  4 h x v [ * G B > u c H I * [ v f 5 ! % ",
"  4 h x v [ * J ! ; * * K ( * [ v L 5 ! % ",
"  4 h x v [ * s D j [ c M M * [ v f 5 ! % ",
"  4 h x v u * N O P K M _ Q * u v f 5 ! % ",
"  4 h n { u ; u i R ( S p u ; u v T 5 ! % ",
"  d e U V W h h h h h h h h h h V m 6 ! % ",
"  & } + X 1 Y a a Y Y Y a a a Z `  .j ! % ",
"  @ * > c c c c c c c c c c c c c [ ; ! % ",
"  @ * * ; ; ; ; ; ; ; ; ; ; ; ; ; * ; ! % ",
"  @ * * ; ; ; ; ; ; ; ; ; ; ; ; ; * ; ! % ",
"  $ ! ! ..........................! ..+.- ",
"@.#.$.Y Y Y Y Y Y Y Y Y Y Y Y Y Y Y Y %.Z "};
