/* XPM */
static char * db_800_600_xpm[] = {
"16 16 129 2",
"  	c #FEFEFE",
". 	c #FEFDFE",
"+ 	c #FDFEFE",
"@ 	c #FFFFFF",
"# 	c #FDFDFD",
"$ 	c #DBDFE5",
"% 	c #C3CAD4",
"& 	c #CCD2DB",
"* 	c #F9F9FA",
"= 	c #D2D7DF",
"- 	c #CFD5DD",
"; 	c #CFD4DD",
"> 	c #EDEFF2",
", 	c #FCFCFC",
"' 	c #FCFCFD",
") 	c #9EA6B4",
"! 	c #334C72",
"~ 	c #5C6E8B",
"{ 	c #EFF0F2",
"] 	c #425B7D",
"^ 	c #375075",
"/ 	c #344E73",
"( 	c #4A6081",
"_ 	c #D2D5DD",
": 	c #E7EAEE",
"< 	c #A9B1BF",
"[ 	c #B1B9C6",
"} 	c #8F9AAC",
"| 	c #3A5377",
"1 	c #62748F",
"2 	c #475F81",
"3 	c #6E7E97",
"4 	c #526685",
"5 	c #334E73",
"6 	c #718199",
"7 	c #FEFEFF",
"8 	c #F2F3F5",
"9 	c #5E6F8B",
"0 	c #324C71",
"a 	c #304B71",
"b 	c #3B5478",
"c 	c #3B5477",
"d 	c #61738F",
"e 	c #395175",
"f 	c #C4C9D2",
"g 	c #939FB1",
"h 	c #596C89",
"i 	c #FAFBFB",
"j 	c #C9CFD8",
"k 	c #384F73",
"l 	c #365075",
"m 	c #96A0B3",
"n 	c #6D7B93",
"o 	c #3C5478",
"p 	c #919DB0",
"q 	c #5D6F8B",
"r 	c #FBFCFC",
"s 	c #C3C9D3",
"t 	c #374F73",
"u 	c #324F75",
"v 	c #E1E5EA",
"w 	c #A5ACB8",
"x 	c #465F80",
"y 	c #395376",
"z 	c #73839B",
"A 	c #3A5276",
"B 	c #A8B1BF",
"C 	c #C2C8D2",
"D 	c #334F75",
"E 	c #E1E4E9",
"F 	c #465E80",
"G 	c #324C72",
"H 	c #415A7C",
"I 	c #CED3DB",
"J 	c #E2E4E9",
"K 	c #395276",
"L 	c #96A1B2",
"M 	c #76859C",
"N 	c #314C71",
"O 	c #FEFFFF",
"P 	c #C1C7D1",
"Q 	c #C3C8D1",
"R 	c #AFB8C6",
"S 	c #2E4A70",
"T 	c #4C607F",
"U 	c #EAEDF0",
"V 	c #C0C6D0",
"W 	c #B1BAC7",
"X 	c #4B5F7F",
"Y 	c #E8EBEF",
"Z 	c #314D74",
"` 	c #CED4DC",
" .	c #99A2B0",
"..	c #A6AFBE",
"+.	c #8491A6",
"@.	c #334D72",
"#.	c #546785",
"$.	c #F6F7F8",
"%.	c #D4D9E0",
"&.	c #3C5275",
"*.	c #4A6082",
"=.	c #42597C",
"-.	c #3B5378",
";.	c #60728E",
">.	c #455D80",
",.	c #3A5277",
"'.	c #385176",
").	c #354F74",
"!.	c #324D72",
"~.	c #8B98AB",
"{.	c #FAFAFB",
"].	c #919CAE",
"^.	c #5B6D8A",
"/.	c #7D8BA0",
"(.	c #425A7C",
"_.	c #677993",
":.	c #EFF1F3",
"<.	c #4E6585",
"[.	c #435B7D",
"}.	c #475E7F",
"|.	c #7C8AA0",
"1.	c #EAECEF",
"2.	c #E6E9ED",
"3.	c #F3F5F6",
"4.	c #F9F9FB",
"5.	c #F5F5F8",
"6.	c #F6F6F8",
"7.	c #F5F6F8",
"8.	c #FEFEFD",
"          .       + +         @ ",
"# # # # $ % & * = - ; = > # , @ ",
"# # # ' ) ! ~ { ] ^ / ^ ( _     ",
"  : < [ } | 1 { 2 | 3 4 5 6   7 ",
"8 9 0 a b c d { 2 e f g a h i   ",
"j k l m n o d { 2 e f p a q r   ",
"s t u v w | d { x y z 4 A B @ 7 ",
"C t D E w | d { F b G l H I   7 ",
"C t D J w | d { 2 K L M N 1 ' O ",
"P t D J w | d { 2 e Q R S T U   ",
"V t u J w | d { 2 e Q W S X Y   ",
"s t Z `  .c d { 2 e ..+.@.#.$.  ",
"%.&.K *.=.-.;.{ >.,.'.).!.~.@   ",
"{.].| ^./.(._.:.<.[.] }.|.1.# @ ",
"# ' 2.3.4.5.6., 7.5.5.$.# # # @ ",
"# # # # #   8.# 8.      # # # @ "};
