/* XPM */
static char * degrees_celsius_800_600_xpm[] = {
"16 16 133 2",
"  	c #FEFEFE",
". 	c #FEFEFF",
"+ 	c #FFFFFF",
"@ 	c #FDFDFD",
"# 	c #FAFAFB",
"$ 	c #B1B8C5",
"% 	c #667893",
"& 	c #71819A",
"* 	c #CDD2DA",
"= 	c #FCFCFD",
"- 	c #FCFDFD",
"; 	c #FEFDFD",
"> 	c #C2C8D1",
", 	c #304C72",
"' 	c #5A6E8B",
") 	c #506483",
"! 	c #4C5F7E",
"~ 	c #DEE1E6",
"{ 	c #FBFBFC",
"] 	c #F4F5F7",
"^ 	c #CAD0D9",
"/ 	c #C1C8D2",
"( 	c #E2E5EB",
"_ 	c #FFFEFF",
": 	c #8C99AD",
"< 	c #22426B",
"[ 	c #B3BCCA",
"} 	c #9DA5B3",
"| 	c #3B5376",
"1 	c #C9CED5",
"2 	c #EEF0F3",
"3 	c #6E7E96",
"4 	c #354E74",
"5 	c #314B71",
"6 	c #40577A",
"7 	c #B5BCC8",
"8 	c #FCFCFC",
"9 	c #8795AA",
"0 	c #23436C",
"a 	c #B5BECA",
"b 	c #9EA5B3",
"c 	c #395275",
"d 	c #CACFD6",
"e 	c #A0AABA",
"f 	c #2E4B71",
"g 	c #3C5578",
"h 	c #445C7E",
"i 	c #3A5377",
"j 	c #4A5F80",
"k 	c #EEEFF1",
"l 	c #22436C",
"m 	c #9EA5B4",
"n 	c #3A5276",
"o 	c #C7CCD3",
"p 	c #728199",
"q 	c #79889F",
"r 	c #D0D4DB",
"s 	c #3F5578",
"t 	c #335076",
"u 	c #E0E3E7",
"v 	c #8895AA",
"w 	c #24436C",
"x 	c #B4BDCA",
"y 	c #3A5376",
"z 	c #C4CAD2",
"A 	c #687891",
"B 	c #8592A8",
"C 	c #D7DBE1",
"D 	c #3F5577",
"E 	c #304D74",
"F 	c #DDE0E5",
"G 	c #FEFFFE",
"H 	c #909DB1",
"I 	c #25436C",
"J 	c #A5B0C0",
"K 	c #919BAB",
"L 	c #C9CED7",
"M 	c #687791",
"N 	c #314B72",
"O 	c #8593A7",
"P 	c #E3E6EA",
"Q 	c #929AAA",
"R 	c #8F98A9",
"S 	c #E7E9EC",
"T 	c #D1D6DC",
"U 	c #324D73",
"V 	c #445A7B",
"W 	c #3E5577",
"X 	c #566784",
"Y 	c #E8EBEF",
"Z 	c #697790",
"` 	c #314C72",
" .	c #8694A9",
"..	c #FBFCFC",
"+.	c #C8CDD6",
"@.	c #9CA5B4",
"#.	c #A1AAB8",
"$.	c #DCE0E6",
"%.	c #677791",
"&.	c #314C71",
"*.	c #8593A8",
"=.	c #F6F7F8",
"-.	c #DBDEE3",
";.	c #DCDFE3",
">.	c #F4F5F6",
",.	c #8492A7",
"'.	c #415879",
").	c #345177",
"!.	c #D8DBE2",
"~.	c #415778",
"{.	c #345076",
"].	c #D8DCE2",
"^.	c #6F7F97",
"/.	c #334D73",
"(.	c #697A94",
"_.	c #B1B9C5",
":.	c #3C5477",
"<.	c #DFE2E6",
"[.	c #A9B2C0",
"}.	c #2F4B72",
"|.	c #385276",
"1.	c #375175",
"2.	c #3A5277",
"3.	c #576A87",
"4.	c #F2F3F5",
"5.	c #99A3B3",
"6.	c #435A7D",
"7.	c #3D5679",
"8.	c #576B89",
"9.	c #EDEFF2",
"0.	c #E5E7EC",
"a.	c #F9F9FA",
"b.	c #FDFDFE",
"    . + + +                   + ",
"@ # $ % & * = @ @ - = ; @ @ @ + ",
"  > , ' ) ! ~ { ] ^ / (   @ @ + ",
"_ : < [ } | 1 2 3 4 5 6 7 8 @ + ",
"+ 9 0 a b c d e f g h i j k @ + ",
"+ 9 l a m n o p 5 q r s t u   . ",
"+ v w x } y z A 5 B C D E F     ",
"G H I J K | L M N O P Q R S   + ",
"  T U V W X Y Z `  .+ - @ @ @ + ",
"8 ..+.@.#.$.- %.&.*.=.-.;.>.@ + ",
"@ @ @   ; @ ..M ` ,.C '.).!.    ",
"@ @ @ @ @ = = M &.,.!.~.{.].    ",
"@ @ @ @ @ - @ ^./.(._.:.t <.  . ",
"@ @ @ @ @ @ + [.}.|.1.2.3.4.@ + ",
"@ @ @ @ @ @ @ ] 5.6.7.8.L { @ + ",
"@ @ @ @ @ @ @ 8   9.0.a.b.@ @ + "};
