/* XPM */
static char * fan_800_600_xpm[] = {
"21 21 104 2",
"  	c #000000",
". 	c #5C5C5C",
"+ 	c #1B1B1B",
"@ 	c #AEAEAE",
"# 	c #C3C3C3",
"$ 	c #C4C4C4",
"% 	c #C8C8C8",
"& 	c #848484",
"* 	c #595959",
"= 	c #272727",
"- 	c #D8D8D8",
"; 	c #FCFCFC",
"> 	c #FEFEFE",
", 	c #FDFDFD",
"' 	c #ADADAD",
") 	c #585858",
"! 	c #FFFFFF",
"~ 	c #ACACAC",
"{ 	c #EBEBEB",
"] 	c #CCCCCC",
"^ 	c #B2B2B2",
"/ 	c #C1C1C1",
"( 	c #E1E1E1",
"_ 	c #CDCDCD",
": 	c #959595",
"< 	c #D6D6D6",
"[ 	c #E9E9E9",
"} 	c #EAEAEA",
"| 	c #A9A9A9",
"1 	c #D9D9D9",
"2 	c #797979",
"3 	c #B6B6B6",
"4 	c #F9F9F9",
"5 	c #FBFBFB",
"6 	c #E5E5E5",
"7 	c #AAAAAA",
"8 	c #B0B0B0",
"9 	c #9B9B9B",
"0 	c #6D6D6D",
"a 	c #2B2B2B",
"b 	c #D0D0D0",
"c 	c #FAFAFA",
"d 	c #BFBFBF",
"e 	c #424242",
"f 	c #121212",
"g 	c #787878",
"h 	c #929292",
"i 	c #E3E3E3",
"j 	c #E2E2E2",
"k 	c #9F9F9F",
"l 	c #6A6A6A",
"m 	c #080808",
"n 	c #3D3D3D",
"o 	c #C7C7C7",
"p 	c #7C7C7C",
"q 	c #111111",
"r 	c #141414",
"s 	c #707070",
"t 	c #C5C5C5",
"u 	c #BCBCBC",
"v 	c #9D9D9D",
"w 	c #242424",
"x 	c #383838",
"y 	c #BABABA",
"z 	c #F8F8F8",
"A 	c #898989",
"B 	c #828282",
"C 	c #404040",
"D 	c #B7B7B7",
"E 	c #B3B3B3",
"F 	c #ECECEC",
"G 	c #A7A7A7",
"H 	c #262626",
"I 	c #3F3F3F",
"J 	c #EFEFEF",
"K 	c #CACACA",
"L 	c #A6A6A6",
"M 	c #E4E4E4",
"N 	c #010101",
"O 	c #3B3B3B",
"P 	c #E7E7E7",
"Q 	c #909090",
"R 	c #8F8F8F",
"S 	c #B4B4B4",
"T 	c #222222",
"U 	c #303030",
"V 	c #9E9E9E",
"W 	c #F0F0F0",
"X 	c #CBCBCB",
"Y 	c #A5A5A5",
"Z 	c #8D8D8D",
"` 	c #6F6F6F",
" .	c #858585",
"..	c #A2A2A2",
"+.	c #D1D1D1",
"@.	c #1F1F1F",
"#.	c #D3D3D3",
"$.	c #D5D5D5",
"%.	c #D4D4D4",
"&.	c #0D0D0D",
"*.	c #131313",
"=.	c #151515",
"-.	c #060606",
";.	c #626262",
"                                        . ",
"+ @ # $ $ $ $ $ $ $ $ $ $ $ $ $ $ # % & * ",
"= - ; > > > > > > > > > > > > > > , ; ' ) ",
"= - , ! ! ! ! ! ! ! > ! ! ! ! ! ! > , ~ ) ",
"= - , ! ! ! ! > > , ; > > ! ! ! ! > , ~ ) ",
"= - , ! ! ! ! { ] ^ @ / ( ; > ! ! > , ~ ) ",
"= - , ! ! ! _ : < [ } ( | @ > ! ! > , ~ ) ",
"= - , ! , 1 2 3 4 , 5 [ 6 7 8 5 ! > , ~ ) ",
"= - , > 5 9 0 a b c d e f g h i > > , ~ ) ",
"= - , ! j k l m n o p q q r s t , , , ~ ) ",
"= - , ! ] u v   w e x & 8 u d ^ ; , , ~ ) ",
"= - , ! b y z ~ A B C D ; , } E ; , , ~ ) ",
"= - , ! F G 5 > ! 9 H I J ! < K > > , ~ ) ",
"= - , > ; L M > 4 . N O P c Q } > > , ~ ) ",
"= - , ! > [ R M S T U V W V X ! ! > , ~ ) ",
"= - , ! ! ! [ Y Z `  .S ..- ! ! ! > , ~ ) ",
"= - , ! ! ! > ; } +.] j 5 > ! ! ! > , ~ ) ",
"= - , ! ! ! ! > ! ! ! ! > ! ! ! ! > , ~ ) ",
"= - , ! ! ! ! ! ! ! ! ! ! ! ! ! ! > , ~ ) ",
"@.S #.$.$.$.$.$.$.$.$.$.$.$.$.$.$.%.#.R * ",
"&.*.*.*.*.*.*.*.*.*.*.*.*.*.*.*.*.*.=.-.;."};
