/* XPM */
static char * horn_800_600_xpm[] = {
"21 21 74 1",
" 	c #000000",
".	c #0B0B0B",
"+	c #989898",
"@	c #C6C6C6",
"#	c #C4C4C4",
"$	c #A4A4A4",
"%	c #090909",
"&	c #C5C5C5",
"*	c #FEFEFE",
"=	c #D3D3D3",
"-	c #0A0A0A",
";	c #FFFFFF",
">	c #D4D4D4",
",	c #FCFCFC",
"'	c #B4B4B4",
")	c #CFCFCF",
"!	c #E0E0E0",
"~	c #555555",
"{	c #ADADAD",
"]	c #F1F1F1",
"^	c #C9C9C9",
"/	c #ECECEC",
"(	c #F4F4F4",
"_	c #BBBBBB",
":	c #5F5F5F",
"<	c #AEAEAE",
"[	c #585858",
"}	c #616161",
"|	c #E4E4E4",
"1	c #DBDBDB",
"2	c #C7C7C7",
"3	c #909090",
"4	c #4B4B4B",
"5	c #1B1B1B",
"6	c #020202",
"7	c #A8A8A8",
"8	c #797979",
"9	c #EAEAEA",
"0	c #767676",
"a	c #B2B2B2",
"b	c #454545",
"c	c #BEBEBE",
"d	c #595959",
"e	c #515151",
"f	c #666666",
"g	c #363636",
"h	c #1E1E1E",
"i	c #010101",
"j	c #FDFDFD",
"k	c #A2A2A2",
"l	c #606060",
"m	c #9E9E9E",
"n	c #F3F3F3",
"o	c #E6E6E6",
"p	c #838383",
"q	c #181818",
"r	c #FBFBFB",
"s	c #EFEFEF",
"t	c #FAFAFA",
"u	c #F6F6F6",
"v	c #CACACA",
"w	c #353535",
"x	c #E1E1E1",
"y	c #4A4A4A",
"z	c #B1B1B1",
"A	c #DFDFDF",
"B	c #D5D5D5",
"C	c #B0B0B0",
"D	c #0D0D0D",
"E	c #101010",
"F	c #141414",
"G	c #131313",
"H	c #111111",
"I	c #171717",
"                    .",
" +@################$%",
" &*****************=-",
" @**;;;;;;;;;;;;;*;>%",
" @**;;;;;;;;;;;;;*;>%",
" @**;;;;;;;;;;;*;*;>%",
" @**;;;;;;;;;*,');;>%",
" @**;;*;;;;***!~{*;>%",
" @**;]^/;;;;(_: <*;>%",
" @**(:[}|123456 <*;>%",
" @**7890ab      <*;>%",
" @**cd)ecfgh6ii <*;>%",
" @**jklm]nocpq  <*;>%",
" @**;rst;;**uvw <*;>%",
" @**;*j*;;;;**xyz*;>%",
" @**;;;;;;;;;*jA/;;>%",
" @**;;;;;;;;;;;;;*;>%",
" @**;;;;;;;;;;;;;*;>%",
" @**;;;;;;;;;;;;;*;>%",
" $>>BBBBBBBBBBBBB>BC-",
"DEFGGGGGGGGGGGGGGGGHI"};
