/* XPM */
static char * humidity_and_temperature_800_600_xpm[] = {
"42 21 178 2",
"  	c #000000",
". 	c #0B0B0B",
"+ 	c #989898",
"@ 	c #C6C6C6",
"# 	c #C4C4C4",
"$ 	c #C9C9C9",
"% 	c #C8C8C8",
"& 	c #BDBDBD",
"* 	c #AEAEAE",
"= 	c #C3C3C3",
"- 	c #C2C2C2",
"; 	c #B2B2B2",
"> 	c #222222",
", 	c #C5C5C5",
"' 	c #FEFEFE",
") 	c #F8F8F8",
"! 	c #919191",
"~ 	c #929292",
"{ 	c #F6F6F6",
"] 	c #FDFDFD",
"^ 	c #CFCFCF",
"/ 	c #747474",
"( 	c #808080",
"_ 	c #8A8A8A",
": 	c #F0F0F0",
"< 	c #F7F7F7",
"[ 	c #F5F5F5",
"} 	c #FBFBFB",
"| 	c #DADADA",
"1 	c #303030",
"2 	c #FFFFFF",
"3 	c #FAFAFA",
"4 	c #A2A2A2",
"5 	c #A0A0A0",
"6 	c #EDEDED",
"7 	c #757575",
"8 	c #DBDBDB",
"9 	c #F1F1F1",
"0 	c #B3B3B3",
"a 	c #AAAAAA",
"b 	c #7C7C7C",
"c 	c #A1A1A1",
"d 	c #FCFCFC",
"e 	c #2F2F2F",
"f 	c #F4F4F4",
"g 	c #D0D0D0",
"h 	c #2D2D2D",
"i 	c #6E6E6E",
"j 	c #7D7D7D",
"k 	c #2E2E2E",
"l 	c #DEDEDE",
"m 	c #797979",
"n 	c #E8E8E8",
"o 	c #999999",
"p 	c #ECECEC",
"q 	c #969696",
"r 	c #F3F3F3",
"s 	c #EBEBEB",
"t 	c #585858",
"u 	c #595959",
"v 	c #D4D4D4",
"w 	c #525252",
"x 	c #444444",
"y 	c #CBCBCB",
"z 	c #898989",
"A 	c #424242",
"B 	c #555555",
"C 	c #787878",
"D 	c #E6E6E6",
"E 	c #888888",
"F 	c #A7A7A7",
"G 	c #7E7E7E",
"H 	c #EEEEEE",
"I 	c #F2F2F2",
"J 	c #111111",
"K 	c #141414",
"L 	c #404040",
"M 	c #040404",
"N 	c #C7C7C7",
"O 	c #8F8F8F",
"P 	c #0E0E0E",
"Q 	c #959595",
"R 	c #E9E9E9",
"S 	c #A8A8A8",
"T 	c #B7B7B7",
"U 	c #1F1F1F",
"V 	c #636363",
"W 	c #EFEFEF",
"X 	c #E2E2E2",
"Y 	c #6F6F6F",
"Z 	c #626262",
"` 	c #3C3C3C",
" .	c #9C9C9C",
"..	c #696969",
"+.	c #939393",
"@.	c #CACACA",
"#.	c #2A2A2A",
"$.	c #101010",
"%.	c #818181",
"&.	c #868686",
"*.	c #212121",
"=.	c #CECECE",
"-.	c #E4E4E4",
";.	c #EAEAEA",
">.	c #323232",
",.	c #515151",
"'.	c #4B4B4B",
").	c #E0E0E0",
"!.	c #4D4D4D",
"~.	c #414141",
"{.	c #ACACAC",
"].	c #D7D7D7",
"^.	c #9D9D9D",
"/.	c #7A7A7A",
"(.	c #CDCDCD",
"_.	c #D2D2D2",
":.	c #CCCCCC",
"<.	c #1B1B1B",
"[.	c #9B9B9B",
"}.	c #434343",
"|.	c #5B5B5B",
"1.	c #D9D9D9",
"2.	c #D3D3D3",
"3.	c #292929",
"4.	c #646464",
"5.	c #343434",
"6.	c #363636",
"7.	c #383838",
"8.	c #9F9F9F",
"9.	c #737373",
"0.	c #949494",
"a.	c #A9A9A9",
"b.	c #BABABA",
"c.	c #C1C1C1",
"d.	c #828282",
"e.	c #060606",
"f.	c #505050",
"g.	c #8C8C8C",
"h.	c #E7E7E7",
"i.	c #5E5E5E",
"j.	c #0F0F0F",
"k.	c #767676",
"l.	c #010101",
"m.	c #BBBBBB",
"n.	c #777777",
"o.	c #E3E3E3",
"p.	c #BEBEBE",
"q.	c #B6B6B6",
"r.	c #A3A3A3",
"s.	c #707070",
"t.	c #1A1A1A",
"u.	c #D1D1D1",
"v.	c #1C1C1C",
"w.	c #6D6D6D",
"x.	c #A5A5A5",
"y.	c #5A5A5A",
"z.	c #B9B9B9",
"A.	c #353535",
"B.	c #4F4F4F",
"C.	c #282828",
"D.	c #878787",
"E.	c #616161",
"F.	c #474747",
"G.	c #ABABAB",
"H.	c #DDDDDD",
"I.	c #B5B5B5",
"J.	c #848484",
"K.	c #ADADAD",
"L.	c #BCBCBC",
"M.	c #DFDFDF",
"N.	c #A4A4A4",
"O.	c #D5D5D5",
"P.	c #D6D6D6",
"Q.	c #272727",
"R.	c #0D0D0D",
"S.	c #131313",
"T.	c #121212",
"U.	c #171717",
"                                                                                  . ",
"  + @ # # # # # # # # # # # $ % # # # # # # # # # # # $ & * % @ = - = # # # # = ; > ",
"  , ' ' ' ' ' ' ' ' ' ' ' ) ! ~ { ' ' ' ' ' ' ' ' ' ] ^ / ( _ : < [ < ' ' ' ' } | 1 ",
"  @ ' ' 2 2 2 2 2 2 2 ' 3 4     5 3 ' 2 2 2 2 2 2 ] 6 7 8 9 0 0 a b c ' 2 2 2 d | e ",
"  @ ' ' 2 2 2 2 2 f 9 ' g h i j k $ ' 2 2 2 2 2 2 ] l m n o p q p p r 2 2 2 2 d | e ",
"  @ ' ' 2 2 2 ' s t u v w x y z A B 6 ' 2 2 2 2 2 ] l C D E 6 q F G H 2 2 2 2 d | e ",
"  @ ' ' ' ] ' I G J K L M N r ( O P + 2 2 2 2 2 2 ] l C D z H Q R n } 2 2 2 2 d | e ",
"  @ ' 3 ~ z f S   o T U V W d X Y Z ` 6 ' 2 2 2 2 ] l C D z H Q  ...+.' 2 2 2 d | e ",
"  @ ' @.#.$.+.K %.f { &.*.# ' ' 8 * h =.] 2 2 2 2 ] l C D z H Q R -.;.2 2 2 2 d | e ",
"  , f Y >.,.M '.).] 2 f !.~.r ' d {.k ].] 2 2 2 2 ] l C D z H Q ^./.p 2 2 2 2 d | e ",
"  (._.  S :.<._ 2 ' 2 ] @ > [.3 y }.|.< 2 2 2 2 2 ] l C D z H Q R 1.H 2 2 2 2 d | e ",
"  2.~ 3.6 H 4.7 [ ] 2 ' 9 / 5...6.7.8 2 2 2 2 2 2 ] l /.D z H q 8.9.0.' 2 2 2 d | e ",
"  _.a.  b.c.~.d.3 ' ' } + + e.f.Q | ' 2 2 2 2 2 2 d N g.h.z W m H H f 2 2 2 2 d | e ",
"  N p i.j.<.6.| 2 2 ' 3 k.a l.m.3 ' 2 2 2 2 2 2 ' 3 n.o.p.t h.q.c 2 ' 2 2 2 2 d | e ",
"  @ ' p r.  c ' ' 2 2 n s.+ t.u.' 2 2 2 2 2 2 2 2 - a._.v.  w.h.k.< ' 2 2 2 2 d | e ",
"  @ ' ] 3 V ` 8 2 n x.u.p.y.|.;.] 2 2 2 2 2 2 2 2 ; * z.l.  B D C : ' 2 2 2 2 d | e ",
"  @ ' ' ' v A.B.$ X * (.t C.z.' 2 2 2 2 2 2 2 2 2 n D.I D.E.b.=.d.2 2 2 2 2 2 d | e ",
"  @ ' 2 2 ] % F.  1 ~.  L & 2 2 2 2 2 2 2 2 2 2 ' ] G.F l n y ( H.2 2 2 2 2 2 d | e ",
"  @ ' ' 2 2 ] H I.&.J.K.p ] 2 2 2 2 2 2 2 2 2 2 2 2 } L.G ( g.M.] 2 2 2 2 2 2 d | e ",
"  N.v v O.O.O.O.O.P.P.P.O.O.O.O.O.O.O.O.O.O.O.O.O.O.O.O.P.P.P.O.O.O.O.O.O.O.O._.q.Q.",
"R.$.K S.S.S.S.S.J $.$.$.S.S.S.S.S.S.S.S.S.S.S.S.S.S.S.J T.S.J T.S.S.S.S.S.S.S.S.S.U."};
