/* XPM */
static char * light_800_600_xpm[] = {
"35 21 25 1",
" 	c #363636",
".	c #787878",
"+	c #777777",
"@	c #666666",
"#	c #0C0C0C",
"$	c #797979",
"%	c #F9F9F9",
"&	c #FAFAFA",
"*	c #D3D3D3",
"=	c #252525",
"-	c #7B7B7B",
";	c #FDFDFD",
">	c #FEFEFE",
",	c #FFFFFF",
"'	c #262626",
")	c #616161",
"!	c #CACACA",
"~	c #CBCBCB",
"{	c #A8A8A8",
"]	c #1C1C1C",
"^	c #060606",
"/	c #151515",
"(	c #141414",
"_	c #131313",
":	c #0E0E0E",
" .+++++++++++++++++++++++++++++++@#",
"$%&&&&&&&&&&&&&&&&&&&&&&&&&&&&&&%*=",
"-;>,,,,,,,,,,,,,,,,,,,,,,,,,,,,,;*'",
"-;>,,,,,,,,,,,,,,,,,,,,,,,,,,,,,;*'",
"-;>,,,,,,,,,,,,,,,,,,,,,,,,,,,,,;*'",
"-;>,,,,,,,,,,,,,,,,,,,,,,,,,,,,,;*'",
"-;>,,,,,,,,,,,,,,,,,,,,,,,,,,,,,;*'",
"-;>,,,,,,,,,,,,,,,,,,,,,,,,,,,,,;*'",
"-;>,,,,,,,,,,,,,,,,,,,,,,,,,,,,,;*'",
"-;>,,,,,,,,,,,,,,,,,,,,,,,,,,,,,;*'",
"-;>,,,,,,,,,,,,,,,,,,,,,,,,,,,,,;*'",
"-;>,,,,,,,,,,,,,,,,,,,,,,,,,,,,,;*'",
"-;>,,,,,,,,,,,,,,,,,,,,,,,,,,,,,;*'",
"-;>,,,,,,,,,,,,,,,,,,,,,,,,,,,,,;*'",
"-;>,,,,,,,,,,,,,,,,,,,,,,,,,,,,,;*'",
"-;>,,,,,,,,,,,,,,,,,,,,,,,,,,,,,;*'",
"-;>,,,,,,,,,,,,,,,,,,,,,,,,,,,,,;*'",
"-;>,,,,,,,,,,,,,,,,,,,,,,,,,,,,,;*'",
"-;>,,,,,,,,,,,,,,,,,,,,,,,,,,,,,;*'",
")!!~~~~~~~~~~~~~~~~~~~~~~~~~~~~~!{]",
"^/(_______________________________:"};
