/* XPM */
static char * light_vertical_800_600_xpm[] = {
"21 35 27 1",
" 	c #696969",
".	c #676767",
"+	c #686868",
"@	c #6C6C6C",
"#	c #000000",
"$	c #616161",
"%	c #7F7F7F",
"&	c #7E7E7E",
"*	c #C3C3C3",
"=	c #FAFAFA",
"-	c #FBFBFB",
";	c #C4C4C4",
">	c #C5C5C5",
",	c #FEFEFE",
"'	c #FDFDFD",
")	c #C6C6C6",
"!	c #FFFFFF",
"~	c #C8C8C8",
"{	c #A7A7A7",
"]	c #D8D8D8",
"^	c #A9A9A9",
"/	c #030303",
"(	c #1D1D1D",
"_	c #292929",
":	c #282828",
"<	c #1E1E1E",
"[	c #0B0B0B",
" .+ ++++++  + +++  +@",
"#$%&&&&&&&&&&&&&&&%$#",
"#*==-------------==;#",
"#>,''''''''''''''',)#",
"#),,!!!!!!!!!!!!!,,~#",
"#),,!!!!!!!!!!!!!,,~#",
"#),,!!!!!!!!!!!!!,,~#",
"#),,!!!!!!!!!!!!!,,~#",
"#),,!!!!!!!!!!!!!,,~#",
"#),,!!!!!!!!!!!!!,,~#",
"#),,!!!!!!!!!!!!!,,~#",
"#),,!!!!!!!!!!!!!,,~#",
"#),,!!!!!!!!!!!!!,,~#",
"#),,!!!!!!!!!!!!!,,~#",
"#),,!!!!!!!!!!!!!,,~#",
"#),,!!!!!!!!!!!!!,,~#",
"#),,!!!!!!!!!!!!!,,~#",
"#),,!!!!!!!!!!!!!,,~#",
"#),,!!!!!!!!!!!!!,,~#",
"#),,!!!!!!!!!!!!!,,~#",
"#),,!!!!!!!!!!!!!,,~#",
"#),,!!!!!!!!!!!!!,,~#",
"#),,!!!!!!!!!!!!!,,~#",
"#),,!!!!!!!!!!!!!,,~#",
"#),,!!!!!!!!!!!!!,,~#",
"#),,!!!!!!!!!!!!!,,~#",
"#),,!!!!!!!!!!!!!,,~#",
"#),,!!!!!!!!!!!!!,,~#",
"#),,!!!!!!!!!!!!!,,~#",
"#),,!!!!!!!!!!!!!,,~#",
"#),,!!!!!!!!!!!!!,,~#",
"#),!!!!!!!!!!!!!!!,~#",
"#>,''''''''''''''',)#",
"#{]]]]]]]]]]]]]]]]]^#",
"/(_:::::::::::::::_<["};
