/* XPM */
static char * percentage_800_600_xpm[] = {
"16 16 157 2",
"  	c #FFFFFF",
". 	c #FEFEFE",
"+ 	c #FEFDFE",
"@ 	c #FDFDFD",
"# 	c #FDFDFE",
"$ 	c #F6F7F8",
"% 	c #FAFBFB",
"& 	c #FBFCFC",
"* 	c #CDD3DC",
"= 	c #C5CBD5",
"- 	c #EAECF0",
"; 	c #FDFEFE",
"> 	c #E1E3E8",
", 	c #72829A",
"' 	c #455C7E",
") 	c #586C8A",
"! 	c #BBC1CC",
"~ 	c #E8EAED",
"{ 	c #355076",
"] 	c #405476",
"^ 	c #D8DCE2",
"/ 	c #FBFBFC",
"( 	c #808CA0",
"_ 	c #3B5276",
": 	c #8592A6",
"< 	c #4D6182",
"[ 	c #395277",
"} 	c #DCE0E5",
"| 	c #ACB5C3",
"1 	c #2D4970",
"2 	c #697A93",
"3 	c #FAFBFC",
"4 	c #F0F1F3",
"5 	c #556987",
"6 	c #506280",
"7 	c #E3E6EB",
"8 	c #8391A6",
"9 	c #27456D",
"0 	c #AFB8C6",
"a 	c #FCFCFD",
"b 	c #707F98",
"c 	c #2C4970",
"d 	c #A4AEBE",
"e 	c #FEFFFF",
"f 	c #EFF1F3",
"g 	c #516685",
"h 	c #516381",
"i 	c #8492A7",
"j 	c #25446C",
"k 	c #A7B1C0",
"l 	c #DFE3E8",
"m 	c #4A5D7D",
"n 	c #385378",
"o 	c #E3E6EA",
"p 	c #F3F4F6",
"q 	c #D3D8DF",
"r 	c #DCE0E6",
"s 	c #516585",
"t 	c #25436C",
"u 	c #AAB3C2",
"v 	c #C5C9D2",
"w 	c #3A5276",
"x 	c #6E7E96",
"y 	c #D7DBE1",
"z 	c #344F74",
"A 	c #375175",
"B 	c #828FA4",
"C 	c #F5F6F7",
"D 	c #536786",
"E 	c #506380",
"F 	c #8493A8",
"G 	c #23426B",
"H 	c #ADB7C5",
"I 	c #9DA4B3",
"J 	c #395276",
"K 	c #A4ACB9",
"L 	c #728198",
"M 	c #2E4A72",
"N 	c #B0B7C4",
"O 	c #7F8BA0",
"P 	c #354E73",
"Q 	c #BDC3CD",
"R 	c #F3F5F6",
"S 	c #6F7D95",
"T 	c #3E5679",
"U 	c #949FB1",
"V 	c #2C4A71",
"W 	c #C3CAD4",
"X 	c #5C6F8B",
"Y 	c #3E5477",
"Z 	c #BDC5D0",
"` 	c #5F6E89",
" .	c #365378",
"..	c #B1B7C3",
"+.	c #365074",
"@.	c #A9B0BC",
"#.	c #C4C9D2",
"$.	c #42587B",
"%.	c #2D496F",
"&.	c #99A2B2",
"*.	c #C9CFD8",
"=.	c #2F4C73",
"-.	c #596985",
";.	c #E0E4E9",
">.	c #5D6D88",
",.	c #375379",
"'.	c #EFF0F2",
").	c #AFB6C2",
"!.	c #365075",
"~.	c #A7ADBA",
"{.	c #E4E6EB",
"].	c #BFC6D1",
"^.	c #CED3DC",
"/.	c #F9FAFB",
"(.	c #8A97AB",
"_.	c #2C486F",
":.	c #8593A7",
"<.	c #EEF1F3",
"[.	c #5B6C87",
"}.	c #AFB7C2",
"|.	c #FEFDFD",
"1.	c #FCFCFC",
"2.	c #EFF1F4",
"3.	c #586A87",
"4.	c #2F4B72",
"5.	c #F0F1F4",
"6.	c #5D6E89",
"7.	c #355177",
"8.	c #EDEFF1",
"9.	c #ACB3BF",
"0.	c #A9B0BD",
"a.	c #CDD2DA",
"b.	c #3D5376",
"c.	c #4D6383",
"d.	c #F3F4F5",
"e.	c #FCFDFD",
"f.	c #828EA3",
"g.	c #304B71",
"h.	c #687A94",
"i.	c #506585",
"j.	c #364F73",
"k.	c #C4CAD3",
"l.	c #41597C",
"m.	c #8D99AB",
"n.	c #FAFAFB",
"o.	c #E9EBEE",
"p.	c #6F7F97",
"q.	c #3B5478",
"r.	c #3F577B",
"s.	c #9EA8B8",
"t.	c #F8F8FA",
"u.	c #F6F8F9",
"v.	c #F5F6F8",
"w.	c #F9F9FB",
"x.	c #E2E6EA",
"y.	c #ECEEF1",
"z.	c #FEFEFD",
"  . . . . . . . . . + . . . . . ",
". @ # $ % . @ @ & * = - @ @ @ @ ",
"; > , ' ) ! @ @ ~ { ] ^ / @ @ @ ",
"$ ( _ : < [ }   | 1 2 3 @ @ @ @ ",
"4 5 6 7 8 9 0 a b c d e a @ @ @ ",
"f g h 7 i j k l m n o p q r & @ ",
"f s h 7 i t u v w x y g z A B C ",
"f D E 7 F G H I J K L M N O P Q ",
"R S T U D V W X Y Z `  .4 ..+.@.",
"# #.$.%.P &.*.=.-.;.>.,.'.).!.~.",
". . {.].^./.(._.:.<.[.,.'.}.!.~.",
". @ |.a 1.2.3.4.= 5.6.7.8.9.+.0.",
". @ @ @ / a.b.c.d.e.f.g.h.i.j.k.",
". @ @ @ a 9.l.m.n.1.o.p.q.r.s.t.",
". @ @ @ @ u.v.w.@ @ @ n.x.y.@ 1.",
". @ @ @ @ z.. @ @ @ @ @ @ @ @ @ "};
