/* XPM */
static char * sound_intensity_800_600_xpm[] = {
"21 21 86 1",
" 	c #000000",
".	c #0B0B0B",
"+	c #989898",
"@	c #C6C6C6",
"#	c #C4C4C4",
"$	c #A4A4A4",
"%	c #090909",
"&	c #C5C5C5",
"*	c #FEFEFE",
"=	c #D3D3D3",
"-	c #0A0A0A",
";	c #FFFFFF",
">	c #D4D4D4",
",	c #FDFDFD",
"'	c #FBFBFB",
")	c #F3F3F3",
"!	c #B8B8B8",
"~	c #F9F9F9",
"{	c #FAFAFA",
"]	c #E5E5E5",
"^	c #7A7A7A",
"/	c #111111",
"(	c #7C7C7C",
"_	c #F7F7F7",
":	c #9D9D9D",
"<	c #DADADA",
"[	c #CECECE",
"}	c #CCCCCC",
"|	c #303030",
"1	c #010101",
"2	c #F6F6F6",
"3	c #B1B1B1",
"4	c #C0C0C0",
"5	c #636363",
"6	c #F4F4F4",
"7	c #5C5C5C",
"8	c #727272",
"9	c #9A9A9A",
"0	c #060606",
"a	c #020202",
"b	c #7D7D7D",
"c	c #939393",
"d	c #959595",
"e	c #919191",
"f	c #B0B0B0",
"g	c #5F5F5F",
"h	c #747474",
"i	c #9C9C9C",
"j	c #070707",
"k	c #7B7B7B",
"l	c #F2F2F2",
"m	c #CFCFCF",
"n	c #656565",
"o	c #BFBFBF",
"p	c #A6A6A6",
"q	c #666666",
"r	c #6C6C6C",
"s	c #9F9F9F",
"t	c #646464",
"u	c #A0A0A0",
"v	c #6E6E6E",
"w	c #5D5D5D",
"x	c #050505",
"y	c #BBBBBB",
"z	c #757575",
"A	c #9B9B9B",
"B	c #8A8A8A",
"C	c #D2D2D2",
"D	c #3C3C3C",
"E	c #E9E9E9",
"F	c #BEBEBE",
"G	c #E2E2E2",
"H	c #848484",
"I	c #181818",
"J	c #A5A5A5",
"K	c #FCFCFC",
"L	c #F5F5F5",
"M	c #C2C2C2",
"N	c #A1A1A1",
"O	c #E1E1E1",
"P	c #D5D5D5",
"Q	c #0D0D0D",
"R	c #101010",
"S	c #141414",
"T	c #131313",
"U	c #171717",
"                    .",
" +@################$%",
" &*****************=-",
" @**;;;;;;;;;;;;;*;>%",
" @**;;;;*,';;;*;;*;>%",
" @**;;;;)!+~*;{*;*;>%",
" @**;**]^/(_,,:<**;>%",
" @**[}[|1 (_23456*;>%",
" @*'7890a b64cdef;;>%",
" @*'ghij1 kl7mnih;;>%",
" @*'ghij1 k2opq$r,*>%",
" @*'ghij1 k6sotuv;*>%",
" @*'w89xa blbyzAB;;>%",
" @**>C=D  (2EbFqG;;>%",
" @**;**EHI(_{29JK*;>%",
" @**;;;*LMN~*;OL;;;>%",
" @**;;;;**K;;;*;;*;>%",
" @**;;;;;;*;;;;;;*;>%",
" @**;;;;;;;;;;;;;*;>%",
" $>>PPPPPPPPPPPPP>Pf-",
"QRSTTTTTTTTTTTTTTTT/U"};
